0
SECTION
2
HEADER
9
$INSUNITS
70
4
9
$ACADVER
1
AC1014
9
$HANDSEED
5
FFFF
0
ENDSEC
0
SECTION
2
TABLES
0
TABLE
2
VPORT
5
8
100
AcDbSymbolTable
0
ENDTAB
0
TABLE
2
LTYPE
5
5
100
AcDbSymbolTable
0
LTYPE
5
14
100
AcDbSymbolTableRecord
100
AcDbLinetypeTableRecord
2
BYBLOCK
70
0
0
LTYPE
5
15
100
AcDbSymbolTableRecord
100
AcDbLinetypeTableRecord
2
BYLAYER
70
0
0
ENDTAB
0
TABLE
2
LAYER
5
2
100
AcDbSymbolTable
70
2
0
LAYER
5
50
100
AcDbSymbolTableRecord
100
AcDbLayerTableRecord
2
0
70
0
6
CONTINUOUS
0
ENDTAB
0
TABLE
2
STYLE
5
3
100
AcDbSymbolTable
70
1
0
STYLE
5
11
100
AcDbSymbolTableRecord
100
AcDbTextStyleTableRecord
2
STANDARD
70
0
0
ENDTAB
0
TABLE
2
VIEW
5
6
100
AcDbSymbolTable
70
0
0
ENDTAB
0
TABLE
2
UCS
5
7
100
AcDbSymbolTable
70
0
0
ENDTAB
0
TABLE
2
APPID
5
9
100
AcDbSymbolTable
70
2
0
APPID
5
12
100
AcDbSymbolTableRecord
100
AcDbRegAppTableRecord
2
ACAD
70
0
0
ENDTAB
0
TABLE
2
DIMSTYLE
5
A
100
AcDbSymbolTable
70
1
0
ENDTAB
0
TABLE
2
BLOCK_RECORD
5
1
100
AcDbSymbolTable
70
1
0
BLOCK_RECORD
5
1F
100
AcDbSymbolTableRecord
100
AcDbBlockTableRecord
2
*MODEL_SPACE
0
BLOCK_RECORD
5
1B
100
AcDbSymbolTableRecord
100
AcDbBlockTableRecord
2
*PAPER_SPACE
0
ENDTAB
0
ENDSEC
0
SECTION
2
BLOCKS
0
BLOCK
5
20
100
AcDbEntity
100
AcDbBlockBegin
2
*MODEL_SPACE
0
ENDBLK
5
21
100
AcDbEntity
100
AcDbBlockEnd
0
BLOCK
5
1C
100
AcDbEntity
100
AcDbBlockBegin
2
*PAPER_SPACE
0
ENDBLK
5
1D
100
AcDbEntity
100
AcDbBlockEnd
0
ENDSEC
0
SECTION
2
ENTITIES
0
LWPOLYLINE
5
100
100
AcDbEntity
8
0
100
AcDbPolyline
90
8
70
1
43
0.0
10
-82.550000000000011
20
0
10
-262.36500000000001
20
0
10
-262.36500000000001
20
-31.75
10
-287.76500000000004
20
-31.75
10
-287.76500000000004
20
0
10
-287.76500000000004
20
12.699999999999999
10
-275.06500000000005
20
25.399999999999999
10
-82.550000000000011
20
25.399999999999999
0
LINE
5
101
100
AcDbEntity
8
0
100
AcDbLine
10
-275.06500000000005
20
0
30
0
11
-275.06500000000005
21
25.399999999999999
31
0
0
LINE
5
102
100
AcDbEntity
8
0
100
AcDbLine
10
0
20
25.399999999999999
30
0
11
0
21
0
31
0
0
LINE
5
103
100
AcDbEntity
8
0
100
AcDbLine
10
-82.550000000000011
20
25.399999999999999
30
0
11
0
21
25.399999999999999
31
0
0
LINE
5
104
100
AcDbEntity
8
0
100
AcDbLine
10
0
20
0
30
0
11
-82.550000000000011
21
0
31
0
0
LINE
5
105
100
AcDbEntity
8
0
100
AcDbLine
10
-262.36500000000001
20
0
30
0
11
-287.76500000000004
21
0
31
0
0
CIRCLE
5
106
100
AcDbEntity
8
0
100
AcDbCircle
10
-275.06500000000005
20
-25.399999999999999
30
0
40
3.1749999999999901
210
0
220
0
230
1
0
CIRCLE
5
107
100
AcDbEntity
8
0
100
AcDbCircle
10
275.06500000000005
20
-25.399999999999999
30
0
40
3.1749999999999901
210
0
220
0
230
1
0
SPLINE
5
108
100
AcDbEntity
8
0
100
AcDbSpline
70
0
71
3
72
43
73
39
74
0
42
0.000000001
43
0.0000000001
44
0.0000000001
40
-0.25014284078178928
40
-0.25014284078178928
40
-0.25014284078178928
40
-0.25014284078178928
40
-0.24805924060069967
40
-0.24805924060069967
40
-0.12402962030035011
40
-0.12402962030035011
40
-0
40
-0
40
-0
40
0.07022451658734874
40
0.07022451658734874
40
0.14044903317470081
40
0.14044903317470081
40
0.26447865347505006
40
0.26447865347505006
40
0.38850827377540043
40
0.38850827377540043
40
0.51253789407574946
40
0.51253789407574946
40
0.63656751437609871
40
0.63656751437609871
40
0.76059713467644863
40
0.76059713467644863
40
0.88462675497679832
40
0.88462675497679832
40
1.0086563752771478
40
1.0086563752771478
40
1.1326859955774962
40
1.1326859955774962
40
1.2567156158778494
40
1.2567156158778494
40
1.3807452361781949
40
1.3807452361781949
40
1.5047748564785481
40
1.5047748564785481
40
1.6288044767788965
40
1.6288044767788965
40
1.7507504968981564
40
1.7507504968981564
40
1.7507504968981564
40
1.7507504968981564
10
-244.7050000000001
20
5.5511151231257827e-16
30
1.5580797685639807e-12
10
-244.7049999999933
20
-0.0069431431537435228
30
1.5586235008424981e-12
10
-244.70497722493405
20
-0.013887361650289157
30
1.5586239139115311e-12
10
-244.70221894726808
20
-0.43425571403224239
30
1.5586239139115311e-12
10
-244.61878143802289
20
-0.84319647929875807
30
1.5570594865247431e-12
10
-244.2998497081075
20
-1.6060771055815306
30
1.5570594865247431e-12
10
-244.06740464860661
20
-1.9527234120084596
30
1.5527012138450297e-12
10
-243.77506402995849
20
-2.2450640305761436
30
1.5527012138450297e-12
10
-243.60954325698748
20
-2.4105848035015782
30
1.5527012138450297e-12
10
-243.42622404791695
20
-2.5572941975174794
30
1.5492196194354958e-12
10
-243.03067900187881
20
-2.8077360605788879
30
1.5492196194354958e-12
10
-242.81966347978971
20
-2.9107022110569059
30
1.545212017254825e-12
10
-242.20997373342826
20
-3.1287676162386746
30
1.545212017254825e-12
10
-241.79721845838853
20
-3.1906340075402939
30
1.5374729840291857e-12
10
-240.97122634486698
20
-3.1526691987751212
30
1.5374729840291857e-12
10
-240.56588644119088
20
-3.0532009629725456
30
1.5298729867137676e-12
10
-239.81614967548205
20
-2.7044903659886939
30
1.5298729867137676e-12
10
-239.47892070556759
20
-2.458581868176541
30
1.5235500482544952e-12
10
-238.91770480664061
20
-1.851341377846708
30
1.5235500482544952e-12
10
-238.69908340750823
20
-1.4958149353882122
30
1.5194509649137465e-12
10
-238.41042479591567
20
-0.72097269063262881
30
1.5194509649137465e-12
10
-238.34314731711348
20
-0.3090648025170547
30
1.51818953307926e-12
10
-238.37026970858813
20
0.51735438541670487
30
1.51818953307926e-12
10
-238.46441027401954
20
0.92396466736498395
30
1.5199546394457001e-12
10
-238.803252363989
20
1.67821286018319
30
1.5199546394457001e-12
10
-239.04471437346371
20
2.0186397472327484
30
1.5244819771372036e-12
10
-239.6445379764489
20
2.5877758852579409
30
1.5244819771372036e-12
10
-239.99716492938575
20
2.8110438845509012
30
1.5310936229962943e-12
10
-240.76815251054111
20
3.1098455713075639
30
1.5310936229962943e-12
10
-241.17914207726307
20
3.1825225517863691
30
1.5387995497393167e-12
10
-242.00584602233775
20
3.1662472483369921
30
1.5387995497393167e-12
10
-242.41365666038706
20
3.0774505651805004
30
1.5464458725569457e-12
10
-243.17228639157747
20
2.7485353340671619
30
1.5464458725569457e-12
10
-243.51585257100325
20
2.5115613949924116
30
1.5528876317265307e-12
10
-244.09281093745207
20
1.9192579747008056
30
1.5528876317265307e-12
10
-244.32068708802521
20
1.5695912370122516
30
1.5571602387827262e-12
10
-244.62698581101452
20
0.8090335908195313
30
1.5571602387827262e-12
10
-244.70499997707958
20
0.40635851465255363
30
1.5585751497960168e-12
10
-244.7050000000001
20
1.6653345369377348e-15
30
1.5580797685639807e-12
0
SPLINE
5
109
100
AcDbEntity
8
0
100
AcDbSpline
70
0
71
3
72
43
73
39
74
0
42
0.000000001
43
0.0000000001
44
0.0000000001
40
-1.7510126276788314
40
-1.7510126276788314
40
-1.7510126276788314
40
-1.7510126276788314
40
-1.7364146842049
40
-1.7364146842049
40
-1.6123850639045492
40
-1.6123850639045492
40
-1.488355443604199
40
-1.488355443604199
40
-1.36432582330385
40
-1.36432582330385
40
-1.2402962030035025
40
-1.2402962030035025
40
-1.1162665827031515
40
-1.1162665827031515
40
-0.99223696240280168
40
-0.99223696240280168
40
-0.86820734210245165
40
-0.86820734210245165
40
-0.74417772180210173
40
-0.74417772180210173
40
-0.62014810150175159
40
-0.62014810150175159
40
-0.49611848120140289
40
-0.49611848120140289
40
-0.37208886090105026
40
-0.37208886090105026
40
-0.24805924060069962
40
-0.24805924060069962
40
-0.12402962030034993
40
-0.12402962030034993
40
-0
40
-0
40
-0
40
0.070224516587349406
40
0.070224516587349406
40
0.14044903317469948
40
0.14044903317469948
40
0.249880710001118
40
0.249880710001118
40
0.249880710001118
40
0.249880710001118
10
238.34500000000006
20
-6.7307270867900115e-13
30
1.0511029265607411e-12
10
238.34499998701705
20
0.048563944286131103
30
1.0513626135453026e-12
10
238.34388577971254
20
0.097169103125331738
30
1.0513737421306139e-12
10
238.3226691989417
20
0.55877365419364655
30
1.0513737421306139e-12
10
238.22320096325984
20
0.96411355789936071
30
1.0500821152872969e-12
10
237.87449036649943
20
1.713850323712121
30
1.0500821152872969e-12
10
237.62858186878773
20
2.0510792936998774
30
1.0468889148201624e-12
10
237.02134137862515
20
2.6122951928077667
30
1.0468889148201624e-12
10
236.66581493623181
20
2.8309165920461323
30
1.0422722902931804e-12
10
235.89097269156224
20
3.1195752038695401
30
1.0422722902931804e-12
10
235.47906480346671
20
3.186852682794461
30
1.0369235346669102e-12
10
234.65264561552488
20
3.1597302915661123
30
1.0369235346669102e-12
10
234.24603533354855
20
3.0655897262558351
30
1.0316435701499019e-12
10
233.49178714062936
20
2.7267476365111336
30
1.0316435701499019e-12
10
233.15136025350785
20
2.4852856271378791
30
1.0272230181759068e-12
10
232.58222411530394
20
1.8854620243222573
30
1.0272230181759068e-12
10
232.3589561159059
20
1.5328350714519314
30
1.0243238118182238e-12
10
232.0601544289195
20
0.76184749038562116
30
1.0243238118182238e-12
10
231.9874774483182
20
0.35085792368533097
30
1.0233800779880981e-12
10
232.00375275152126
20
-0.47584602139419263
30
1.0233800779880981e-12
10
232.09254943455622
20
-0.88365665947000105
30
1.0245331313082795e-12
10
232.42146466544352
20
-1.6422863907584315
30
1.0245331313082795e-12
10
232.65843860441589
20
-1.9858525702547967
30
1.0276103136735365e-12
10
233.25074202453555
20
-2.5628109368800938
30
1.0276103136735365e-12
10
233.60040876215623
20
-2.7906870875574774
30
1.0321508480605215e-12
10
234.36740890819974
20
-3.0995803932046861
30
1.0321508480605215e-12
10
234.77740937717903
20
-3.1776443598126498
30
1.0374748352397082e-12
10
235.60425571308707
20
-3.1722189473974609
30
1.0374748352397082e-12
10
236.01319647837843
20
-3.0887814382740753
30
1.0427850618276878e-12
10
236.77607710475624
20
-2.7698497085860394
30
1.0427850618276878e-12
10
237.12272341125242
20
-2.5374046491884301
30
1.0472863749507987e-12
10
237.41506402990723
20
-2.2450640306274234
30
1.0472863749507987e-12
10
237.58058480288199
20
-2.0795432577057689
30
1.0472863749507987e-12
10
237.7272941969525
20
-1.8962240486788875
30
1.0492160611616531e-12
10
237.97773606013178
20
-1.5006790027153838
30
1.0492160611616531e-12
10
238.08070221067268
20
-1.2896634806570131
30
1.0505703872574176e-12
10
238.28238028698297
20
-0.72579111871933621
30
1.0505703872574176e-12
10
238.34499927040864
20
-0.36405359878867949
30
1.0511957654199477e-12
10
238.34500000000006
20
-6.7307270867900115e-13
30
1.0511029265607411e-12
0
SPLINE
5
110
100
AcDbEntity
8
0
100
AcDbSpline
70
0
71
3
72
43
73
39
74
0
42
0.000000001
43
0.0000000001
44
0.0000000001
40
-0.25014284073809673
40
-0.25014284073809673
40
-0.25014284073809673
40
-0.25014284073809673
40
-0.24805924060069878
40
-0.24805924060069878
40
-0.12402962030034911
40
-0.12402962030034911
40
-0
40
-0
40
-0
40
0.07022451658735096
40
0.07022451658735096
40
0.14044903317470259
40
0.14044903317470259
40
0.26447865347505206
40
0.26447865347505206
40
0.3885082737754002
40
0.3885082737754002
40
0.51253789407574923
40
0.51253789407574923
40
0.63656751437610049
40
0.63656751437610049
40
0.76059713467644974
40
0.76059713467644974
40
0.88462675497679921
40
0.88462675497679921
40
1.0086563752771478
40
1.0086563752771478
40
1.1326859955774982
40
1.1326859955774982
40
1.2567156158778501
40
1.2567156158778501
40
1.3807452361781976
40
1.3807452361781976
40
1.5047748564785479
40
1.5047748564785479
40
1.6288044767788985
40
1.6288044767788985
40
1.7507504969418495
40
1.7507504969418495
40
1.7507504969418495
40
1.7507504969418495
10
-231.98500000000001
20
-6.591949208711867e-16
30
-2.2754675055812469e-13
10
-231.98499999999328
20
-0.0069431430081954432
30
-2.2756680794433608e-13
10
-231.98497722493499
20
-0.013887361359148989
30
-2.2756687156134842e-13
10
-231.98221894732782
20
-0.43425571359584664
30
-2.2756687156134842e-13
10
-231.89878143813885
20
-0.84319647887383953
30
-2.2732593314083933e-13
10
-231.57984970832842
20
-1.6060771052004843
30
-2.2732593314083933e-13
10
-231.34740464887525
20
-1.9527234116593957
30
-2.2665471289440379e-13
10
-231.05506403026735
20
-2.2450640302672937
30
-2.2665471289440379e-13
10
-230.88954325731913
20
-2.4105848032155035
30
-2.2665471289440379e-13
10
-230.70622404826872
20
-2.5572941972566188
30
-2.2611851040559295e-13
10
-230.31067900226503
20
-2.8077360603724442
30
-2.2611851040559295e-13
10
-230.09966348019015
20
-2.9107022108794922
30
-2.2550129713754335e-13
10
-229.48997373385865
20
-3.1287676161451334
30
-2.2550129713754335e-13
10
-229.07721845882745
20
-3.1906340075035327
30
-2.2430940388725982e-13
10
-228.25122634530064
20
-3.1526691988519899
30
-2.2430940388725982e-13
10
-227.8458864416109
20
-3.0532009631051737
30
-2.2313892364266003e-13
10
-227.09614967585409
20
-2.7044903662244657
30
-2.2313892364266003e-13
10
-226.75892070590578
20
-2.4585818684587037
30
-2.2216512401514211e-13
10
-226.19770480689533
20
-1.851341378206071
30
-2.2216512401514211e-13
10
-225.97908340771394
20
-1.4958149357776622
30
-2.2153382167737775e-13
10
-225.69042479601481
20
-0.72097269106178463
30
-2.2153382167737775e-13
10
-225.623147317156
20
-0.30906480295546246
30
-2.2133954778725759e-13
10
-225.65026970851693
20
0.51735438498202602
30
-2.2133954778725759e-13
10
-225.74441027389241
20
0.92396466694325674
30
-2.2161139290041925e-13
10
-226.08325236375811
20
1.6782128598080734
30
-2.2161139290041925e-13
10
-226.32471437318597
20
2.0186397468908548
30
-2.2230865095294248e-13
10
-226.92453797609286
20
2.5877758849985666
30
-2.2230865095294248e-13
10
-227.27716492899901
20
2.8110438843400285
30
-2.2332691458386782e-13
10
-228.04815251011325
20
3.1098455712027562
30
-2.2332691458386782e-13
10
-228.45914207682523
20
3.1825225517381024
30
-2.245137090844684e-13
10
-229.28584602190213
20
3.1662472484024522
30
-2.245137090844684e-13
10
-229.69365665996372
20
3.0774505653020654
30
-2.2569132394805222e-13
10
-230.45228639119938
20
2.74853533429309
30
-2.2569132394805222e-13
10
-230.7958525706577
20
2.5115613952655962
30
-2.2668342322598668e-13
10
-231.37281093718801
20
1.9192579750533634
30
-2.2668342322598668e-13
10
-231.60068708780929
20
1.5695912373961662
30
-2.2734145005751677e-13
10
-231.90698581095762
20
0.8090335911104819
30
-2.2734145005751677e-13
10
-231.98499997707955
20
0.40635851480078466
30
-2.2755936137018137e-13
10
-231.98500000000001
20
-1.3877787807814457e-16
30
-2.2754675055812469e-13
0
SPLINE
5
111
100
AcDbEntity
8
0
100
AcDbSpline
70
0
71
3
72
43
73
39
74
0
42
0.000000001
43
0.0000000001
44
0.0000000001
40
-1.7510126276737115
40
-1.7510126276737115
40
-1.7510126276737115
40
-1.7510126276737115
40
-1.736414684204898
40
-1.736414684204898
40
-1.6123850639045476
40
-1.6123850639045476
40
-1.4883554436041999
40
-1.4883554436041999
40
-1.36432582330385
40
-1.36432582330385
40
-1.2402962030034981
40
-1.2402962030034981
40
-1.1162665827031484
40
-1.1162665827031484
40
-0.99223696240280057
40
-0.99223696240280057
40
-0.86820734210244921
40
-0.86820734210244921
40
-0.74417772180209985
40
-0.74417772180209985
40
-0.62014810150175004
40
-0.62014810150175004
40
-0.49611848120139995
40
-0.49611848120139995
40
-0.3720888609010502
40
-0.3720888609010502
40
-0.24805924060069956
40
-0.24805924060069956
40
-0.12402962030034785
40
-0.12402962030034785
40
-0
40
-0
40
-0
40
0.070224516587350072
40
0.070224516587350072
40
0.14044903317469903
40
0.14044903317469903
40
0.24988071000623524
40
0.24988071000623524
40
0.24988071000623524
40
0.24988071000623524
10
225.62500000000003
20
-6.7307270867900115e-13
30
-5.5246329826037943e-13
10
225.62499998701699
20
0.048563944269133991
30
-5.5260748783115605e-13
10
225.62388577971325
20
0.097169103091313269
30
-5.5261366690840495e-13
10
225.60266919895065
20
0.55877365414292668
30
-5.5261366690840495e-13
10
225.50320096327536
20
0.96411355785024466
30
-5.5189649919817835e-13
10
225.15449036652697
20
1.7138503236686069
30
-5.5189649919817835e-13
10
224.90858186882076
20
2.0510792936603326
30
-5.501234946502643e-13
10
224.30134137866719
20
2.6122951927779869
30
-5.501234946502643e-13
10
223.94581493627737
20
2.8309165920220685
30
-5.4756014281354221e-13
10
223.17097269161241
20
3.1195752038579476
30
-5.4756014281354221e-13
10
222.75906480351796
20
3.1868526827894894
30
-5.4459027977210468e-13
10
221.93264561557567
20
3.1597302915744354
30
-5.4459027977210468e-13
10
221.52603533359783
20
3.065589726270697
30
-5.4165861256296028e-13
10
220.77178714067318
20
2.7267476365381333
30
-5.4165861256296028e-13
10
220.43136025354784
20
2.4852856271703478
30
-5.3920412878246664e-13
10
219.86222411533424
20
1.8854620243638829
30
-5.3920412878246664e-13
10
219.63895611593051
20
1.5328350714971561
30
-5.375943626213177e-13
10
219.3401544289317
20
0.7618474904356497
30
-5.375943626213177e-13
10
219.26747744832383
20
0.35085792373652586
30
-5.37070360326365e-13
10
219.28375275151359
20
-0.47584602134325749
30
-5.37070360326365e-13
10
219.37254943454201
20
-0.88365665942049576
30
-5.3771058595629465e-13
10
219.70146466541706
20
-1.6422863907142213
30
-5.3771058595629465e-13
10
219.93843860438392
20
-1.9858525702143905
30
-5.3941917218021305e-13
10
220.53074202449434
20
-2.5628109368492131
30
-5.3941917218021305e-13
10
220.8804087621113
20
-2.7906870875322314
30
-5.4194027544354891e-13
10
221.64740890814983
20
-3.0995803931917747
30
-5.4194027544354891e-13
10
222.0574093771279
20
-3.177644359806334
30
-5.4489638595996284e-13
10
222.88425571303603
20
-3.1722189474044473
30
-5.4489638595996284e-13
10
223.29319647832872
20
-3.0887814382876426
30
-5.4784485599436402e-13
10
224.05607710471168
20
-2.7698497086118801
30
-5.4784485599436402e-13
10
224.40272341121158
20
-2.537404649219841
30
-5.5034418189678238e-13
10
224.69506402987108
20
-2.245064030663543
30
-5.5034418189678238e-13
10
224.86058480284851
20
-2.079543257744549
30
-5.5034418189678238e-13
10
225.00729419692195
20
-1.8962240487200321
30
-5.5141562807225743e-13
10
225.25773606010759
20
-1.5006790027605577
30
-5.5141562807225743e-13
10
225.36070221065188
20
-1.2896634807038359
30
-5.5216760914954834e-13
10
225.56238028697697
20
-0.72579111875334401
30
-5.5216760914954834e-13
10
225.62499927040858
20
-0.36405359880592203
30
-5.5251484645518929e-13
10
225.62500000000003
20
-6.7307270867900115e-13
30
-5.5246329826037943e-13
0
SPLINE
5
112
100
AcDbEntity
8
0
100
AcDbSpline
70
0
71
3
72
43
73
39
74
0
42
0.000000001
43
0.0000000001
44
0.0000000001
40
-0.25014284080433097
40
-0.25014284080433097
40
-0.25014284080433097
40
-0.25014284080433097
40
-0.24805924060070131
40
-0.24805924060070131
40
-0.12402962030035247
40
-0.12402962030035247
40
-0
40
-0
40
-0
40
0.070224516587349184
40
0.070224516587349184
40
0.14044903317469837
40
0.14044903317469837
40
0.26447865347505051
40
0.26447865347505051
40
0.38850827377539798
40
0.38850827377539798
40
0.51253789407574724
40
0.51253789407574724
40
0.6365675143760976
40
0.6365675143760976
40
0.76059713467644752
40
0.76059713467644752
40
0.88462675497679721
40
0.88462675497679721
40
1.0086563752771469
40
1.0086563752771469
40
1.1326859955774959
40
1.1326859955774959
40
1.2567156158778481
40
1.2567156158778481
40
1.3807452361781967
40
1.3807452361781967
40
1.5047748564785464
40
1.5047748564785464
40
1.6288044767788965
40
1.6288044767788965
40
1.7507504968756162
40
1.7507504968756162
40
1.7507504968756162
40
1.7507504968756162
10
-219.26500000000001
20
-1.0408340855860843e-15
30
-2.6868880945086283e-13
10
-219.26499999999334
20
-0.0069431432288300596
30
-2.6879345870759483e-13
10
-219.2649772249336
20
-0.013887361800485089
30
-2.687935382087941e-13
10
-219.26221894723724
20
-0.43425571425737225
30
-2.687935382087941e-13
10
-219.17878143796304
20
-0.84319647951796828
30
-2.6849244119864889e-13
10
-218.85984970799353
20
-1.6060771057781116
30
-2.6849244119864889e-13
10
-218.62740464846797
20
-1.9527234121885308
30
-2.6765362765957136e-13
10
-218.3350640297991
20
-2.2450640307354734
30
-2.6765362765957136e-13
10
-218.16954325681638
20
-2.4105848036491619
30
-2.6765362765957136e-13
10
-217.98622404773539
20
-2.5572941976520545
30
-2.6698354371972417e-13
10
-217.59067900167949
20
-2.8077360606853876
30
-2.6698354371972417e-13
10
-217.37966347958314
20
-2.9107022111484397
30
-2.6621222186467105e-13
10
-216.7699737332062
20
-3.1287676162869369
30
-2.6621222186467105e-13
10
-216.35721845816207
20
-3.1906340075592583
30
-2.6472273134274108e-13
10
-215.53122634464319
20
-3.152669198735464
30
-2.6472273134274108e-13
10
-215.1258864409742
20
-3.0532009629041172
30
-2.6326000032225822e-13
10
-214.37614967529009
20
-2.7044903658670605
30
-2.6326000032225822e-13
10
-214.03892070539308
20
-2.4585818680309752
30
-2.6204305802072592e-13
10
-213.47770480650922
20
-1.851341377661309
30
-2.6204305802072592e-13
10
-213.25908340740202
20
-1.4958149351873027
30
-2.6125412927396082e-13
10
-212.97042479586449
20
-0.72097269041122969
30
-2.6125412927396082e-13
10
-212.90314731709151
20
-0.30906480229088157
30
-2.6101134820481293e-13
10
-212.93026970862479
20
0.51735438564095326
30
-2.6101134820481293e-13
10
-213.02441027408508
20
0.92396466758255136
30
-2.6135106882974559e-13
10
-213.36325236410804
20
1.6782128603767099
30
-2.6135106882974559e-13
10
-213.6047143736069
20
2.0186397474091313
30
-2.6222242141152965e-13
10
-214.20453797663254
20
2.5877758853917547
30
-2.6222242141152965e-13
10
-214.55716492958518
20
2.8110438846596892
30
-2.6349492968933161e-13
10
-215.32815251076175
20
3.1098455713616326
30
-2.6349492968933161e-13
10
-215.73914207748888
20
3.1825225518112705
30
-2.6497804838281574e-13
10
-216.56584602256243
20
3.1662472483032196
30
-2.6497804838281574e-13
10
-216.97365666060546
20
3.0774505651177892
30
-2.6644969542607246e-13
10
-217.7322863917725
20
2.7485353339506089
30
-2.6644969542607246e-13
10
-218.07585257118146
20
2.5115613948514652
30
-2.6768950651711321e-13
10
-218.65281093758821
20
1.9192579745189164
30
-2.6768950651711321e-13
10
-218.8806870881366
20
1.5695912368141998
30
-2.6851183244954228e-13
10
-219.18698581104388
20
0.80903359066943059
30
-2.6851183244954228e-13
10
-219.26499997707953
20
0.40635851457608113
30
-2.6878415283900656e-13
10
-219.26500000000001
20
-1.6653345369377348e-15
30
-2.6868880945086283e-13
0
SPLINE
5
113
100
AcDbEntity
8
0
100
AcDbSpline
70
0
71
3
72
43
73
39
74
0
42
0.000000001
43
0.0000000001
44
0.0000000001
40
-1.7510126277298614
40
-1.7510126277298614
40
-1.7510126277298614
40
-1.7510126277298614
40
-1.7364146842048995
40
-1.7364146842048995
40
-1.6123850639045498
40
-1.6123850639045498
40
-1.4883554436041984
40
-1.4883554436041984
40
-1.3643258233038487
40
-1.3643258233038487
40
-1.240296203003499
40
-1.240296203003499
40
-1.1162665827031499
40
-1.1162665827031499
40
-0.99223696240279935
40
-0.99223696240279935
40
-0.86820734210244943
40
-0.86820734210244943
40
-0.74417772180209985
40
-0.74417772180209985
40
-0.62014810150174993
40
-0.62014810150174993
40
-0.49611848120140045
40
-0.49611848120140045
40
-0.37208886090104965
40
-0.37208886090104965
40
-0.24805924060070053
40
-0.24805924060070053
40
-0.12402962030035095
40
-0.12402962030035095
40
-0
40
-0
40
-0
40
0.070224516587349184
40
0.070224516587349184
40
0.14044903317469881
40
0.14044903317469881
40
0.24988070995008704
40
0.24988070995008704
40
0.24988070995008704
40
0.24988070995008704
10
212.90500000000003
20
-6.7258698610572765e-13
30
-4.6917745532124497e-13
10
212.90499998701702
20
0.048563944455608812
30
-4.6930722593466972e-13
10
212.90388577970472
20
0.097169103464529727
30
-4.6931278710422996e-13
10
212.88266919885203
20
0.55877365469936002
30
-4.6931278710422996e-13
10
212.78320096310523
20
0.9641135583891246
30
-4.6866733616456177e-13
10
212.43449036622451
20
1.71385032414595
30
-4.6866733616456177e-13
10
212.1885818684587
20
2.0510792940942539
30
-4.6707163207105287e-13
10
211.5813413782061
20
2.6122951931047398
30
-4.6707163207105287e-13
10
211.22581493577769
20
2.8309165922860742
30
-4.6476461541775245e-13
10
210.45097269106179
20
3.1195752039851938
30
-4.6476461541775245e-13
10
210.03906480295547
20
3.1868526828440382
30
-4.6209173868038178e-13
10
209.212645615018
20
3.1597302914831236
30
-4.6209173868038178e-13
10
208.80603533305677
20
3.0655897261076204
30
-4.5945323819225968e-13
10
208.05178714019195
20
2.7267476362419316
30
-4.5945323819225968e-13
10
207.71136025310915
20
2.4852856268140715
30
-4.572442027900918e-13
10
207.14222411500145
20
1.8854620239071529
30
-4.572442027900918e-13
10
206.91895611566
20
1.5328350710010119
30
-4.5579541324546171e-13
10
206.62015442879724
20
0.76184748988677198
30
-4.5579541324546171e-13
10
206.54747744826193
20
0.35085792317482212
30
-4.5532381118047497e-13
10
206.56375275159758
20
-0.47584602190208963
30
-4.5532381118047497e-13
10
206.65254943469793
20
-0.88365665996365528
30
-4.5590001424787879e-13
10
206.98146466570694
20
-1.6422863911993268
30
-4.5590001424787879e-13
10
207.21843860473442
20
-1.9858525706576737
30
-4.5743774184979885e-13
10
207.81074202494665
20
-2.5628109371879582
30
-4.5743774184979885e-13
10
208.16040876260385
20
-2.7906870878092565
30
-4.5970673478706206e-13
10
208.92740890869689
20
-3.0995803933334272
30
-4.5970673478706206e-13
10
209.33740937768872
20
-3.1776443598756248
30
-4.6236723425192396e-13
10
210.16425571359588
20
-3.1722189473278024
30
-4.6236723425192396e-13
10
210.57319647887385
20
-3.0887814381388186
30
-4.6502085728278938e-13
10
211.3360771052005
20
-2.7698497083284082
30
-4.6502085728278938e-13
10
211.68272341165942
20
-2.5374046488751967
30
-4.6727025059469988e-13
10
211.97506403026733
20
-2.2450640302672937
30
-4.6727025059469988e-13
10
212.14058480321555
20
-2.079543257319088
30
-4.6727025059469988e-13
10
212.28729419725664
20
-1.8962240482686745
30
-4.6823455215241465e-13
10
212.53773606037245
20
-1.5006790022649983
30
-4.6823455215241465e-13
10
212.64070221087951
20
-1.2896634801901108
30
-4.6891133512173167e-13
10
212.84238028704209
20
-0.72579111838024857
30
-4.6891133512173167e-13
10
212.90499927040858
20
-0.36405359861675435
30
-4.692238486961199e-13
10
212.90500000000003
20
-6.7258698610572765e-13
30
-4.6917745532124497e-13
0
SPLINE
5
114
100
AcDbEntity
8
0
100
AcDbSpline
70
0
71
3
72
43
73
39
74
0
42
0.000000001
43
0.0000000001
44
0.0000000001
40
-0.75043043568457557
40
-0.75043043568457557
40
-0.75043043568457557
40
-0.75043043568457557
40
-0.74417772180209996
40
-0.74417772180209996
40
-0.62014810150175004
40
-0.62014810150175004
40
-0.49611848120140056
40
-0.49611848120140056
40
-0.37208886090104965
40
-0.37208886090104965
40
-0.24805924060070056
40
-0.24805924060070056
40
-0.12402962030035095
40
-0.12402962030035095
40
-0
40
-0
40
-0
40
0.07022451658734985
40
0.07022451658734985
40
0.14044903317469992
40
0.14044903317469992
40
0.26447865347504984
40
0.26447865347504984
40
0.3885082737754002
40
0.3885082737754002
40
0.51253789407575034
40
0.51253789407575034
40
0.63656751437609982
40
0.63656751437609982
40
0.76059713467644929
40
0.76059713467644929
40
0.88462675497679832
40
0.88462675497679832
40
1.0086563752771489
40
1.0086563752771489
40
1.1326859955774986
40
1.1326859955774986
40
1.2504629019953728
40
1.2504629019953728
40
1.2504629019953728
40
1.2504629019953728
10
-206.54500000000002
20
5.5441762292218755e-14
30
-3.0367451086498254e-13
10
-206.5449999994938
20
-0.020823369831256086
30
-3.037875980522125e-13
10
-206.54479514407029
20
-0.041655707596713297
30
-3.0378839776937434e-13
10
-206.53624724840245
20
-0.47584602190208858
30
-3.0378839776937434e-13
10
-206.44745056530209
20
-0.88365665996365428
30
-3.0340393879799355e-13
10
-206.11853533429309
20
-1.642286391199326
30
-3.0340393879799355e-13
10
-205.88156139526561
20
-1.9858525706576731
30
-3.0237792348231379e-13
10
-205.28925797505337
20
-2.5628109371879577
30
-3.0237792348231379e-13
10
-204.93959123739617
20
-2.7906870878092569
30
-3.0086398726767183e-13
10
-204.17259109130313
20
-3.0995803933334276
30
-3.0086398726767183e-13
10
-203.76259062231131
20
-3.1776443598756248
30
-2.9908882683295117e-13
10
-202.93574428640414
20
-3.1722189473278024
30
-2.9908882683295117e-13
10
-202.52680352112617
20
-3.0887814381388186
30
-2.973182545493367e-13
10
-201.76392289479952
20
-2.7698497083284082
30
-2.973182545493367e-13
10
-201.4172765883406
20
-2.5374046488751967
30
-2.9581739575866004e-13
10
-201.12493596973269
20
-2.2450640302672937
30
-2.9581739575866004e-13
10
-200.95941519678448
20
-2.0795432573190871
30
-2.9581739575866004e-13
10
-200.81270580274338
20
-1.896224048268671
30
-2.9517398650599797e-13
10
-200.56226393962757
20
-1.5006790022649918
30
-2.9517398650599797e-13
10
-200.45929778912051
20
-1.2896634801901024
30
-2.9472241778144386e-13
10
-200.24123238385485
20
-0.67997373385864079
30
-2.9472241778144386e-13
10
-200.17936599249646
20
-0.26721845882741962
30
-2.9445455767277522e-13
10
-200.21733080114799
20
0.55877365469936902
30
-2.9445455767277522e-13
10
-200.31679903689482
20
0.96411355838912893
30
-2.9488522078163307e-13
10
-200.66550963377554
20
1.7138503241459504
30
-2.9488522078163307e-13
10
-200.91141813154132
20
2.0510792940942641
30
-2.9594991965104846e-13
10
-201.51865862179392
20
2.6122951931047451
30
-2.9594991965104846e-13
10
-201.87418506422233
20
2.8309165922860773
30
-2.9748922636366715e-13
10
-202.64902730893823
20
3.1195752039851947
30
-2.9748922636366715e-13
10
-203.06093519704456
20
3.1868526828440382
30
-2.9927264526441539e-13
10
-203.88735438498202
20
3.1597302914831236
30
-2.9927264526441539e-13
10
-204.29396466694325
20
3.0655897261076199
30
-3.0103312736011412e-13
10
-205.04821285980807
20
2.7267476362419307
30
-3.0103312736011412e-13
10
-205.38863974689087
20
2.4852856268140715
30
-3.0250705821280423e-13
10
-205.95777588499857
20
1.8854620239071538
30
-3.0250705821280423e-13
10
-206.18104388434003
20
1.5328350710010132
30
-3.0347373154306847e-13
10
-206.47231381608239
20
0.78128141518613092
30
-3.0347373154306847e-13
10
-206.5449998204019
20
0.39223161750619695
30
-3.0375747090579193e-13
10
-206.54500000000002
20
5.6551985316843911e-14
30
-3.0367451086498254e-13
0
SPLINE
5
115
100
AcDbEntity
8
0
100
AcDbSpline
70
0
71
3
72
43
73
39
74
0
42
0.000000001
43
0.0000000001
44
0.0000000001
40
-1.2507204264723841
40
-1.2507204264723841
40
-1.2507204264723841
40
-1.2507204264723841
40
-1.2402962030034974
40
-1.2402962030034974
40
-1.1162665827031477
40
-1.1162665827031477
40
-0.99223696240279891
40
-0.99223696240279891
40
-0.86820734210244854
40
-0.86820734210244854
40
-0.74417772180209663
40
-0.74417772180209663
40
-0.62014810150174648
40
-0.62014810150174648
40
-0.49611848120139834
40
-0.49611848120139834
40
-0.37208886090104809
40
-0.37208886090104809
40
-0.24805924060069875
40
-0.24805924060069875
40
-0.12402962030034907
40
-0.12402962030034907
40
-0
40
-0
40
-0
40
0.070224516587350516
40
0.070224516587350516
40
0.14044903317469948
40
0.14044903317469948
40
0.26447865347505184
40
0.26447865347505184
40
0.38850827377539976
40
0.38850827377539976
40
0.51253789407574879
40
0.51253789407574879
40
0.63656751437610004
40
0.63656751437610004
40
0.75017291120756258
40
0.75017291120756258
40
0.75017291120756258
40
0.75017291120756258
10
200.18500000000006
20
-2.8144153674247718e-13
30
-3.9211010359061887e-13
10
200.18499999636177
20
0.034696558995846498
30
1.0301345134282495e-12
10
200.18443125469605
20
0.069416077528646342
30
1.0301417124074497e-12
10
200.16973029148315
20
0.51735438498202069
30
1.0301417124074497e-12
10
200.07558972610767
20
0.92396466694325197
30
1.0287156405320816e-12
10
199.73674763624194
20
1.6782128598080701
30
1.0287156405320816e-12
10
199.49528562681411
20
2.0186397468908517
30
1.025057895549975e-12
10
198.89546202390721
20
2.5877758849985648
30
1.025057895549975e-12
10
198.54283507100106
20
2.8110438843400276
30
1.0197161878809123e-12
10
197.7718474898868
20
3.1098455712027557
30
1.0197161878809123e-12
10
197.36085792317485
20
3.1825225517381024
30
1.0134903843729362e-12
10
196.53415397809792
20
3.1662472484024522
30
1.0134903843729362e-12
10
196.12634334003639
20
3.0774505653020694
30
1.007312736309152e-12
10
195.3677136088007
20
2.7485353342930936
30
1.007312736309152e-12
10
195.02414742934235
20
2.5115613952655909
30
1.0021082841805828e-12
10
194.4471890628121
20
1.9192579750533634
30
1.0021082841805828e-12
10
194.21931291219079
20
1.569591237396168
30
9.9865634220241456e-13
10
193.91041960666658
20
0.80259109130312478
30
9.9865634220241456e-13
10
193.83235564012443
20
0.39259062231130404
30
9.9747380387027849e-13
10
193.83778105267226
20
-0.4342557135958463
30
9.9747380387027849e-13
10
193.92121856186122
20
-0.84319647887383908
30
9.9873774237256571e-13
10
194.24015029167165
20
-1.6060771052004839
30
9.9873774237256571e-13
10
194.47259535112482
20
-1.9527234116593957
30
1.0022588956663907e-12
10
194.76493596973273
20
-2.2450640302672937
30
1.0022588956663907e-12
10
194.93045674268097
20
-2.4105848032155026
30
1.0022588956663907e-12
10
195.11377595173138
20
-2.5572941972566143
30
1.0050717595060314e-12
10
195.50932099773505
20
-2.8077360603724353
30
1.0050717595060314e-12
10
195.7203365198099
20
-2.9107022108794887
30
1.008309597672157e-12
10
196.3300262661414
20
-3.1287676161451334
30
1.008309597672157e-12
10
196.74278154117263
20
-3.1906340075035322
30
1.0145621487035217e-12
10
197.56877365469944
20
-3.1526691988519921
30
1.0145621487035217e-12
10
197.97411355838918
20
-3.0532009631051777
30
1.0207023692801747e-12
10
198.72385032414599
20
-2.7044903662244719
30
1.0207023692801747e-12
10
199.0610792940943
20
-2.4585818684587095
30
1.0258108232998037e-12
10
199.62229519310478
20
-1.8513413782060786
30
1.0258108232998037e-12
10
199.84091659228613
20
-1.4958149357776693
30
1.0291225712958198e-12
10
200.11744486823449
20
-0.75353398042352848
30
1.0291225712958198e-12
10
200.18499956787704
20
-0.3781304540528948
30
1.0299776014258803e-12
10
200.18500000000006
20
-2.8144153674247718e-13
30
-3.9211010359061887e-13
0
SPLINE
5
116
100
AcDbEntity
8
0
100
AcDbSpline
70
0
71
3
72
43
73
39
74
0
42
0.000000001
43
0.0000000001
44
0.0000000001
40
-0.25014284073809673
40
-0.25014284073809673
40
-0.25014284073809673
40
-0.25014284073809673
40
-0.24805924060069878
40
-0.24805924060069878
40
-0.12402962030034906
40
-0.12402962030034906
40
-0
40
-0
40
-0
40
0.070224516587352737
40
0.070224516587352737
40
0.14044903317470436
40
0.14044903317470436
40
0.2644786534750514
40
0.2644786534750514
40
0.3885082737754022
40
0.3885082737754022
40
0.51253789407575123
40
0.51253789407575123
40
0.6365675143761016
40
0.6365675143761016
40
0.76059713467645129
40
0.76059713467645129
40
0.88462675497680077
40
0.88462675497680077
40
1.0086563752771509
40
1.0086563752771509
40
1.1326859955775013
40
1.1326859955775013
40
1.2567156158778507
40
1.2567156158778507
40
1.3807452361782009
40
1.3807452361782009
40
1.5047748564785512
40
1.5047748564785512
40
1.6288044767789014
40
1.6288044767789014
40
1.7507504969418526
40
1.7507504969418526
40
1.7507504969418526
40
1.7507504969418526
10
-193.82500000000005
20
-1.3877787807814457e-15
30
-3.3240728480438196e-13
10
-193.82499999999325
20
-0.0069431430081955108
30
1.0446547596628417e-12
10
-193.82497722493497
20
-0.013887361359149059
30
1.0446551091951296e-12
10
-193.8222189473278
20
-0.4342557135958468
30
1.0446551091951296e-12
10
-193.73878143813883
20
-0.84319647887383942
30
1.0433313161667096e-12
10
-193.4198497083284
20
-1.6060771052004841
30
1.0433313161667096e-12
10
-193.18740464887523
20
-1.9527234116593957
30
1.039643416657415e-12
10
-192.89506403026732
20
-2.2450640302672937
30
1.039643416657415e-12
10
-192.72954325731911
20
-2.4105848032155084
30
1.039643416657415e-12
10
-192.54622404826864
20
-2.5572941972566152
30
1.0366973480519621e-12
10
-192.15067900226498
20
-2.8077360603724442
30
1.0366973480519621e-12
10
-191.93966348019006
20
-2.9107022108794922
30
1.0333061802192606e-12
10
-191.32997373385859
20
-3.1287676161451303
30
1.0333061802192606e-12
10
-190.91721845882742
20
-3.1906340075035322
30
1.0267575360801804e-12
10
-190.09122634530061
20
-3.1526691988519899
30
1.0267575360801804e-12
10
-189.68588644161085
20
-3.0532009631051777
30
1.0203265418683376e-12
10
-188.93614967585404
20
-2.7044903662244653
30
1.0203265418683376e-12
10
-188.59892070590573
20
-2.4585818684587042
30
1.0149761741052289e-12
10
-188.03770480689525
20
-1.8513413782060733
30
1.0149761741052289e-12
10
-187.81908340771392
20
-1.4958149357776547
30
1.0115075964006361e-12
10
-187.53042479601478
20
-0.72097269106177753
30
1.0115075964006361e-12
10
-187.46314731715592
20
-0.30906480295545835
30
1.0104401932824378e-12
10
-187.49026970851688
20
0.51735438498203157
30
1.0104401932824378e-12
10
-187.58441027389236
20
0.92396466694326218
30
1.0119337976019692e-12
10
-187.92325236375805
20
1.6782128598080825
30
1.0119337976019692e-12
10
-188.16471437318594
20
2.0186397468908561
30
1.015764757176576e-12
10
-188.76453797609284
20
2.5877758849985701
30
1.015764757176576e-12
10
-189.11716492899899
20
2.8110438843400316
30
1.0213594244482563e-12
10
-189.88815251011323
20
3.109845571202754
30
1.0213594244482563e-12
10
-190.29914207682515
20
3.1825225517381028
30
1.0278800544197761e-12
10
-191.12584602190211
20
3.1662472484024518
30
1.0278800544197761e-12
10
-191.53365665996364
20
3.0774505653020681
30
1.0343502485186751e-12
10
-192.29228639119935
20
2.7485353342930874
30
1.0343502485186751e-12
10
-192.6358525706577
20
2.5115613952655935
30
1.039801160435733e-12
10
-193.21281093718795
20
1.9192579750533603
30
1.039801160435733e-12
10
-193.44068708780927
20
1.5695912373961649
30
1.0434165710881818e-12
10
-193.7469858109576
20
0.8090335911104819
30
1.0434165710881818e-12
10
-193.82499997707953
20
0.40635851480078466
30
1.0446138457939337e-12
10
-193.82500000000005
20
-9.0205620750793969e-16
30
-3.3240728480438196e-13
0
SPLINE
5
117
100
AcDbEntity
8
0
100
AcDbSpline
70
0
71
3
72
43
73
39
74
0
42
0.000000001
43
0.0000000001
44
0.0000000001
40
-1.2507204264723828
40
-1.2507204264723828
40
-1.2507204264723828
40
-1.2507204264723828
40
-1.2402962030034961
40
-1.2402962030034961
40
-1.1162665827031464
40
-1.1162665827031464
40
-0.99223696240279757
40
-0.99223696240279757
40
-0.86820734210244721
40
-0.86820734210244721
40
-0.74417772180209796
40
-0.74417772180209796
40
-0.62014810150174782
40
-0.62014810150174782
40
-0.49611848120139734
40
-0.49611848120139734
40
-0.37208886090104859
40
-0.37208886090104859
40
-0.24805924060069878
40
-0.24805924060069878
40
-0.12402962030034911
40
-0.12402962030034911
40
-0
40
-0
40
-0
40
0.070224516587350072
40
0.070224516587350072
40
0.14044903317469903
40
0.14044903317469903
40
0.2644786534750514
40
0.2644786534750514
40
0.38850827377539954
40
0.38850827377539954
40
0.51253789407575079
40
0.51253789407575079
40
0.63656751437609915
40
0.63656751437609915
40
0.75017291120756213
40
0.75017291120756213
40
0.75017291120756213
40
0.75017291120756213
10
187.46500000000003
20
-2.8019253583977388e-13
30
-3.2128783044257534e-13
10
187.46499999636174
20
0.034696558995846546
30
-3.2140444932316448e-13
10
187.46443125469602
20
0.069416077528646342
30
-3.2140684782833503e-13
10
187.44973029148312
20
0.51735438498202058
30
-3.2140684782833503e-13
10
187.35558972610764
20
0.92396466694325197
30
-3.2093171924808017e-13
10
187.01674763624194
20
1.6782128598080701
30
-3.2093171924808017e-13
10
186.77528562681408
20
2.0186397468908517
30
-3.1971305754504763e-13
10
186.17546202390719
20
2.5877758849985648
30
-3.1971305754504763e-13
10
185.82283507100104
20
2.8110438843400276
30
-3.1793334501808737e-13
10
185.0518474898868
20
3.1098455712027522
30
-3.1793334501808737e-13
10
184.64085792317488
20
3.1825225517381024
30
-3.1585907566828555e-13
10
183.81415397809792
20
3.1662472484024535
30
-3.1585907566828555e-13
10
183.40634334003639
20
3.0774505653020694
30
-3.1380085041010737e-13
10
182.6477136088007
20
2.7485353342930905
30
-3.1380085041010737e-13
10
182.30414742934238
20
2.5115613952655962
30
-3.1206686771711497e-13
10
181.72718906281207
20
1.9192579750533669
30
-3.1206686771711497e-13
10
181.49931291219079
20
1.5695912373961636
30
-3.1091677400897988e-13
10
181.19041960666661
20
0.80259109130312334
30
-3.1091677400897988e-13
10
181.11235564012443
20
0.39259062231130565
30
-3.1052278421887912e-13
10
181.11778105267223
20
-0.4342557135958463
30
-3.1052278421887912e-13
10
181.2012185618612
20
-0.84319647887383908
30
-3.1094389434417777e-13
10
181.52015029167163
20
-1.6060771052004841
30
-3.1094389434417777e-13
10
181.7525953511248
20
-1.9527234116593957
30
-3.1211704739084531e-13
10
182.04493596973271
20
-2.2450640302672937
30
-3.1211704739084531e-13
10
182.21045674268095
20
-2.4105848032155022
30
-3.1211704739084531e-13
10
182.39377595173136
20
-2.5572941972566126
30
-3.1305421754731708e-13
10
182.78932099773502
20
-2.8077360603724344
30
-3.1305421754731708e-13
10
183.00033651980988
20
-2.9107022108794878
30
-3.141329776557928e-13
10
183.61002626614138
20
-3.128767616145133
30
-3.141329776557928e-13
10
184.02278154117261
20
-3.1906340075035318
30
-3.1621615855699162e-13
10
184.84877365469941
20
-3.152669198851993
30
-3.1621615855699162e-13
10
185.25411355838915
20
-3.0532009631051777
30
-3.182619139886972e-13
10
186.00385032414596
20
-2.7044903662244684
30
-3.182619139886972e-13
10
186.3410792940943
20
-2.4585818684587153
30
-3.199639127080936e-13
10
186.90229519310478
20
-1.8513413782060857
30
-3.199639127080936e-13
10
187.12091659228608
20
-1.4958149357776604
30
-3.2106729757297137e-13
10
187.39744486823443
20
-0.75353398042352704
30
-3.2106729757297137e-13
10
187.46499956787699
20
-0.37813045405289558
30
-3.213521704877156e-13
10
187.46500000000003
20
-2.8019253583977388e-13
30
-3.2128783044257534e-13
0
SPLINE
5
118
100
AcDbEntity
8
0
100
AcDbSpline
70
0
71
3
72
43
73
39
74
0
42
0.000000001
43
0.0000000001
44
0.0000000001
40
-0.75043043568457535
40
-0.75043043568457535
40
-0.75043043568457535
40
-0.75043043568457535
40
-0.74417772180209973
40
-0.74417772180209973
40
-0.62014810150174982
40
-0.62014810150174982
40
-0.49611848120139884
40
-0.49611848120139884
40
-0.37208886090105014
40
-0.37208886090105014
40
-0.24805924060070098
40
-0.24805924060070098
40
-0.12402962030034873
40
-0.12402962030034873
40
-0
40
-0
40
-0
40
0.070224516587350072
40
0.070224516587350072
40
0.14044903317470125
40
0.14044903317470125
40
0.26447865347505073
40
0.26447865347505073
40
0.38850827377540043
40
0.38850827377540043
40
0.5125378940757499
40
0.5125378940757499
40
0.6365675143761016
40
0.6365675143761016
40
0.76059713467644841
40
0.76059713467644841
40
0.8846267549768001
40
0.8846267549768001
40
1.0086563752771482
40
1.0086563752771482
40
1.1326859955774982
40
1.1326859955774982
40
1.2504629019953728
40
1.2504629019953728
40
1.2504629019953728
40
1.2504629019953728
10
-181.10500000000002
20
5.1139648071796273e-14
30
-3.549346314084034e-13
10
-181.10499999949383
20
-0.020823369831256031
30
-3.5508538259680358e-13
10
-181.10479514407032
20
-0.041655707596713262
30
-3.5508644866198288e-13
10
-181.09624724840248
20
-0.47584602190208858
30
-3.5508644866198288e-13
10
-181.00745056530212
20
-0.88365665996365439
30
-3.5457394456451237e-13
10
-180.67853533429312
20
-1.6422863911993306
30
-3.5457394456451237e-13
10
-180.44156139526561
20
-1.9858525706576695
30
-3.5320621200396144e-13
10
-179.84925797505338
20
-2.5628109371879528
30
-3.5320621200396144e-13
10
-179.49959123739617
20
-2.79068708780926
30
-3.5118805513659433e-13
10
-178.73259109130316
20
-3.0995803933334276
30
-3.5118805513659433e-13
10
-178.32259062231134
20
-3.1776443598756248
30
-3.4882167259857107e-13
10
-177.49574428640418
20
-3.1722189473278024
30
-3.4882167259857107e-13
10
-177.08680352112617
20
-3.0887814381388217
30
-3.4646140630809755e-13
10
-176.32392289479952
20
-2.7698497083284108
30
-3.4646140630809755e-13
10
-175.97727658834063
20
-2.5374046488751913
30
-3.4446068233699643e-13
10
-175.68493596973272
20
-2.2450640302672937
30
-3.4446068233699643e-13
10
-175.51941519678451
20
-2.0795432573190857
30
-3.4446068233699643e-13
10
-175.37270580274341
20
-1.8962240482686674
30
-3.4360298384928656e-13
10
-175.1222639396276
20
-1.5006790022649836
30
-3.4360298384928656e-13
10
-175.01929778912051
20
-1.289663480190101
30
-3.4300101890932873e-13
10
-174.80123238385485
20
-0.67997373385863624
30
-3.4300101890932873e-13
10
-174.73936599249646
20
-0.26721845882741291
30
-3.4264394724899378e-13
10
-174.77733080114803
20
0.55877365469937224
30
-3.4264394724899378e-13
10
-174.87679903689482
20
0.96411355838913637
30
-3.432180439000001e-13
10
-175.22550963377554
20
1.7138503241459537
30
-3.432180439000001e-13
10
-175.4714181315413
20
2.051079294094265
30
-3.4463734367908407e-13
10
-176.07865862179392
20
2.61229519310475
30
-3.4463734367908407e-13
10
-176.43418506422236
20
2.8309165922860746
30
-3.4668932075910288e-13
10
-177.20902730893823
20
3.1195752039851916
30
-3.4668932075910288e-13
10
-177.62093519704453
20
3.1868526828440382
30
-3.4906671226815574e-13
10
-178.44735438498202
20
3.1597302914831236
30
-3.4906671226815574e-13
10
-178.85396466694328
20
3.065589726107623
30
-3.5141352780565934e-13
10
-179.60821285980811
20
2.7267476362419334
30
-3.5141352780565934e-13
10
-179.94863974689085
20
2.4852856268140662
30
-3.533783554143868e-13
10
-180.51777588499857
20
1.8854620239071538
30
-3.533783554143868e-13
10
-180.74104388434
20
1.5328350710010132
30
-3.5466698197679102e-13
10
-181.03231381608239
20
0.78128141518612959
30
-3.5466698197679102e-13
10
-181.10499982040187
20
0.39223161750619817
30
-3.55045221520759e-13
10
-181.10500000000002
20
5.0098813986210189e-14
30
-3.549346314084034e-13
0
SPLINE
5
119
100
AcDbEntity
8
0
100
AcDbSpline
70
0
71
3
72
43
73
39
74
0
42
0.000000001
43
0.0000000001
44
0.0000000001
40
-1.7510126277298619
40
-1.7510126277298619
40
-1.7510126277298619
40
-1.7510126277298619
40
-1.7364146842048995
40
-1.7364146842048995
40
-1.6123850639045498
40
-1.6123850639045498
40
-1.4883554436042001
40
-1.4883554436042001
40
-1.3643258233038482
40
-1.3643258233038482
40
-1.2402962030035012
40
-1.2402962030035012
40
-1.1162665827031495
40
-1.1162665827031495
40
-0.99223696240279891
40
-0.99223696240279891
40
-0.86820734210245054
40
-0.86820734210245054
40
-0.7441777218021004
40
-0.7441777218021004
40
-0.62014810150175048
40
-0.62014810150175048
40
-0.49611848120140106
40
-0.49611848120140106
40
-0.3720888609010502
40
-0.3720888609010502
40
-0.248059240600701
40
-0.248059240600701
40
-0.12402962030034873
40
-0.12402962030034873
40
-0
40
-0
40
-0
40
0.070224516587349406
40
0.070224516587349406
40
0.14044903317469948
40
0.14044903317469948
40
0.24988070995008704
40
0.24988070995008704
40
0.24988070995008704
40
0.24988070995008704
10
174.74500000000003
20
-6.7341965337419651e-13
30
-2.5670594398760769e-13
10
174.74499998701697
20
0.048563944455609784
30
-2.5679245772989085e-13
10
174.74388577970467
20
0.097169103464532225
30
-2.5679616517626435e-13
10
174.722669198852
20
0.55877365469936391
30
-2.567961651762643e-13
10
174.62320096310521
20
0.96411355838912893
30
-2.5636586454981887e-13
10
174.27449036622448
20
1.7138503241459482
30
-2.5636586454981887e-13
10
174.02858186845873
20
2.0510792940942602
30
-2.5530206182081294e-13
10
173.42134137820611
20
2.6122951931047469
30
-2.5530206182081294e-13
10
173.06581493577767
20
2.8309165922860724
30
-2.5376405071861269e-13
10
172.2909726910618
20
3.1195752039851907
30
-2.5376405071861269e-13
10
171.8790648029555
20
3.1868526828440373
30
-2.5198213289369893e-13
10
171.05264561501801
20
3.1597302914831236
30
-2.5198213289369893e-13
10
170.64603533305674
20
3.0655897261076244
30
-2.5022313256828412e-13
10
169.89178714019192
20
2.7267476362419316
30
-2.5022313256828412e-13
10
169.55136025310912
20
2.4852856268140715
30
-2.4875044230017224e-13
10
168.98222411500143
20
1.8854620239071562
30
-2.4875044230017224e-13
10
168.75895611565997
20
1.5328350710010072
30
-2.4778458260375221e-13
10
168.46015442879724
20
0.76184748988677042
30
-2.4778458260375221e-13
10
168.3874774482619
20
0.35085792317482367
30
-2.4747018122709437e-13
10
168.40375275159755
20
-0.47584602190208963
30
-2.4747018122709437e-13
10
168.49254943469791
20
-0.88365665996365528
30
-2.4785431660536358e-13
10
168.82146466570691
20
-1.6422863911993266
30
-2.4785431660536358e-13
10
169.05843860473439
20
-1.985852570657674
30
-2.488794683399769e-13
10
169.65074202494662
20
-2.5628109371879582
30
-2.488794683399769e-13
10
170.00040876260383
20
-2.7906870878092565
30
-2.5039213029815238e-13
10
170.76740890869686
20
-3.0995803933334272
30
-2.5039213029815238e-13
10
171.17740937768869
20
-3.1776443598756248
30
-2.521657966080603e-13
10
172.00425571359585
20
-3.1722189473278024
30
-2.521657966080603e-13
10
172.41319647887389
20
-3.0887814381388217
30
-2.5393487862863738e-13
10
173.17607710520051
20
-2.7698497083284108
30
-2.5393487862863738e-13
10
173.5227234116594
20
-2.5374046488751913
30
-2.5543447416991089e-13
10
173.81506403026731
20
-2.2450640302672937
30
-2.5543447416991089e-13
10
173.98058480321552
20
-2.079543257319088
30
-2.5543447416991089e-13
10
174.12729419725662
20
-1.8962240482686736
30
-2.5607734187505412e-13
10
174.37773606037243
20
-1.5006790022649961
30
-2.5607734187505412e-13
10
174.48070221087949
20
-1.2896634801901066
30
-2.5652853052126552e-13
10
174.68238028704206
20
-0.72579111838024479
30
-2.5652853052126552e-13
10
174.74499927040858
20
-0.36405359861675285
30
-2.5673687290419099e-13
10
174.74500000000003
20
-6.7341965337419651e-13
30
-2.5670594398760769e-13
0
SPLINE
5
120
100
AcDbEntity
8
0
100
AcDbSpline
70
0
71
3
72
43
73
39
74
0
42
0.000000001
43
0.0000000001
44
0.0000000001
40
-0.7504304356845759
40
-0.7504304356845759
40
-0.7504304356845759
40
-0.7504304356845759
40
-0.74417772180209996
40
-0.74417772180209996
40
-0.62014810150175015
40
-0.62014810150175015
40
-0.4961184812014009
40
-0.4961184812014009
40
-0.37208886090104998
40
-0.37208886090104998
40
-0.24805924060070092
40
-0.24805924060070092
40
-0.12402962030034871
40
-0.12402962030034871
40
-0
40
-0
40
-0
40
0.07022451658734985
40
0.07022451658734985
40
0.14044903317469992
40
0.14044903317469992
40
0.2644786534750494
40
0.2644786534750494
40
0.38850827377539843
40
0.38850827377539843
40
0.51253789407574835
40
0.51253789407574835
40
0.63656751437610004
40
0.63656751437610004
40
0.76059713467644685
40
0.76059713467644685
40
0.88462675497679855
40
0.88462675497679855
40
1.0086563752771491
40
1.0086563752771491
40
1.1326859955774986
40
1.1326859955774986
40
1.2504629019953726
40
1.2504629019953726
40
1.2504629019953726
40
1.2504629019953726
10
-168.38500000000005
20
5.0306980803327406e-14
30
-3.7121818730902126e-13
10
-168.3849999994938
20
-0.020823369831256665
30
8.2505138117129768e-13
10
-168.3847951440703
20
-0.041655707596715032
30
8.2505404532458183e-13
10
-168.37624724840248
20
-0.4758460219020913
30
8.2505404532458193e-13
10
-168.28745056530209
20
-0.88365665996365705
30
8.2377327047057304e-13
10
-167.95853533429309
20
-1.6422863911993277
30
8.2377327047057304e-13
10
-167.72156139526561
20
-1.9858525706576735
30
8.2035523444079532e-13
10
-167.12925797505338
20
-2.5628109371879577
30
8.2035523444079532e-13
10
-166.77959123739618
20
-2.7906870878092569
30
8.1531175365707725e-13
10
-166.01259109130314
20
-3.0995803933334276
30
8.1531175365707725e-13
10
-165.60259062231131
20
-3.1776443598756248
30
8.0939803849923806e-13
10
-164.77574428640418
20
-3.1722189473278024
30
8.0939803849923806e-13
10
-164.36680352112614
20
-3.0887814381388217
30
8.0349960816761058e-13
10
-163.6039228947995
20
-2.7698497083284108
30
8.0349960816761058e-13
10
-163.25727658834063
20
-2.5374046488751913
30
7.9849969311396233e-13
10
-162.96493596973272
20
-2.2450640302672937
30
7.9849969311396233e-13
10
-162.79941519678448
20
-2.0795432573190871
30
7.9849969311396233e-13
10
-162.65270580274341
20
-1.896224048268671
30
7.9635625921596596e-13
10
-162.40226393962757
20
-1.5006790022649921
30
7.9635625921596596e-13
10
-162.29929778912052
20
-1.2896634801901024
30
7.9485191698358537e-13
10
-162.08123238385485
20
-0.6799737338586419
30
7.9485191698358537e-13
10
-162.01936599249649
20
-0.2672184588274184
30
7.9395957601325287e-13
10
-162.05733080114805
20
0.55877365469936469
30
7.9395957601325287e-13
10
-162.1567990368948
20
0.96411355838913293
30
7.9539427391715005e-13
10
-162.50550963377552
20
1.7138503241459508
30
7.9539427391715005e-13
10
-162.7514181315413
20
2.0510792940942641
30
7.9894117915424583e-13
10
-163.35865862179389
20
2.61229519310475
30
7.9894117915424583e-13
10
-163.71418506422233
20
2.8309165922860746
30
8.0406917843866529e-13
10
-164.4890273089382
20
3.1195752039851916
30
8.0406917843866529e-13
10
-164.90093519704453
20
3.1868526828440382
30
8.1001040559754557e-13
10
-165.72735438498199
20
3.1597302914831236
30
8.1001040559754557e-13
10
-166.13396466694326
20
3.065589726107623
30
8.1587522178587888e-13
10
-166.88821285980808
20
2.7267476362419298
30
8.1587522178587888e-13
10
-167.22863974689088
20
2.4852856268140702
30
8.2078542993083006e-13
10
-167.79777588499857
20
1.8854620239071518
30
8.2078542993083006e-13
10
-168.02104388434003
20
1.532835071001011
30
8.2400577588607444e-13
10
-168.31231381608239
20
0.78128141518612937
30
8.2400577588607444e-13
10
-168.38499982040187
20
0.39223161750619656
30
8.2495101651750932e-13
10
-168.38500000000005
20
5.0306980803327406e-14
30
-3.7121818730902126e-13
0
SPLINE
5
121
100
AcDbEntity
8
0
100
AcDbSpline
70
0
71
3
72
43
73
39
74
0
42
0.000000001
43
0.0000000001
44
0.0000000001
40
-1.2507204264723848
40
-1.2507204264723848
40
-1.2507204264723848
40
-1.2507204264723848
40
-1.2402962030034983
40
-1.2402962030034983
40
-1.1162665827031484
40
-1.1162665827031484
40
-0.99223696240279791
40
-0.99223696240279791
40
-0.86820734210244965
40
-0.86820734210244965
40
-0.7441777218021004
40
-0.7441777218021004
40
-0.62014810150175015
40
-0.62014810150175015
40
-0.49611848120139962
40
-0.49611848120139962
40
-0.37208886090104998
40
-0.37208886090104998
40
-0.24805924060070028
40
-0.24805924060070028
40
-0.12402962030035058
40
-0.12402962030035058
40
-0
40
-0
40
-0
40
0.070224516587349184
40
0.070224516587349184
40
0.14044903317469837
40
0.14044903317469837
40
0.26447865347504806
40
0.26447865347504806
40
0.38850827377539887
40
0.38850827377539887
40
0.5125378940757479
40
0.5125378940757479
40
0.63656751437609804
40
0.63656751437609804
40
0.75017291120756147
40
0.75017291120756147
40
0.75017291120756147
40
0.75017291120756147
10
162.02500000000003
20
-2.8199664825478976e-13
30
-1.9833629288867372e-13
10
162.02499999636174
20
0.03469655899584554
30
-1.9841959208909451e-13
10
162.02443125469603
20
0.069416077528644565
30
-1.984213053070735e-13
10
162.00973029148312
20
0.51735438498201824
30
-1.984213053070735e-13
10
161.91558972610764
20
0.92396466694324997
30
-1.9808192774974859e-13
10
161.57674763624192
20
1.6782128598080739
30
-1.9808192774974859e-13
10
161.33528562681406
20
2.0186397468908481
30
-1.9721145510472533e-13
10
160.73546202390716
20
2.5877758849985599
30
-1.9721145510472533e-13
10
160.38283507100104
20
2.8110438843400303
30
-1.9594023187118233e-13
10
159.6118474898868
20
3.1098455712027522
30
-1.9594023187118233e-13
10
159.20085792317485
20
3.1825225517381019
30
-1.9445861090703817e-13
10
158.37415397809795
20
3.1662472484024522
30
-1.9445861090703817e-13
10
157.96634334003636
20
3.0774505653020694
30
-1.9298845000833947e-13
10
157.2077136088007
20
2.7485353342930905
30
-1.9298845000833947e-13
10
156.86414742934235
20
2.5115613952655962
30
-1.9174989094191633e-13
10
156.28718906281205
20
1.9192579750533652
30
-1.9174989094191633e-13
10
156.05931291219076
20
1.5695912373961645
30
-1.909283954361055e-13
10
155.75041960666658
20
0.80259109130312245
30
-1.909283954361055e-13
10
155.67235564012441
20
0.3925906223113052
30
-1.9064697415746214e-13
10
155.6777810526722
20
-0.4342557135958463
30
-1.9064697415746214e-13
10
155.7612185618612
20
-0.84319647887383908
30
-1.9094776710410403e-13
10
156.0801502916716
20
-1.6060771052004885
30
-1.9094776710410403e-13
10
156.31259535112483
20
-1.9527234116593919
30
-1.9178573356600938e-13
10
156.60493596973274
20
-2.2450640302672937
30
-1.9178573356600938e-13
10
156.77045674268095
20
-2.4105848032154995
30
-1.9178573356600938e-13
10
156.95377595173136
20
-2.5572941972566143
30
-1.9245514082063212e-13
10
157.34932099773502
20
-2.8077360603724344
30
-1.9245514082063212e-13
10
157.56033651980991
20
-2.9107022108794878
30
-1.9322568375525763e-13
10
158.17002626614138
20
-3.1287676161451294
30
-1.9322568375525763e-13
10
158.58278154117258
20
-3.1906340075035313
30
-1.9471367011325674e-13
10
159.40877365469936
20
-3.152669198851993
30
-1.9471367011325674e-13
10
159.81411355838915
20
-3.0532009631051822
30
-1.9617492399304647e-13
10
160.56385032414596
20
-2.7044903662244737
30
-1.9617492399304647e-13
10
160.90107929409427
20
-2.4585818684587122
30
-1.9739063736404392e-13
10
161.46229519310475
20
-1.8513413782060844
30
-1.9739063736404392e-13
10
161.68091659228608
20
-1.4958149357776673
30
-1.9817876941038519e-13
10
161.95744486823443
20
-0.75353398042352915
30
-1.9817876941038519e-13
10
162.02499956787699
20
-0.37813045405289675
30
-1.9838225006377388e-13
10
162.02500000000003
20
-2.8199664825478976e-13
30
-1.9833629288867372e-13
0
SPLINE
5
122
100
AcDbEntity
8
0
100
AcDbSpline
70
0
71
3
72
43
73
39
74
0
42
0.000000001
43
0.0000000001
44
0.0000000001
40
-0.25014284073809745
40
-0.25014284073809745
40
-0.25014284073809745
40
-0.25014284073809745
40
-0.2480592406006995
40
-0.2480592406006995
40
-0.12402962030034979
40
-0.12402962030034979
40
-0
40
-0
40
-0
40
0.070224516587350516
40
0.070224516587350516
40
0.14044903317470081
40
0.14044903317470081
40
0.26447865347505073
40
0.26447865347505073
40
0.38850827377540131
40
0.38850827377540131
40
0.51253789407575034
40
0.51253789407575034
40
0.63656751437610004
40
0.63656751437610004
40
0.76059713467644974
40
0.76059713467644974
40
0.88462675497679921
40
0.88462675497679921
40
1.0086563752771487
40
1.0086563752771487
40
1.132685995577499
40
1.132685995577499
40
1.2567156158778485
40
1.2567156158778485
40
1.3807452361781989
40
1.3807452361781989
40
1.5047748564785481
40
1.5047748564785481
40
1.6288044767788976
40
1.6288044767788976
40
1.7507504969418493
40
1.7507504969418493
40
1.7507504969418493
40
1.7507504969418493
10
-155.66500000000002
20
-2.3592239273284576e-15
30
1.7147694356231083e-13
10
-155.66499999999331
20
-0.0069431430081956349
30
1.7157103278134844e-13
10
-155.664977224935
20
-0.013887361359149163
30
1.7157110426016736e-13
10
-155.6622189473278
20
-0.43425571359584664
30
1.7157110426016736e-13
10
-155.57878143813883
20
-0.84319647887383953
30
1.7130039060818965e-13
10
-155.25984970832843
20
-1.6060771052004863
30
1.7130039060818965e-13
10
-155.0274046488752
20
-1.9527234116593939
30
1.7054622079247481e-13
10
-154.7350640302673
20
-2.2450640302672937
30
1.7054622079247481e-13
10
-154.56954325731911
20
-2.4105848032155031
30
1.7054622079247481e-13
10
-154.38622404826867
20
-2.5572941972566161
30
1.699437542633144e-13
10
-153.99067900226501
20
-2.8077360603724393
30
1.699437542633144e-13
10
-153.7796634801901
20
-2.9107022108794895
30
1.692502656221514e-13
10
-153.16997373385863
20
-3.1287676161451312
30
1.692502656221514e-13
10
-152.75721845882742
20
-3.1906340075035322
30
1.6791107789995218e-13
10
-151.93122634530062
20
-3.1526691988519904
30
1.6791107789995218e-13
10
-151.52588644161085
20
-3.0532009631051791
30
1.6659594940814142e-13
10
-150.77614967585404
20
-2.7044903662244693
30
1.6659594940814142e-13
10
-150.43892070590573
20
-2.4585818684587082
30
1.6550180737424375e-13
10
-149.87770480689528
20
-1.8513413782060804
30
1.6550180737424375e-13
10
-149.65908340771395
20
-1.4958149357776573
30
1.647924885325366e-13
10
-149.37042479601482
20
-0.72097269106178319
30
1.647924885325366e-13
10
-149.30314731715598
20
-0.3090648029554639
30
1.6457420622551712e-13
10
-149.33026970851688
20
0.51735438498202602
30
1.6457420622551712e-13
10
-149.42441027389239
20
0.92396466694325674
30
1.6487964602710958e-13
10
-149.76325236375806
20
1.6782128598080759
30
1.6487964602710958e-13
10
-150.00471437318592
20
2.018639746890853
30
1.6566307140763044e-13
10
-150.60453797609287
20
2.5877758849985666
30
1.6566307140763044e-13
10
-150.95716492899899
20
2.8110438843400285
30
1.6680717231781921e-13
10
-151.72815251011326
20
3.1098455712027526
30
1.6680717231781921e-13
10
-152.13914207682518
20
3.1825225517381024
30
1.6814063118554892e-13
10
-152.96584602190211
20
3.1662472484024522
30
1.6814063118554892e-13
10
-153.37365665996367
20
3.0774505653020681
30
1.6946377599437778e-13
10
-154.13228639119933
20
2.7485353342930887
30
1.6946377599437778e-13
10
-154.47585257065768
20
2.5115613952655909
30
1.7057847915415859e-13
10
-155.05281093718796
20
1.919257975053362
30
1.7057847915415859e-13
10
-155.28068708780927
20
1.5695912373961622
30
1.713178251093883e-13
10
-155.58698581095757
20
0.80903359111048057
30
1.713178251093883e-13
10
-155.66499997707953
20
0.406358514800786
30
1.7156266595766012e-13
10
-155.66500000000002
20
-2.3592239273284576e-15
30
1.7147694356231083e-13
0
SPLINE
5
123
100
AcDbEntity
8
0
100
AcDbSpline
70
0
71
3
72
43
73
39
74
0
42
0.000000001
43
0.0000000001
44
0.0000000001
40
-1.2507204264723837
40
-1.2507204264723837
40
-1.2507204264723837
40
-1.2507204264723837
40
-1.2402962030034972
40
-1.2402962030034972
40
-1.1162665827031475
40
-1.1162665827031475
40
-0.99223696240279713
40
-0.99223696240279713
40
-0.86820734210244788
40
-0.86820734210244788
40
-0.74417772180209862
40
-0.74417772180209862
40
-0.62014810150174982
40
-0.62014810150174982
40
-0.49611848120139945
40
-0.49611848120139945
40
-0.37208886090104909
40
-0.37208886090104909
40
-0.24805924060069956
40
-0.24805924060069956
40
-0.12402962030034986
40
-0.12402962030034986
40
-0
40
-0
40
-0
40
0.070224516587350294
40
0.070224516587350294
40
0.14044903317469792
40
0.14044903317469792
40
0.26447865347504762
40
0.26447865347504762
40
0.38850827377539821
40
0.38850827377539821
40
0.51253789407574812
40
0.51253789407574812
40
0.63656751437609804
40
0.63656751437609804
40
0.75017291120756124
40
0.75017291120756124
40
0.75017291120756124
40
0.75017291120756124
10
149.30500000000004
20
-2.7797208979052357e-13
30
-1.4620702848281553e-13
10
149.30499999636174
20
0.034696558995846692
30
-1.4627366784315215e-13
10
149.30443125469606
20
0.069416077528645759
30
-1.4627503841753535e-13
10
149.28973029148315
20
0.51735438498201924
30
-1.4627503841753535e-13
10
149.19558972610764
20
0.92396466694325019
30
-1.4600353637167539e-13
10
148.85674763624195
20
1.6782128598080737
30
-1.4600353637167539e-13
10
148.61528562681409
20
2.0186397468908481
30
-1.453071582556568e-13
10
148.01546202390716
20
2.5877758849985621
30
-1.453071582556568e-13
10
147.66283507100104
20
2.8110438843400294
30
-1.4429017966882239e-13
10
146.89184748988677
20
3.1098455712027522
30
-1.4429017966882239e-13
10
146.48085792317485
20
3.1825225517381019
30
-1.4310488289750708e-13
10
145.65415397809795
20
3.1662472484024526
30
-1.4310488289750708e-13
10
145.24634334003639
20
3.0774505653020681
30
-1.4192875417854812e-13
10
144.4877136088007
20
2.7485353342930905
30
-1.4192875417854812e-13
10
144.14414742934235
20
2.5115613952655957
30
-1.4093790692540961e-13
10
143.56718906281208
20
1.9192579750533632
30
-1.4093790692540961e-13
10
143.33931291219076
20
1.5695912373961671
30
-1.4028071052076096e-13
10
143.03041960666658
20
0.80259109130312301
30
-1.4028071052076096e-13
10
142.95235564012441
20
0.39259062231130459
30
-1.4005557349784625e-13
10
142.95778105267223
20
-0.4342557135958463
30
-1.4005557349784625e-13
10
143.04121856186123
20
-0.84319647887383908
30
-1.4029620785515978e-13
10
143.3601502916716
20
-1.6060771052004863
30
-1.4029620785515978e-13
10
143.59259535112483
20
-1.9527234116593939
30
-1.4096658102468406e-13
10
143.88493596973274
20
-2.2450640302672937
30
-1.4096658102468406e-13
10
144.05045674268092
20
-2.4105848032155022
30
-1.4096658102468406e-13
10
144.23377595173136
20
-2.5572941972566126
30
-1.4150210682838225e-13
10
144.62932099773502
20
-2.8077360603724317
30
-1.4150210682838225e-13
10
144.84033651980991
20
-2.9107022108794878
30
-1.4211854117608262e-13
10
145.45002626614138
20
-3.128767616145129
30
-1.4211854117608262e-13
10
145.86278154117258
20
-3.1906340075035313
30
-1.4330893026248192e-13
10
146.68877365469936
20
-3.152669198851993
30
-1.4330893026248192e-13
10
147.09411355838915
20
-3.0532009631051822
30
-1.4447793336631373e-13
10
147.84385032414596
20
-2.7044903662244719
30
-1.4447793336631373e-13
10
148.18107929409427
20
-2.4585818684587144
30
-1.4545050406311169e-13
10
148.74229519310478
20
-1.8513413782060844
30
-1.4545050406311169e-13
10
148.96091659228608
20
-1.4958149357776662
30
-1.4608100970018469e-13
10
149.23744486823443
20
-0.75353398042352771
30
-1.4608100970018469e-13
10
149.30499956787696
20
-0.37813045405289542
30
-1.4624379422289567e-13
10
149.30500000000004
20
-2.7797208979052357e-13
30
-1.4620702848281553e-13
0
SPLINE
5
124
100
AcDbEntity
8
0
100
AcDbSpline
70
0
71
3
72
43
73
39
74
0
42
0.000000001
43
0.0000000001
44
0.0000000001
40
-0.75043043568457524
40
-0.75043043568457524
40
-0.75043043568457524
40
-0.75043043568457524
40
-0.74417772180209929
40
-0.74417772180209929
40
-0.6201481015017497
40
-0.6201481015017497
40
-0.49611848120139973
40
-0.49611848120139973
40
-0.37208886090104992
40
-0.37208886090104992
40
-0.24805924060070078
40
-0.24805924060070078
40
-0.12402962030034984
40
-0.12402962030034984
40
-0
40
-0
40
-0
40
0.070224516587350072
40
0.070224516587350072
40
0.14044903317470081
40
0.14044903317470081
40
0.26447865347505028
40
0.26447865347505028
40
0.38850827377539998
40
0.38850827377539998
40
0.51253789407574879
40
0.51253789407574879
40
0.63656751437609937
40
0.63656751437609937
40
0.7605971346764504
40
0.7605971346764504
40
0.88462675497679943
40
0.88462675497679943
40
1.0086563752771487
40
1.0086563752771487
40
1.1326859955774986
40
1.1326859955774986
40
1.2504629019953724
40
1.2504629019953724
40
1.2504629019953724
40
1.2504629019953724
10
-142.94500000000002
20
5.6690763194922056e-14
30
1.2247309028569237e-13
10
-142.9449999994938
20
-0.0208233698312566
30
1.2253900228774025e-13
10
-142.9447951440703
20
-0.041655707596714962
30
1.2253946839677083e-13
10
-142.93624724840245
20
-0.47584602190209024
30
1.2253946839677083e-13
10
-142.8474505653021
20
-0.88365665996365805
30
1.2231538942611378e-13
10
-142.51853533429312
20
-1.64228639119933
30
1.2231538942611378e-13
10
-142.28156139526561
20
-1.9858525706576717
30
1.2171738424758931e-13
10
-141.68925797505338
20
-2.5628109371879546
30
1.2171738424758931e-13
10
-141.33959123739618
20
-2.7906870878092587
30
1.2083499810532032e-13
10
-140.57259109130314
20
-3.0995803933334276
30
1.2083499810532032e-13
10
-140.16259062231134
20
-3.1776443598756248
30
1.1980035942454068e-13
10
-139.33574428640418
20
-3.1722189473278024
30
1.1980035942454068e-13
10
-138.92680352112617
20
-3.0887814381388203
30
1.1876839491253741e-13
10
-138.16392289479953
20
-2.7698497083284095
30
1.1876839491253741e-13
10
-137.8172765883406
20
-2.537404648875194
30
1.178936308467945e-13
10
-137.52493596973272
20
-2.2450640302672937
30
1.178936308467945e-13
10
-137.35941519678451
20
-2.0795432573190857
30
1.178936308467945e-13
10
-137.21270580274341
20
-1.8962240482686674
30
1.1751862468546096e-13
10
-136.96226393962758
20
-1.500679002264985
30
1.1751862468546096e-13
10
-136.85929778912052
20
-1.2896634801900995
30
1.1725543130850431e-13
10
-136.64123238385488
20
-0.67997373385863624
30
1.1725543130850431e-13
10
-136.57936599249649
20
-0.26721845882741291
30
1.1709931109308837e-13
10
-136.61733080114803
20
0.55877365469937224
30
1.1709931109308837e-13
10
-136.71679903689483
20
0.96411355838913637
30
1.1735031979184818e-13
10
-137.06550963377555
20
1.7138503241459515
30
1.1735031979184818e-13
10
-137.3114181315413
20
2.0510792940942668
30
1.1797087138376831e-13
10
-137.91865862179392
20
2.6122951931047473
30
1.1797087138376831e-13
10
-138.27418506422237
20
2.8309165922860764
30
1.1886804452671846e-13
10
-139.04902730893824
20
3.1195752039851965
30
1.1886804452671846e-13
10
-139.46093519704453
20
3.1868526828440391
30
1.1990749659125151e-13
10
-140.28735438498205
20
3.1597302914831231
30
1.1990749659125151e-13
10
-140.69396466694326
20
3.0655897261076195
30
1.2093358011441011e-13
10
-141.44821285980808
20
2.7267476362419312
30
1.2093358011441011e-13
10
-141.78863974689085
20
2.4852856268140671
30
1.2179264943747537e-13
10
-142.35777588499857
20
1.8854620239071518
30
1.2179264943747537e-13
10
-142.58104388434003
20
1.532835071001011
30
1.2235606759372042e-13
10
-142.8723138160824
20
0.78128141518612937
30
1.2235606759372042e-13
10
-142.94499982040188
20
0.39223161750619651
30
1.2252144291089827e-13
10
-142.94500000000002
20
5.6690763194922056e-14
30
1.2247309028569237e-13
0
SPLINE
5
125
100
AcDbEntity
8
0
100
AcDbSpline
70
0
71
3
72
43
73
39
74
0
42
0.000000001
43
0.0000000001
44
0.0000000001
40
-1.7510126277298592
40
-1.7510126277298592
40
-1.7510126277298592
40
-1.7510126277298592
40
-1.7364146842048971
40
-1.7364146842048971
40
-1.6123850639045478
40
-1.6123850639045478
40
-1.4883554436041981
40
-1.4883554436041981
40
-1.3643258233038476
40
-1.3643258233038476
40
-1.2402962030034994
40
-1.2402962030034994
40
-1.1162665827031479
40
-1.1162665827031479
40
-0.99223696240279846
40
-0.99223696240279846
40
-0.86820734210244854
40
-0.86820734210244854
40
-0.74417772180209885
40
-0.74417772180209885
40
-0.62014810150174915
40
-0.62014810150174915
40
-0.49611848120139973
40
-0.49611848120139973
40
-0.37208886090104998
40
-0.37208886090104998
40
-0.24805924060069956
40
-0.24805924060069956
40
-0.12402962030034861
40
-0.12402962030034861
40
-0
40
-0
40
-0
40
0.07022451658734985
40
0.07022451658734985
40
0.14044903317469903
40
0.14044903317469903
40
0.2498807099500866
40
0.2498807099500866
40
0.2498807099500866
40
0.2498807099500866
10
136.58500000000001
20
-6.7251759716668857e-13
30
-1.0031345888052605e-13
10
136.58499998701697
20
0.048563944455610047
30
-1.0035671575166762e-13
10
136.58388577970467
20
0.097169103464531781
30
-1.0035856947485435e-13
10
136.56266919885198
20
0.55877365469936169
30
-1.0035856947485435e-13
10
136.46320096310521
20
0.9641135583891286
30
-1.0014341916163164e-13
10
136.11449036622449
20
1.7138503241459473
30
-1.0014341916163164e-13
10
135.86858186845873
20
2.0510792940942593
30
-9.9611517797128675e-14
10
135.26134137820608
20
2.6122951931047438
30
-9.9611517797128675e-14
10
134.90581493577767
20
2.8309165922860737
30
-9.8842512246028539e-14
10
134.1309726910618
20
3.1195752039851921
30
-9.8842512246028539e-14
10
133.71906480295547
20
3.1868526828440382
30
-9.7951553333571683e-14
10
132.89264561501798
20
3.1597302914831236
30
-9.7951553333571683e-14
10
132.48603533305675
20
3.0655897261076244
30
-9.707205317086428e-14
10
131.73178714019193
20
2.7267476362419334
30
-9.707205317086428e-14
10
131.39136025310916
20
2.4852856268140688
30
-9.6335708036808325e-14
10
130.82222411500143
20
1.8854620239071522
30
-9.6335708036808325e-14
10
130.59895611565997
20
1.5328350710010108
30
-9.5852778188598298e-14
10
130.30015442879724
20
0.76184748988676987
30
-9.5852778188598298e-14
10
130.22747744826191
20
0.35085792317481984
30
-9.5695577500269377e-14
10
130.24375275159755
20
-0.47584602190209169
30
-9.5695577500269377e-14
10
130.33254943469794
20
-0.88365665996365694
30
-9.5887645189403986e-14
10
130.66146466570692
20
-1.6422863911993277
30
-9.5887645189403986e-14
10
130.89843860473439
20
-1.9858525706576748
30
-9.640022105671067e-14
10
131.49074202494663
20
-2.5628109371879564
30
-9.640022105671067e-14
10
131.84040876260383
20
-2.79068708780926
30
-9.7156552035798383e-14
10
132.60740890869687
20
-3.0995803933334298
30
-9.7156552035798383e-14
10
133.01740937768869
20
-3.1776443598756252
30
-9.8043385190752367e-14
10
133.84425571359586
20
-3.172218947327802
30
-9.8043385190752367e-14
10
134.25319647887386
20
-3.088781438138819
30
-9.8927926201040869e-14
10
135.01607710520051
20
-2.7698497083284095
30
-9.8927926201040869e-14
10
135.3627234116594
20
-2.5374046488751913
30
-9.9677723971677651e-14
10
135.65506403026728
20
-2.2450640302672937
30
-9.9677723971677651e-14
10
135.8205848032155
20
-2.0795432573190857
30
-9.9677723971677651e-14
10
135.96729419725662
20
-1.8962240482686759
30
-9.9999157824249266e-14
10
136.21773606037243
20
-1.5006790022649978
30
-9.9999157824249266e-14
10
136.32070221087949
20
-1.2896634801901055
30
-1.0022475214735494e-13
10
136.52238028704201
20
-0.72579111838024624
30
-1.0022475214735494e-13
10
136.58499927040853
20
-0.36405359861675252
30
-1.0032892333881768e-13
10
136.58500000000001
20
-6.7251759716668857e-13
30
-1.0031345888052605e-13
0
SPLINE
5
126
100
AcDbEntity
8
0
100
AcDbSpline
70
0
71
3
72
43
73
39
74
0
42
0.000000001
43
0.0000000001
44
0.0000000001
40
-0.75043043568457535
40
-0.75043043568457535
40
-0.75043043568457535
40
-0.75043043568457535
40
-0.74417772180209973
40
-0.74417772180209973
40
-0.62014810150174982
40
-0.62014810150174982
40
-0.49611848120139962
40
-0.49611848120139962
40
-0.37208886090104987
40
-0.37208886090104987
40
-0.24805924060070075
40
-0.24805924060070075
40
-0.12402962030034985
40
-0.12402962030034985
40
-0
40
-0
40
-0
40
0.070224516587349628
40
0.070224516587349628
40
0.14044903317470014
40
0.14044903317470014
40
0.26447865347504962
40
0.26447865347504962
40
0.38850827377539909
40
0.38850827377539909
40
0.51253789407574901
40
0.51253789407574901
40
0.6365675143760996
40
0.6365675143760996
40
0.76059713467644774
40
0.76059713467644774
40
0.8846267549767981
40
0.8846267549767981
40
1.0086563752771474
40
1.0086563752771474
40
1.1326859955774971
40
1.1326859955774971
40
1.2504629019953715
40
1.2504629019953715
40
1.2504629019953715
40
1.2504629019953715
10
-130.22500000000002
20
5.440092820663267e-14
30
7.9692025132917377e-14
10
-130.22499999949383
20
-0.020823369831255985
30
7.9739105134380158e-14
10
-130.2247951440703
20
-0.041655707596713228
30
7.9739438069401998e-14
10
-130.21624724840245
20
-0.47584602190208874
30
7.9739438069401998e-14
10
-130.12745056530207
20
-0.88365665996365417
30
7.9579381661789819e-14
10
-129.79853533429309
20
-1.6422863911993284
30
7.9579381661789819e-14
10
-129.56156139526558
20
-1.9858525706576713
30
7.9152235105700915e-14
10
-128.96925797505335
20
-2.5628109371879546
30
7.9152235105700915e-14
10
-128.61959123739615
20
-2.7906870878092587
30
7.8521959289794488e-14
10
-127.85259109130311
20
-3.0995803933334276
30
7.8521959289794488e-14
10
-127.44259062231131
20
-3.1776443598756248
30
7.7782931660666168e-14
10
-126.61574428640415
20
-3.1722189473278024
30
7.7782931660666168e-14
10
-126.20680352112616
20
-3.0887814381388203
30
7.7045814152092414e-14
10
-125.44392289479951
20
-2.7698497083284095
30
7.7045814152092414e-14
10
-125.09727658834059
20
-2.537404648875194
30
7.6420982676561763e-14
10
-124.8049359697327
20
-2.2450640302672937
30
7.6420982676561763e-14
10
-124.6394151967845
20
-2.0795432573190871
30
7.6420982676561763e-14
10
-124.49270580274339
20
-1.8962240482686707
30
7.6153121132752084e-14
10
-124.24226393962756
20
-1.5006790022649903
30
7.6153121132752084e-14
10
-124.13929778912049
20
-1.2896634801901043
30
7.5965125863497337e-14
10
-123.92123238385486
20
-0.67997373385864179
30
7.5965125863497337e-14
10
-123.85936599249646
20
-0.26721845882741851
30
7.5853611423914501e-14
10
-123.89733080114802
20
0.55877365469936668
30
7.5853611423914501e-14
10
-123.99679903689481
20
0.96411355838913115
30
7.6032903351600121e-14
10
-124.34550963377554
20
1.7138503241459504
30
7.6032903351600121e-14
10
-124.59141813154127
20
2.0510792940942641
30
7.6476154488685918e-14
10
-125.19865862179392
20
2.6122951931047473
30
7.6476154488685918e-14
10
-125.55418506422235
20
2.8309165922860764
30
7.7116992447936012e-14
10
-126.32902730893821
20
3.1195752039851934
30
7.7116992447936012e-14
10
-126.74093519704454
20
3.1868526828440382
30
7.7859458208316738e-14
10
-127.56735438498202
20
3.1597302914831236
30
7.7859458208316738e-14
10
-127.97396466694325
20
3.0655897261076213
30
7.8592375010572911e-14
10
-128.72821285980808
20
2.7267476362419316
30
7.8592375010572911e-14
10
-129.06863974689085
20
2.4852856268140688
30
7.9205995955619543e-14
10
-129.63777588499855
20
1.8854620239071538
30
7.9205995955619543e-14
10
-129.86104388434003
20
1.5328350710010132
30
7.9608437495794559e-14
10
-130.15231381608237
20
0.78128141518613037
30
7.9608437495794559e-14
10
-130.22499982040188
20
0.39223161750619751
30
7.9726562722350179e-14
10
-130.22500000000002
20
5.3221316242968442e-14
30
7.9692025132917377e-14
0
SPLINE
5
127
100
AcDbEntity
8
0
100
AcDbSpline
70
0
71
3
72
43
73
39
74
0
42
0.000000001
43
0.0000000001
44
0.0000000001
40
-1.2507204264723852
40
-1.2507204264723852
40
-1.2507204264723852
40
-1.2507204264723852
40
-1.2402962030034981
40
-1.2402962030034981
40
-1.1162665827031484
40
-1.1162665827031484
40
-0.99223696240279813
40
-0.99223696240279813
40
-0.86820734210244888
40
-0.86820734210244888
40
-0.74417772180209829
40
-0.74417772180209829
40
-0.62014810150174804
40
-0.62014810150174804
40
-0.49611848120139868
40
-0.49611848120139868
40
-0.37208886090104909
40
-0.37208886090104909
40
-0.24805924060069937
40
-0.24805924060069937
40
-0.12402962030034954
40
-0.12402962030034954
40
-0
40
-0
40
-0
40
0.070224516587349628
40
0.070224516587349628
40
0.14044903317469992
40
0.14044903317469992
40
0.26447865347504962
40
0.26447865347504962
40
0.38850827377539909
40
0.38850827377539909
40
0.51253789407575034
40
0.51253789407575034
40
0.6365675143760996
40
0.6365675143760996
40
0.75017291120756235
40
0.75017291120756235
40
0.75017291120756235
40
0.75017291120756235
10
123.86500000000004
20
-2.7922109069322687e-13
30
-6.0641508413284292e-14
10
123.86499999636175
20
0.034696558995847893
30
-6.06748280934526e-14
10
123.86443125469604
20
0.069416077528649145
30
-6.06755133806442e-14
10
123.84973029148314
20
0.5173543849820248
30
-6.06755133806442e-14
10
123.75558972610764
20
0.92396466694325574
30
-6.0539762357714233e-14
10
123.41674763624195
20
1.6782128598080783
30
-6.0539762357714233e-14
10
123.17528562681409
20
2.018639746890853
30
-6.0191573299704951e-14
10
122.57546202390715
20
2.5877758849985657
30
-6.0191573299704951e-14
10
122.22283507100103
20
2.8110438843400321
30
-5.9683084006287718e-14
10
121.45184748988677
20
3.1098455712027557
30
-5.9683084006287718e-14
10
121.04085792317483
20
3.1825225517381028
30
-5.9090435620630052e-14
10
120.21415397809791
20
3.1662472484024518
30
-5.9090435620630052e-14
10
119.80634334003634
20
3.0774505653020685
30
-5.8502371261150584e-14
10
119.04771360880068
20
2.7485353342930892
30
-5.8502371261150584e-14
10
118.70414742934233
20
2.5115613952655904
30
-5.8006947634581318e-14
10
118.12718906281205
20
1.9192579750533607
30
-5.8006947634581318e-14
10
117.89931291219075
20
1.5695912373961609
30
-5.7678349432257003e-14
10
117.59041960666659
20
0.80259109130311812
30
-5.7678349432257003e-14
10
117.5123556401244
20
0.39259062231130115
30
-5.756578092079965e-14
10
117.51778105267221
20
-0.43425571359585091
30
-5.756578092079965e-14
10
117.6012185618612
20
-0.84319647887384164
30
-5.7686098099456415e-14
10
117.9201502916716
20
-1.6060771052004879
30
-5.7686098099456415e-14
10
118.15259535112483
20
-1.9527234116593943
30
-5.8021284684218554e-14
10
118.44493596973273
20
-2.2450640302672937
30
-5.8021284684218554e-14
10
118.61045674268092
20
-2.4105848032155004
30
-5.8021284684218554e-14
10
118.79377595173133
20
-2.5572941972566179
30
-5.8289047586067648e-14
10
119.18932099773501
20
-2.8077360603724393
30
-5.8289047586067648e-14
10
119.40033651980991
20
-2.9107022108794895
30
-5.8597264759917862e-14
10
120.01002626614138
20
-3.1287676161451312
30
-5.8597264759917862e-14
10
120.42278154117258
20
-3.1906340075035318
30
-5.9192459303117509e-14
10
121.24877365469939
20
-3.1526691988519921
30
-5.9192459303117509e-14
10
121.65411355838914
20
-3.0532009631051786
30
-5.9776960855033389e-14
10
122.40385032414596
20
-2.7044903662244675
30
-5.9776960855033389e-14
10
122.74107929409428
20
-2.458581868458714
30
-6.0263246203432381e-14
10
123.30229519310477
20
-1.8513413782060817
30
-6.0263246203432381e-14
10
123.52091659228608
20
-1.49581493577766
30
-6.0578499021968872e-14
10
123.79744486823442
20
-0.75353398042352526
30
-6.0578499021968872e-14
10
123.86499956787696
20
-0.37813045405289464
30
-6.0659891283324359e-14
10
123.86500000000004
20
-2.7922109069322687e-13
30
-6.0641508413284292e-14
0
SPLINE
5
128
100
AcDbEntity
8
0
100
AcDbSpline
70
0
71
3
72
43
73
39
74
0
42
0.000000001
43
0.0000000001
44
0.0000000001
40
-0.25014284073809745
40
-0.25014284073809745
40
-0.25014284073809745
40
-0.25014284073809745
40
-0.24805924060069953
40
-0.24805924060069953
40
-0.12402962030034985
40
-0.12402962030034985
40
-0
40
-0
40
-0
40
0.070224516587350738
40
0.070224516587350738
40
0.14044903317470125
40
0.14044903317470125
40
0.26447865347505073
40
0.26447865347505073
40
0.3885082737754002
40
0.3885082737754002
40
0.51253789407575034
40
0.51253789407575034
40
0.6365675143760996
40
0.6365675143760996
40
0.76059713467644929
40
0.76059713467644929
40
0.88462675497679877
40
0.88462675497679877
40
1.0086563752771489
40
1.0086563752771489
40
1.1326859955774982
40
1.1326859955774982
40
1.2567156158778476
40
1.2567156158778476
40
1.3807452361781962
40
1.3807452361781962
40
1.5047748564785466
40
1.5047748564785466
40
1.6288044767788969
40
1.6288044767788969
40
1.7507504969418488
40
1.7507504969418488
40
1.7507504969418488
40
1.7507504969418488
10
-117.50500000000002
20
2.2204460492503131e-15
30
4.3139224630798039e-14
10
-117.50499999999333
20
-0.0069431430081957112
30
4.3170587703810569e-14
10
-117.504977224935
20
-0.013887361359149163
30
4.3170611530083546e-14
10
-117.5022189473278
20
-0.43425571359584664
30
4.3170611530083546e-14
10
-117.41878143813881
20
-0.84319647887383953
30
4.3080373646090972e-14
10
-117.09984970832842
20
-1.6060771052004865
30
4.3080373646090972e-14
10
-116.86740464887519
20
-1.9527234116593939
30
4.2828983707519374e-14
10
-116.5750640302673
20
-2.2450640302672937
30
4.2828983707519374e-14
10
-116.4095432573191
20
-2.4105848032155035
30
4.2828983707519374e-14
10
-116.22622404826868
20
-2.5572941972566188
30
4.262816153113255e-14
10
-115.83067900226499
20
-2.8077360603724424
30
4.262816153113255e-14
10
-115.6196634801901
20
-2.910702210879494
30
4.2396998650744896e-14
10
-115.00997373385863
20
-3.1287676161451334
30
4.2396998650744896e-14
10
-114.59721845882741
20
-3.1906340075035327
30
4.1950602743345164e-14
10
-113.77122634530062
20
-3.1526691988519899
30
4.1950602743345164e-14
10
-113.36588644161085
20
-3.0532009631051755
30
4.1512226579408239e-14
10
-112.61614967585405
20
-2.7044903662244639
30
4.1512226579408239e-14
10
-112.27892070590573
20
-2.4585818684587064
30
4.114751256810901e-14
10
-111.71770480689526
20
-1.8513413782060761
30
4.114751256810901e-14
10
-111.49908340771393
20
-1.495814935777656
30
4.0911072954206639e-14
10
-111.21042479601482
20
-0.72097269106178308
30
4.0911072954206639e-14
10
-111.14314731715596
20
-0.30906480295546401
30
4.0838312185200137e-14
10
-111.17026970851688
20
0.51735438498202602
30
4.0838312185200137e-14
10
-111.26441027389237
20
0.92396466694325674
30
4.0940125452397615e-14
10
-111.60325236375809
20
1.6782128598080781
30
4.0940125452397615e-14
10
-111.84471437318594
20
2.0186397468908512
30
4.1201267245904582e-14
10
-112.44453797609287
20
2.5877758849985639
30
4.1201267245904582e-14
10
-112.79716492899901
20
2.8110438843400298
30
4.1582634215967501e-14
10
-113.56815251011325
20
3.1098455712027526
30
4.1582634215967501e-14
10
-113.97914207682518
20
3.1825225517381024
30
4.2027120505210745e-14
10
-114.80584602190208
20
3.1662472484024522
30
4.2027120505210745e-14
10
-115.21365665996365
20
3.0774505653020672
30
4.2468168774820351e-14
10
-115.97228639119932
20
2.74853533429309
30
4.2468168774820351e-14
10
-116.31585257065767
20
2.5115613952655962
30
4.2839736494747294e-14
10
-116.89281093718796
20
1.9192579750533645
30
4.2839736494747294e-14
10
-117.12068708780927
20
1.5695912373961696
30
4.3086185146490537e-14
10
-117.42698581095759
20
0.8090335911104849
30
4.3086185146490537e-14
10
-117.50499997707954
20
0.406358514800787
30
4.3167798762581114e-14
10
-117.50500000000002
20
2.2204460492503131e-15
30
4.3139224630798039e-14
0
SPLINE
5
129
100
AcDbEntity
8
0
100
AcDbSpline
70
0
71
3
72
43
73
39
74
0
42
0.000000001
43
0.0000000001
44
0.0000000001
40
-1.2507204264723844
40
-1.2507204264723844
40
-1.2507204264723844
40
-1.2507204264723844
40
-1.2402962030034976
40
-1.2402962030034976
40
-1.1162665827031479
40
-1.1162665827031479
40
-0.99223696240279757
40
-0.99223696240279757
40
-0.8682073421024481
40
-0.8682073421024481
40
-0.74417772180209885
40
-0.74417772180209885
40
-0.62014810150174993
40
-0.62014810150174993
40
-0.49611848120139951
40
-0.49611848120139951
40
-0.3720888609010492
40
-0.3720888609010492
40
-0.24805924060069956
40
-0.24805924060069956
40
-0.12402962030034984
40
-0.12402962030034984
40
-0
40
-0
40
-0
40
0.070224516587350294
40
0.070224516587350294
40
0.14044903317469815
40
0.14044903317469815
40
0.26447865347505051
40
0.26447865347505051
40
0.38850827377539865
40
0.38850827377539865
40
0.5125378940757499
40
0.5125378940757499
40
0.63656751437609915
40
0.63656751437609915
40
0.75017291120756235
40
0.75017291120756235
40
0.75017291120756235
40
0.75017291120756235
10
111.14500000000001
20
-2.7991498008361759e-13
30
-2.7205252749611277e-14
10
111.14499999636173
20
0.034696558995846949
30
-2.7221912589695438e-14
10
111.14443125469603
20
0.06941607752864673
30
-2.7222255233291231e-14
10
111.12973029148313
20
0.51735438498202058
30
-2.7222255233291231e-14
10
111.03558972610762
20
0.92396466694325197
30
-2.7154379721826248e-14
10
110.69674763624192
20
1.6782128598080748
30
-2.7154379721826248e-14
10
110.45528562681406
20
2.0186397468908486
30
-2.6980285192821601e-14
10
109.85546202390714
20
2.5877758849985621
30
-2.6980285192821601e-14
10
109.50283507100102
20
2.8110438843400294
30
-2.672604054611299e-14
10
108.73184748988677
20
3.1098455712027522
30
-2.672604054611299e-14
10
108.32085792317483
20
3.1825225517381024
30
-2.642971635328416e-14
10
107.49415397809791
20
3.1662472484024535
30
-2.642971635328416e-14
10
107.08634334003635
20
3.0774505653020681
30
-2.6135684173544423e-14
10
106.32771360880069
20
2.7485353342930905
30
-2.6135684173544423e-14
10
105.98414742934233
20
2.5115613952655957
30
-2.5887972360259794e-14
10
105.40718906281205
20
1.9192579750533634
30
-2.5887972360259794e-14
10
105.17931291219072
20
1.569591237396168
30
-2.5723673259097633e-14
10
104.87041960666657
20
0.802591091303124
30
-2.5723673259097633e-14
10
104.7923556401244
20
0.39259062231130482
30
-2.5667389003368959e-14
10
104.79778105267221
20
-0.4342557135958463
30
-2.5667389003368959e-14
10
104.88121856186119
20
-0.84319647887383908
30
-2.5727547592697339e-14
10
105.20015029167158
20
-1.6060771052004861
30
-2.5727547592697339e-14
10
105.43259535112482
20
-1.9527234116593939
30
-2.5895140885078405e-14
10
105.72493596973271
20
-2.2450640302672937
30
-2.5895140885078405e-14
10
105.89045674268091
20
-2.4105848032155022
30
-2.5895140885078405e-14
10
106.07377595173133
20
-2.5572941972566126
30
-2.6029022336002955e-14
10
106.46932099773501
20
-2.8077360603724322
30
-2.6029022336002955e-14
10
106.68033651980988
20
-2.9107022108794887
30
-2.6183130922928053e-14
10
107.29002626614134
20
-3.128767616145133
30
-2.6183130922928053e-14
10
107.70278154117258
20
-3.1906340075035318
30
-2.6480728194527886e-14
10
108.52877365469936
20
-3.152669198851993
30
-2.6480728194527886e-14
10
108.93411355838913
20
-3.0532009631051777
30
-2.6772978970485826e-14
10
109.68385032414595
20
-2.7044903662244684
30
-2.6772978970485826e-14
10
110.02107929409426
20
-2.4585818684587153
30
-2.7016121644685318e-14
10
110.58229519310474
20
-1.8513413782060839
30
-2.7016121644685318e-14
10
110.80091659228607
20
-1.4958149357776627
30
-2.7173748053953564e-14
10
111.07744486823441
20
-0.75353398042352704
30
-2.7173748053953564e-14
10
111.14499956787697
20
-0.37813045405289536
30
-2.7214444184631317e-14
10
111.14500000000001
20
-2.7991498008361759e-13
30
-2.7205252749611277e-14
0
SPLINE
5
130
100
AcDbEntity
8
0
100
AcDbSpline
70
0
71
3
72
43
73
39
74
0
42
0.000000001
43
0.0000000001
44
0.0000000001
40
-0.75043043568457535
40
-0.75043043568457535
40
-0.75043043568457535
40
-0.75043043568457535
40
-0.74417772180209973
40
-0.74417772180209973
40
-0.62014810150174993
40
-0.62014810150174993
40
-0.49611848120139967
40
-0.49611848120139967
40
-0.37208886090104987
40
-0.37208886090104987
40
-0.24805924060070075
40
-0.24805924060070075
40
-0.12402962030034981
40
-0.12402962030034981
40
-0
40
-0
40
-0
40
0.070224516587349406
40
0.070224516587349406
40
0.14044903317469992
40
0.14044903317469992
40
0.26447865347504917
40
0.26447865347504917
40
0.38850827377539909
40
0.38850827377539909
40
0.51253789407574857
40
0.51253789407574857
40
0.63656751437609915
40
0.63656751437609915
40
0.7605971346764473
40
0.7605971346764473
40
0.88462675497679766
40
0.88462675497679766
40
1.0086563752771469
40
1.0086563752771469
40
1.1326859955774966
40
1.1326859955774966
40
1.250462901995371
40
1.250462901995371
40
1.250462901995371
40
1.250462901995371
10
-104.78500000000003
20
5.377642775528102e-14
30
1.282290356955261e-14
10
-104.78499999949383
20
-0.020823369831256051
30
-3.3701053663022373e-14
10
-104.78479514407033
20
-0.041655707596713297
30
-3.3701228538047519e-14
10
-104.77624724840247
20
-0.47584602190208858
30
-3.3701228538047519e-14
10
-104.68745056530209
20
-0.88365665996365439
30
-3.3617158474912182e-14
10
-104.35853533429311
20
-1.6422863911993284
30
-3.3617158474912182e-14
10
-104.1215613952656
20
-1.9858525706576713
30
-3.3392798585332202e-14
10
-103.52925797505337
20
-2.5628109371879546
30
-3.3392798585332202e-14
10
-103.17959123739618
20
-2.7906870878092587
30
-3.3061744499923012e-14
10
-102.41259109130313
20
-3.0995803933334276
30
-3.3061744499923012e-14
10
-102.00259062231133
20
-3.1776443598756248
30
-3.2673568229029068e-14
10
-101.17574428640417
20
-3.1722189473278024
30
-3.2673568229029068e-14
10
-100.76680352112618
20
-3.0887814381388203
30
-3.228639525414815e-14
10
-100.00392289479953
20
-2.7698497083284095
30
-3.228639525414815e-14
10
-99.657276588340608
20
-2.537404648875194
30
-3.1958200823319188e-14
10
-99.364935969732713
20
-2.2450640302672937
30
-3.1958200823319188e-14
10
-99.199415196784514
20
-2.0795432573190871
30
-3.1958200823319188e-14
10
-99.052705802743404
20
-1.8962240482686707
30
-3.1817505819379237e-14
10
-98.802263939627579
20
-1.5006790022649905
30
-3.1817505819379237e-14
10
-98.699297789120507
20
-1.2896634801901043
30
-3.1718760793227666e-14
10
-98.481232383854859
20
-0.6799737338586419
30
-3.1718760793227666e-14
10
-98.419365992496481
20
-0.2672184588274184
30
-3.1660187530737942e-14
10
-98.457330801148032
20
0.55877365469936846
30
-3.1660187530737942e-14
10
-98.55679903689483
20
0.96411355838913471
30
-3.1754361103074435e-14
10
-98.905509633775551
20
1.713850324145954
30
-3.1754361103074435e-14
10
-99.151418131541291
20
2.051079294094265
30
-3.1987179967595659e-14
10
-99.758658621793927
20
2.6122951931047473
30
-3.1987179967595659e-14
10
-100.11418506422237
20
2.8309165922860764
30
-3.2323781847504272e-14
10
-100.88902730893822
20
3.1195752039851934
30
-3.2323781847504272e-14
10
-101.30093519704454
20
3.1868526828440382
30
-3.2713764006183468e-14
10
-102.12735438498203
20
3.1597302914831236
30
-3.2713764006183468e-14
10
-102.53396466694326
20
3.0655897261076213
30
-3.3098730548653448e-14
10
-103.28821285980808
20
2.7267476362419316
30
-3.3098730548653448e-14
10
-103.62863974689085
20
2.4852856268140688
30
-3.3421036617875204e-14
10
-104.19777588499856
20
1.885462023907154
30
-3.3421036617875204e-14
10
-104.42104388434004
20
1.532835071001013
30
-3.3632420130697608e-14
10
-104.71231381608237
20
0.78128141518613037
30
-3.3632420130697608e-14
10
-104.78499982040191
20
0.39223161750619767
30
-3.3694465727013053e-14
10
-104.78500000000003
20
5.2666204730655863e-14
30
1.282290356955261e-14
0
CIRCLE
5
131
100
AcDbEntity
8
0
100
AcDbCircle
10
95.25
20
0
30
0
40
3.1750000000000078
210
0
220
0
230
1
0
CIRCLE
5
132
100
AcDbEntity
8
0
100
AcDbCircle
10
247.89000000000001
20
0
30
-7.285864680975297e-13
40
3.1750000000000078
210
2.9391523179536479e-15
220
0
230
1
0
ARC
5
133
100
AcDbEntity
8
0
100
AcDbCircle
10
-101.61000004866295
20
-3.425574768289863e-08
30
6.4114522060602094e-15
40
3.1749999513370675
210
2.019354923793503e-15
220
1.229818643348727e-14
230
1
100
AcDbArc
50
0
51
180
0
ARC
5
134
100
AcDbEntity
8
0
100
AcDbCircle
10
-114.33000004866295
20
-3.425574768289863e-08
30
6.4114522060602094e-15
40
3.1749999513370675
210
2.0193549237935022e-15
220
1.2298186433487269e-14
230
1
100
AcDbArc
50
0
51
180
0
ARC
5
135
100
AcDbEntity
8
0
100
AcDbCircle
10
-127.05000004866295
20
-3.425574768289863e-08
30
6.4114522060602094e-15
40
3.1749999513370675
210
2.0193549237935022e-15
220
1.2298186433487269e-14
230
1
100
AcDbArc
50
0
51
180
0
ARC
5
136
100
AcDbEntity
8
0
100
AcDbCircle
10
-139.77000004866295
20
-3.425574768289863e-08
30
6.4114522060602094e-15
40
3.1749999513370497
210
2.0193549237935132e-15
220
1.2298186433487269e-14
230
1
100
AcDbArc
50
0
51
180
0
ARC
5
137
100
AcDbEntity
8
0
100
AcDbCircle
10
-152.49000004866298
20
-3.425574768289863e-08
30
6.4114522060602094e-15
40
3.1749999513370852
210
2.0193549237934908e-15
220
1.2298186433487269e-14
230
1
100
AcDbArc
50
0
51
180
0
ARC
5
138
100
AcDbEntity
8
0
100
AcDbCircle
10
-165.21000004866295
20
-3.425574768289863e-08
30
6.4114522060602094e-15
40
3.1749999513370497
210
2.0193549237935132e-15
220
1.2298186433487269e-14
230
1
100
AcDbArc
50
0
51
180
0
ARC
5
139
100
AcDbEntity
8
0
100
AcDbCircle
10
-177.93000004866292
20
-3.425574768289863e-08
30
6.4114522060602094e-15
40
3.1749999513370497
210
2.0193549237935132e-15
220
1.2298186433487269e-14
230
1
100
AcDbArc
50
0
51
180
0
ARC
5
140
100
AcDbEntity
8
0
100
AcDbCircle
10
-190.65000004866295
20
-3.425574768289863e-08
30
6.4114522060602094e-15
40
3.1749999513370497
210
2.0193549237935132e-15
220
1.2298186433487269e-14
230
1
100
AcDbArc
50
0
51
180
0
ARC
5
141
100
AcDbEntity
8
0
100
AcDbCircle
10
-203.37000004866297
20
-3.425574768289863e-08
30
6.4114522060602094e-15
40
3.1749999513370852
210
2.0193549237934908e-15
220
1.2298186433487269e-14
230
1
100
AcDbArc
50
0
51
180
0
ARC
5
142
100
AcDbEntity
8
0
100
AcDbCircle
10
-216.09000004866294
20
-3.425574768289863e-08
30
6.4114522060602094e-15
40
3.1749999513370852
210
2.0193549237934908e-15
220
1.2298186433487269e-14
230
1
100
AcDbArc
50
0
51
180
0
ARC
5
143
100
AcDbEntity
8
0
100
AcDbCircle
10
-228.81000004866294
20
-3.425574768289863e-08
30
6.4114522060602094e-15
40
3.1749999513370497
210
2.0193549237935132e-15
220
1.2298186433487269e-14
230
1
100
AcDbArc
50
0
51
180
0
ARC
5
144
100
AcDbEntity
8
0
100
AcDbCircle
10
-241.53000004866297
20
-3.425574768289863e-08
30
6.4114522060602094e-15
40
3.1749999513370497
210
2.0193549237935132e-15
220
1.2298186433487269e-14
230
1
100
AcDbArc
50
0
51
180
0
LINE
5
145
100
AcDbEntity
8
0
100
AcDbLine
10
-275.06500000000005
20
-25.399999999999999
30
0
11
-275.06500000000005
21
0
31
0
0
LWPOLYLINE
5
146
100
AcDbEntity
8
0
100
AcDbPolyline
90
3
70
1
43
0.0
10
-244.70500000000001
20
5.377642775528102e-14
10
-251.05500000000004
20
5.377642775528102e-14
10
-244.70500000000001
20
6.3500000000000529
0
LINE
5
147
100
AcDbEntity
8
0
100
AcDbLine
10
-251.05500000000004
20
5.377642775528102e-14
30
-1.5598161364086824e-13
11
-251.05500000000004
21
6.3500000000000529
31
-1.5598161364086824e-13
0
LINE
5
148
100
AcDbEntity
8
0
100
AcDbLine
10
-251.05500000000004
20
6.3500000000000529
30
-1.5598161364086824e-13
11
-244.70500000000001
21
6.3500000000000529
31
-1.5598161364086824e-13
0
LINE
5
149
100
AcDbEntity
8
0
100
AcDbLine
10
-244.7050000000001
20
5.5511151231257827e-16
30
1.5580797685639807e-12
11
-251.05500000000004
21
6.3500000000000529
31
-1.5598161364086824e-13
0
CIRCLE
5
150
100
AcDbEntity
8
0
100
AcDbCircle
10
-247.88000000000005
20
3.175000000000054
30
-1.5598161364086824e-13
40
0.74999999999998712
210
0
220
0
230
1
0
CIRCLE
5
151
100
AcDbEntity
8
0
100
AcDbCircle
10
-235.16166666666669
20
3.175000000000054
30
-1.5598161364086824e-13
40
0.74999999999998712
210
0
220
0
230
1
0
CIRCLE
5
152
100
AcDbEntity
8
0
100
AcDbCircle
10
-222.44333333333338
20
3.175000000000054
30
-1.5598161364086824e-13
40
0.74999999999998712
210
0
220
0
230
1
0
CIRCLE
5
153
100
AcDbEntity
8
0
100
AcDbCircle
10
-209.72500000000002
20
3.175000000000054
30
-1.5598161364086824e-13
40
0.74999999999998712
210
0
220
0
230
1
0
CIRCLE
5
154
100
AcDbEntity
8
0
100
AcDbCircle
10
-197.00666666666672
20
3.175000000000054
30
-1.5598161364086824e-13
40
0.74999999999998712
210
0
220
0
230
1
0
CIRCLE
5
155
100
AcDbEntity
8
0
100
AcDbCircle
10
-184.28833333333336
20
3.175000000000054
30
-1.5598161364086824e-13
40
0.74999999999998712
210
0
220
0
230
1
0
CIRCLE
5
156
100
AcDbEntity
8
0
100
AcDbCircle
10
-171.57000000000005
20
3.175000000000054
30
-1.5598161364086824e-13
40
0.74999999999998712
210
0
220
0
230
1
0
CIRCLE
5
157
100
AcDbEntity
8
0
100
AcDbCircle
10
-158.85166666666672
20
3.175000000000054
30
-1.5598161364086824e-13
40
0.74999999999998712
210
0
220
0
230
1
0
CIRCLE
5
158
100
AcDbEntity
8
0
100
AcDbCircle
10
-146.13333333333338
20
3.175000000000054
30
-1.5598161364086824e-13
40
0.74999999999998712
210
0
220
0
230
1
0
CIRCLE
5
159
100
AcDbEntity
8
0
100
AcDbCircle
10
-133.41500000000005
20
3.175000000000054
30
-1.5598161364086824e-13
40
0.74999999999998712
210
0
220
0
230
1
0
CIRCLE
5
160
100
AcDbEntity
8
0
100
AcDbCircle
10
-120.69666666666672
20
3.175000000000054
30
-1.5598161364086824e-13
40
0.74999999999998712
210
0
220
0
230
1
0
CIRCLE
5
161
100
AcDbEntity
8
0
100
AcDbCircle
10
-107.97833333333338
20
3.175000000000054
30
-1.5598161364086824e-13
40
0.74999999999998712
210
0
220
0
230
1
0
CIRCLE
5
162
100
AcDbEntity
8
0
100
AcDbCircle
10
-95.260000000000076
20
3.175000000000054
30
-1.5598161364086824e-13
40
0.74999999999998712
210
0
220
0
230
1
0
ENDSEC
0
SECTION
2
OBJECTS
0
DICTIONARY
5
C
100
AcDbDictionary
3
ACAD_GROUP
350
D
3
ACAD_MLINESTYLE
350
17
0
DICTIONARY
5
D
100
AcDbDictionary
0
DICTIONARY
5
1A
330
C
100
AcDbDictionary
0
DICTIONARY
5
17
100
AcDbDictionary
0
ENDSEC
0
EOF
