0
SECTION
2
HEADER
9
$INSUNITS
70
4
9
$ACADVER
1
AC1014
9
$HANDSEED
5
FFFF
0
ENDSEC
0
SECTION
2
TABLES
0
TABLE
2
VPORT
5
8
100
AcDbSymbolTable
0
ENDTAB
0
TABLE
2
LTYPE
5
5
100
AcDbSymbolTable
0
LTYPE
5
14
100
AcDbSymbolTableRecord
100
AcDbLinetypeTableRecord
2
BYBLOCK
70
0
0
LTYPE
5
15
100
AcDbSymbolTableRecord
100
AcDbLinetypeTableRecord
2
BYLAYER
70
0
0
ENDTAB
0
TABLE
2
LAYER
5
2
100
AcDbSymbolTable
70
2
0
LAYER
5
50
100
AcDbSymbolTableRecord
100
AcDbLayerTableRecord
2
0
70
0
6
CONTINUOUS
0
ENDTAB
0
TABLE
2
STYLE
5
3
100
AcDbSymbolTable
70
1
0
STYLE
5
11
100
AcDbSymbolTableRecord
100
AcDbTextStyleTableRecord
2
STANDARD
70
0
0
ENDTAB
0
TABLE
2
VIEW
5
6
100
AcDbSymbolTable
70
0
0
ENDTAB
0
TABLE
2
UCS
5
7
100
AcDbSymbolTable
70
0
0
ENDTAB
0
TABLE
2
APPID
5
9
100
AcDbSymbolTable
70
2
0
APPID
5
12
100
AcDbSymbolTableRecord
100
AcDbRegAppTableRecord
2
ACAD
70
0
0
ENDTAB
0
TABLE
2
DIMSTYLE
5
A
100
AcDbSymbolTable
70
1
0
ENDTAB
0
TABLE
2
BLOCK_RECORD
5
1
100
AcDbSymbolTable
70
1
0
BLOCK_RECORD
5
1F
100
AcDbSymbolTableRecord
100
AcDbBlockTableRecord
2
*MODEL_SPACE
0
BLOCK_RECORD
5
1B
100
AcDbSymbolTableRecord
100
AcDbBlockTableRecord
2
*PAPER_SPACE
0
ENDTAB
0
ENDSEC
0
SECTION
2
BLOCKS
0
BLOCK
5
20
100
AcDbEntity
100
AcDbBlockBegin
2
*MODEL_SPACE
0
ENDBLK
5
21
100
AcDbEntity
100
AcDbBlockEnd
0
BLOCK
5
1C
100
AcDbEntity
100
AcDbBlockBegin
2
*PAPER_SPACE
0
ENDBLK
5
1D
100
AcDbEntity
100
AcDbBlockEnd
0
ENDSEC
0
SECTION
2
ENTITIES
0
LWPOLYLINE
5
100
100
AcDbEntity
8
0
100
AcDbPolyline
90
8
70
1
43
0.0
10
82.550000000000011
20
0
10
262.36500000000001
20
0
10
262.36500000000001
20
31.75
10
287.76500000000004
20
31.75
10
287.76500000000004
20
0
10
287.76500000000004
20
-12.699999999999999
10
275.06500000000005
20
-25.399999999999999
10
82.550000000000011
20
-25.399999999999999
0
LINE
5
101
100
AcDbEntity
8
0
100
AcDbLine
10
275.06500000000005
20
0
30
0
11
275.06500000000005
21
-25.399999999999999
31
0
0
LINE
5
102
100
AcDbEntity
8
0
100
AcDbLine
10
0
20
-25.399999999999999
30
0
11
0
21
0
31
0
0
SPLINE
5
103
100
AcDbEntity
8
0
100
AcDbSpline
70
0
71
3
72
40
73
36
74
0
42
0.000000001
43
0.0000000001
44
0.0000000001
40
-2.0008933376799463
40
-2.0008933376799463
40
-2.0008933376799463
40
-2.0008933376799463
40
-1.9306688210925966
40
-1.9306688210925966
40
-1.8604443045052479
40
-1.8604443045052479
40
-1.7364146842048969
40
-1.7364146842048969
40
-1.6123850639045474
40
-1.6123850639045474
40
-1.4883554436041975
40
-1.4883554436041975
40
-1.364325823303846
40
-1.364325823303846
40
-1.2402962030034979
40
-1.2402962030034979
40
-1.1162665827031468
40
-1.1162665827031468
40
-0.99223696240279768
40
-0.99223696240279768
40
-0.86820734210244854
40
-0.86820734210244854
40
-0.74417772180209896
40
-0.74417772180209896
40
-0.62014810150175015
40
-0.62014810150175015
40
-0.49611848120139895
40
-0.49611848120139895
40
-0.37208886090105059
40
-0.37208886090105059
40
-0.24805924060069878
40
-0.24805924060069878
40
-0.12402962030034967
40
-0.12402962030034967
40
-0
40
-0
40
-0
40
-0
10
-247.88499999999999
20
3.8882535872928564e-16
30
-2.9150542694192631e-12
10
-247.88499999999999
20
-0.23408172195783111
30
-2.9150542694192631e-12
10
-247.85911295154892
20
-0.46744718518937056
30
-2.9141465523096475e-12
10
-247.75650950695717
20
-0.92422890918550293
30
-2.9141465523096475e-12
10
-247.68010706361864
20
-1.1462474790364896
30
-2.9114675367715892e-12
10
-247.40318683637327
20
-1.7315587598929021
30
-2.9114675367715892e-12
10
-247.15507092728524
20
-2.067166958695061
30
-2.9028784602024507e-12
10
-246.54416112895987
20
-2.6243864097325114
30
-2.9028784602024507e-12
10
-246.18720787036611
20
-2.8406703403078164
30
-2.8905217399867483e-12
10
-245.41048829146862
20
-3.1242386637533759
30
-2.8905217399867483e-12
10
-244.99814783368407
20
-3.1888119888948174
30
-2.8762476703493643e-12
10
-244.17192439731537
20
-3.1562676883261553
30
-2.8762476703493643e-12
10
-243.7659405651095
20
-3.0594612038675058
30
-2.8621936492530733e-12
10
-243.01393189774075
20
-2.7156774600594451
30
-2.8621936492530733e-12
10
-242.67509667531431
20
-2.4719869606774529
30
-2.8504641246109867e-12
10
-242.10990849027436
20
-1.8684419219308743
30
-2.8504641246109867e-12
10
-241.88895903476111
20
-1.5143576020941634
30
-2.8428154744366072e-12
10
-241.59522256238415
20
-0.74142605072629619
30
-2.8428154744366072e-12
10
-241.52524382629511
20
-0.32996846610646291
30
-2.8403930069507865e-12
10
-241.54694314075203
20
0.49661089369904832
30
-2.8403930069507865e-12
10
-241.63841373402479
20
0.90383011968443627
30
-2.8435594622270007e-12
10
-241.9722995818307
20
1.6602853655115379
30
-2.8435594622270007e-12
10
-242.21152270567694
20
2.0022892609031855
30
-2.8518406955238738e-12
10
-242.80759904862896
20
2.5753488491462315
30
-2.8518406955238738e-12
10
-243.15875345300947
20
2.8009257799924256
30
-2.8639966756780696e-12
10
-243.92776387065794
20
3.1047798170769099
30
-2.8639966756780696e-12
10
-244.33826772519012
20
3.1801519131074274
30
-2.878207167264293e-12
10
-245.16506066357806
20
3.1693013215912504
30
-2.878207167264293e-12
10
-245.57344515630581
20
3.0831823716134754
30
-2.8923442924916935e-12
10
-246.33421671177857
20
2.7592519181392792
30
-2.8923442924916935e-12
10
-246.67933038380068
20
2.5245373663338149
30
-2.904291159441699e-12
10
-247.26016268891658
20
1.9360323692113144
30
-2.904291159441699e-12
10
-247.4903282485954
20
1.5878683524267818
30
-2.9122588452822663e-12
10
-247.80424752382231
20
0.82291149943087527
30
-2.9122588452822663e-12
10
-247.88499999999999
20
0.41343206766783264
30
-2.9150542694192631e-12
10
-247.88499999999999
20
3.8882535872928564e-16
30
-2.9150542694192631e-12
0
SPLINE
5
104
100
AcDbEntity
8
0
100
AcDbSpline
70
0
71
3
72
43
73
39
74
0
42
0.000000001
43
0.0000000001
44
0.0000000001
40
-0.25014284073809667
40
-0.25014284073809667
40
-0.25014284073809667
40
-0.25014284073809667
40
-0.24805924060069873
40
-0.24805924060069873
40
-0.12402962030034904
40
-0.12402962030034904
40
-0
40
-0
40
-0
40
0.070224516587352959
40
0.070224516587352959
40
0.14044903317470459
40
0.14044903317470459
40
0.26447865347505162
40
0.26447865347505162
40
0.38850827377539976
40
0.38850827377539976
40
0.51253789407575101
40
0.51253789407575101
40
0.63656751437610093
40
0.63656751437610093
40
0.76059713467645018
40
0.76059713467645018
40
0.88462675497679988
40
0.88462675497679988
40
1.0086563752771471
40
1.0086563752771471
40
1.1326859955774999
40
1.1326859955774999
40
1.2567156158778494
40
1.2567156158778494
40
1.3807452361781996
40
1.3807452361781996
40
1.5047748564785499
40
1.5047748564785499
40
1.6288044767789003
40
1.6288044767789003
40
1.7507504969418513
40
1.7507504969418513
40
1.7507504969418513
40
1.7507504969418513
10
241.52500000000003
20
-4.163336342344337e-16
30
2.3639304279728595e-13
10
241.52499999999336
20
0.0069431430081954432
30
2.3647662481856062e-13
10
241.52497722493504
20
0.013887361359148989
30
2.3647668831514633e-13
10
241.52221894732781
20
0.43425571359584664
30
2.3647668831514633e-13
10
241.43878143813885
20
0.84319647887383953
30
2.3623620598943063e-13
10
241.11984970832845
20
1.6060771052004841
30
2.3623620598943063e-13
10
240.88740464887525
20
1.9527234116593957
30
2.3556625635836201e-13
10
240.59506403026734
20
2.2450640302672937
30
2.3556625635836201e-13
10
240.42954325731912
20
2.4105848032155084
30
2.3556625635836201e-13
10
240.24622404826869
20
2.5572941972566152
30
2.350310688972201e-13
10
239.850679002265
20
2.8077360603724442
30
2.350310688972201e-13
10
239.63966348019011
20
2.9107022108794922
30
2.3441502400969424e-13
10
239.02997373385861
20
3.1287676161451303
30
2.3441502400969424e-13
10
238.61721845882744
20
3.1906340075035322
30
2.3322538700523706e-13
10
237.79122634530066
20
3.1526691988519899
30
2.3322538700523706e-13
10
237.38588644161092
20
3.0532009631051737
30
2.3205712247178933e-13
10
236.63614967585409
20
2.7044903662244622
30
2.3205712247178933e-13
10
236.29892070590574
20
2.4585818684587095
30
2.3108516624035141e-13
10
235.73770480689529
20
1.8513413782060746
30
2.3108516624035141e-13
10
235.51908340771394
20
1.4958149357776582
30
2.3045505895362401e-13
10
235.23042479601483
20
0.72097269106178463
30
2.3045505895362401e-13
10
235.16314731715599
20
0.30906480295546246
30
2.3026115282265814e-13
10
235.19026970851695
20
-0.51735438498202624
30
2.3026115282265814e-13
10
235.28441027389243
20
-0.92396466694325663
30
2.3053248333486723e-13
10
235.62325236375813
20
-1.678212859808069
30
2.3053248333486723e-13
10
235.86471437318593
20
-2.0186397468908583
30
2.3122842148263342e-13
10
236.46453797609286
20
-2.5877758849985715
30
2.3122842148263342e-13
10
236.81716492899903
20
-2.8110438843400258
30
2.3224475754742244e-13
10
237.58815251011328
20
-3.1098455712027526
30
2.3224475754742244e-13
10
237.99914207682519
20
-3.1825225517381028
30
2.3342930545409518e-13
10
238.82584602190212
20
-3.1662472484024518
30
2.3342930545409518e-13
10
239.23365665996369
20
-3.0774505653020681
30
2.346046911007417e-13
10
239.99228639119937
20
-2.7485353342930874
30
2.346046911007417e-13
10
240.33585257065772
20
-2.5115613952655931
30
2.3559491234148224e-13
10
240.912810937188
20
-1.91925797505336
30
2.3559491234148224e-13
10
241.14068708780931
20
-1.5695912373961651
30
2.362516935326902e-13
10
241.44698581095764
20
-0.8090335911104819
30
2.362516935326902e-13
10
241.52499997707952
20
-0.40635851480078466
30
2.364691923407202e-13
10
241.52500000000003
20
-1.5265566588595902e-15
30
2.3639304279728595e-13
0
SPLINE
5
105
100
AcDbEntity
8
0
100
AcDbSpline
70
0
71
3
72
43
73
39
74
0
42
0.000000001
43
0.0000000001
44
0.0000000001
40
-1.7510126276804161
40
-1.7510126276804161
40
-1.7510126276804161
40
-1.7510126276804161
40
-1.7364146842048973
40
-1.7364146842048973
40
-1.6123850639045476
40
-1.6123850639045476
40
-1.4883554436041984
40
-1.4883554436041984
40
-1.364325823303848
40
-1.364325823303848
40
-1.2402962030034974
40
-1.2402962030034974
40
-1.1162665827031466
40
-1.1162665827031466
40
-0.99223696240279935
40
-0.99223696240279935
40
-0.86820734210244976
40
-0.86820734210244976
40
-0.7441777218020994
40
-0.7441777218020994
40
-0.62014810150174871
40
-0.62014810150174871
40
-0.49611848120140029
40
-0.49611848120140029
40
-0.37208886090105048
40
-0.37208886090105048
40
-0.24805924060070061
40
-0.24805924060070061
40
-0.12402962030035232
40
-0.12402962030035232
40
-0
40
-0
40
-0
40
0.070224516587347185
40
0.070224516587347185
40
0.14044903317469748
40
0.14044903317469748
40
0.24988070999952838
40
0.24988070999952838
40
0.24988070999952838
40
0.24988070999952838
10
-235.16500000000002
20
6.6981142854416476e-13
30
-1.0366387290465859e-12
10
-235.16499998701698
20
-0.048563944291403031
30
-1.0368983067132217e-12
10
-235.16388577971219
20
-0.097169103135883228
30
-1.0369094306138425e-12
10
-235.14266919893885
20
-0.55877365420937475
30
-1.0369094306138425e-12
10
-235.04320096325503
20
-0.96411355791459985
30
-1.0356183474941176e-12
10
-234.69449036649084
20
-1.7138503237256153
30
-1.0356183474941176e-12
10
-234.44858186877752
20
-2.051079293712148
30
-1.0324264912375755e-12
10
-233.8413413786121
20
-2.6122951928170082
30
-1.0324264912375755e-12
10
-233.48581493621765
20
-2.8309165920535944
30
-1.0278118101262066e-12
10
-232.71097269154666
20
-3.1195752038731412
30
-1.0278118101262066e-12
10
-232.29906480345079
20
-3.1868526827960029
30
-1.0224653061136837e-12
10
-231.47264561550907
20
-3.1597302915635304
30
-1.0224653061136837e-12
10
-231.06603533353319
20
-3.0655897262512251
30
-1.0171875642521075e-12
10
-230.31178714061571
20
-2.726747636502763
30
-1.0171875642521075e-12
10
-229.97136025349545
20
-2.4852856271277997
30
-1.0127688731549955e-12
10
-229.4022241152945
20
-1.8854620243093443
30
-1.0127688731549955e-12
10
-229.17895611589825
20
-1.5328350714379031
30
-1.009870887248102e-12
10
-228.88015442891569
20
-0.76184749037010069
30
-1.009870887248102e-12
10
-228.8074774483164
20
-0.35085792366944984
30
-1.0089275506924752e-12
10
-228.82375275152359
20
0.47584602140999654
30
-1.0089275506924752e-12
10
-228.91254943456065
20
0.88365665948535632
30
-1.010080118623016e-12
10
-229.2414646654517
20
1.6422863907721472
30
-1.010080118623016e-12
10
-229.47843860442578
20
1.9858525702673302
30
-1.0131560056166963e-12
10
-230.07074202454834
20
2.5628109368896652
30
-1.0131560056166963e-12
10
-230.42040876217013
20
2.7906870875653134
30
-1.0176946286189961e-12
10
-231.18740890821516
20
3.0995803932086901
30
-1.0176946286189961e-12
10
-231.59740937719482
20
3.1776443598146087
30
-1.023016374610969e-12
10
-232.42425571310287
20
3.1722189473952946
30
-1.023016374610969e-12
10
-232.83319647839377
20
3.0887814382698657
30
-1.0283243658043869e-12
10
-233.59607710477002
20
2.7698497085780223
30
-1.0283243658043869e-12
10
-233.94272341126506
20
2.5374046491786917
30
-1.0328237840533781e-12
10
-234.23506402991842
20
2.2450640306162213
30
-1.0328237840533781e-12
10
-234.40058480289235
20
2.0795432576937452
30
-1.0328237840533781e-12
10
-234.5472941969619
20
1.8962240486661217
30
-1.0347526579429418e-12
10
-234.79773606013919
20
1.5006790027013728
30
-1.0347526579429418e-12
10
-234.90070221067907
20
1.2896634806424907
30
-1.0361064139211783e-12
10
-235.10238028698478
20
0.7257911187087891
30
-1.0361064139211783e-12
10
-235.16499927040854
20
0.36405359878333149
30
-1.0367315288242933e-12
10
-235.16500000000002
20
6.6981142854416476e-13
30
-1.0366387290465859e-12
0
SPLINE
5
106
100
AcDbEntity
8
0
100
AcDbSpline
70
0
71
3
72
43
73
39
74
0
42
0.000000001
43
0.0000000001
44
0.0000000001
40
-0.25014284079602023
40
-0.25014284079602023
40
-0.25014284079602023
40
-0.25014284079602023
40
-0.24805924060069942
40
-0.24805924060069942
40
-0.12402962030035009
40
-0.12402962030035009
40
-0
40
-0
40
-0
40
0.070224516587351626
40
0.070224516587351626
40
0.14044903317470037
40
0.14044903317470037
40
0.26447865347505295
40
0.26447865347505295
40
0.38850827377540131
40
0.38850827377540131
40
0.51253789407575256
40
0.51253789407575256
40
0.63656751437610026
40
0.63656751437610026
40
0.76059713467645018
40
0.76059713467645018
40
0.88462675497679877
40
0.88462675497679877
40
1.00865637527715
40
1.00865637527715
40
1.1326859955774986
40
1.1326859955774986
40
1.2567156158778472
40
1.2567156158778472
40
1.3807452361781971
40
1.3807452361781971
40
1.5047748564785497
40
1.5047748564785497
40
1.6288044767788983
40
1.6288044767788983
40
1.7507504968839269
40
1.7507504968839269
40
1.7507504968839269
40
1.7507504968839269
10
228.80500000000009
20
6.9388939039072284e-17
30
-1.457231006452448e-12
10
228.80499999999336
20
0.0069431432011514155
30
-1.4577748972510625e-12
10
228.80497722493377
20
0.013887361745119134
30
-1.4577753104405275e-12
10
228.80221894724866
20
0.43425571417438463
30
-1.4577753104405275e-12
10
228.71878143798511
20
0.84319647943716269
30
-1.4562104269586021e-12
10
228.39984970803556
20
1.6060771057056435
30
-1.4562104269586021e-12
10
228.1674046485191
20
1.9527234121221568
30
-1.45185088366323e-12
10
227.87506402985792
20
2.2450640306767413
30
-1.45185088366323e-12
10
227.70954325687953
20
2.4105848035947659
30
-1.45185088366323e-12
10
227.52622404780232
20
2.5572941976024444
30
-1.448368274225902e-12
10
227.13067900175298
20
2.8077360606461284
30
-1.448368274225902e-12
10
226.91966347965931
20
2.9107022111146974
30
-1.4443595036646196e-12
10
226.30997373328807
20
3.1287676162691467
30
-1.4443595036646196e-12
10
225.89721845824556
20
3.190634007552267
30
-1.436618214193102e-12
10
225.07122634472569
20
3.1526691987500839
30
-1.436618214193102e-12
10
224.66588644105406
20
3.0532009629293446
30
-1.4290160011666157e-12
10
223.91614967536086
20
2.7044903659118997
30
-1.4290160011666157e-12
10
223.57892070545739
20
2.4585818680846443
30
-1.4226912193114702e-12
10
223.01770480655765
20
1.8513413777296628
30
-1.4226912193114702e-12
10
222.79908340744117
20
1.4958149352613628
30
-1.4185909409199835e-12
10
222.51042479588338
20
0.72097269049284984
30
-1.4185909409199835e-12
10
222.44314731709966
20
0.3090648023742571
30
-1.4173291413266895e-12
10
222.47026970861131
20
-0.51735438555828461
30
-1.4173291413266895e-12
10
222.56441027406089
20
-0.92396466750235173
30
-1.4190947622944239e-12
10
222.90325236406417
20
-1.6782128603053768
30
-1.4190947622944239e-12
10
223.14471437355417
20
-2.0186397473441069
30
-1.423623419890971e-12
10
223.74453797656486
20
-2.5877758853424271
30
-1.423623419890971e-12
10
224.09716492951168
20
-2.8110438846195867
30
-1.4302369933163856e-12
10
224.86815251068043
20
-3.1098455713416961
30
-1.4302369933163856e-12
10
225.27914207740562
20
-3.1825225518020912
30
-1.4379451666533968e-12
10
226.10584602247957
20
-3.1662472483156683
30
-1.4379451666533968e-12
10
226.51365666052496
20
-3.077450565140909
30
-1.4455937186878886e-12
10
227.27228639170065
20
-2.7485353339935701
30
-1.4455937186878886e-12
10
227.61585257111579
20
-2.5115613949034254
30
-1.4520373558944683e-12
10
228.19281093753804
20
-1.9192579745859661
30
-1.4520373558944683e-12
10
228.42068708809558
20
-1.5695912368872034
30
-1.4563112085906917e-12
10
228.72698581103305
20
-0.80903359072476022
30
-1.4563112085906917e-12
10
228.80499997707955
20
-0.40635851460427075
30
-1.4577265321079528e-12
10
228.80500000000009
20
6.9388939039072284e-17
30
-1.457231006452448e-12
0
SPLINE
5
107
100
AcDbEntity
8
0
100
AcDbSpline
70
0
71
3
72
43
73
39
74
0
42
0.000000001
43
0.0000000001
44
0.0000000001
40
-1.751012627729861
40
-1.751012627729861
40
-1.751012627729861
40
-1.751012627729861
40
-1.7364146842048989
40
-1.7364146842048989
40
-1.6123850639045485
40
-1.6123850639045485
40
-1.4883554436042001
40
-1.4883554436042001
40
-1.3643258233038507
40
-1.3643258233038507
40
-1.2402962030035012
40
-1.2402962030035012
40
-1.1162665827031495
40
-1.1162665827031495
40
-0.99223696240280113
40
-0.99223696240280113
40
-0.8682073421024511
40
-0.8682073421024511
40
-0.74417772180210084
40
-0.74417772180210084
40
-0.62014810150175115
40
-0.62014810150175115
40
-0.49611848120140012
40
-0.49611848120140012
40
-0.37208886090104931
40
-0.37208886090104931
40
-0.24805924060070017
40
-0.24805924060070017
40
-0.12402962030035318
40
-0.12402962030035318
40
-0
40
-0
40
-0
40
0.07022451658734763
40
0.07022451658734763
40
0.14044903317469881
40
0.14044903317469881
40
0.24988070995008616
40
0.24988070995008616
40
0.24988070995008616
40
0.24988070995008616
10
-222.44500000000005
20
6.7112981838590713e-13
30
6.5402240076434149e-13
10
-222.44499998701698
20
-0.048563944455609687
30
6.5419553756681748e-13
10
-222.44388577970469
20
-0.09716910346453142
30
6.5420295714425713e-13
10
-222.42266919885202
20
-0.55877365469936502
30
6.5420295714425713e-13
10
-222.32320096310519
20
-0.9641135583891256
30
6.5334181216774739e-13
10
-221.97449036622447
20
-1.7138503241459426
30
6.5334181216774739e-13
10
-221.72858186845875
20
-2.0510792940942633
30
6.5121286249912157e-13
10
-221.12134137820615
20
-2.6122951931047416
30
6.5121286249912157e-13
10
-220.76581493577774
20
-2.8309165922860751
30
6.4813489687909338e-13
10
-219.99097269106184
20
-3.1195752039851938
30
6.4813489687909338e-13
10
-219.57906480295551
20
-3.1868526828440382
30
6.4456880961551404e-13
10
-218.75264561501805
20
-3.1597302914831236
30
6.4456880961551404e-13
10
-218.34603533305679
20
-3.065589726107623
30
6.4104858630925864e-13
10
-217.59178714019197
20
-2.7267476362419334
30
6.4104858630925864e-13
10
-217.2513602531092
20
-2.4852856268140657
30
6.3810134489616743e-13
10
-216.6822241150015
20
-1.8854620239071522
30
6.3810134489616743e-13
10
-216.45895611566004
20
-1.5328350710010108
30
6.3616840505256114e-13
10
-216.16015442879728
20
-0.76184748988676831
30
6.3616840505256114e-13
10
-216.08747744826192
20
-0.35085792317482134
30
6.3553920502477343e-13
10
-216.10375275159757
20
0.47584602190209169
30
6.3553920502477343e-13
10
-216.19254943469795
20
0.88365665996365694
30
6.3630796117097923e-13
10
-216.52146466570696
20
1.6422863911993324
30
6.3630796117097923e-13
10
-216.75843860473447
20
1.9858525706576715
30
6.3835956001180555e-13
10
-217.3507420249467
20
2.5628109371879586
30
6.3835956001180555e-13
10
-217.7004087626039
20
2.7906870878092565
30
6.4138679531285621e-13
10
-218.46740890869694
20
3.0995803933334272
30
6.4138679531285621e-13
10
-218.87740937768876
20
3.1776443598756248
30
6.449363691198912e-13
10
-219.7042557135959
20
3.1722189473278024
30
6.449363691198912e-13
10
-220.11319647887387
20
3.088781438138815
30
6.4847676855560128e-13
10
-220.87607710520049
20
2.769849708328405
30
6.4847676855560128e-13
10
-221.22272341165944
20
2.5374046488752016
30
6.5147785451225311e-13
10
-221.51506403026735
20
2.2450640302672937
30
6.5147785451225311e-13
10
-221.68058480321554
20
2.0795432573190915
30
6.5147785451225311e-13
10
-221.82729419725663
20
1.8962240482686687
30
6.5276440224381794e-13
10
-222.07773606037247
20
1.500679002264993
30
6.5276440224381794e-13
10
-222.18070221087956
20
1.2896634801901112
30
6.536673496537546e-13
10
-222.38238028704214
20
0.72579111838024679
30
6.536673496537546e-13
10
-222.44499927040863
20
0.36405359861675246
30
6.5408429767898152e-13
10
-222.44500000000005
20
6.7112981838590713e-13
30
6.5402240076434149e-13
0
SPLINE
5
108
100
AcDbEntity
8
0
100
AcDbSpline
70
0
71
3
72
43
73
39
74
0
42
0.000000001
43
0.0000000001
44
0.0000000001
40
-0.25014284080211274
40
-0.25014284080211274
40
-0.25014284080211274
40
-0.25014284080211274
40
-0.24805924060069828
40
-0.24805924060069828
40
-0.12402962030034846
40
-0.12402962030034846
40
-0
40
-0
40
-0
40
0.070224516587352959
40
0.070224516587352959
40
0.14044903317470281
40
0.14044903317470281
40
0.26447865347505428
40
0.26447865347505428
40
0.38850827377540043
40
0.38850827377540043
40
0.51253789407575145
40
0.51253789407575145
40
0.63656751437610093
40
0.63656751437610093
40
0.76059713467645018
40
0.76059713467645018
40
0.88462675497679966
40
0.88462675497679966
40
1.0086563752771491
40
1.0086563752771491
40
1.1326859955774977
40
1.1326859955774977
40
1.2567156158778472
40
1.2567156158778472
40
1.3807452361781976
40
1.3807452361781976
40
1.5047748564785448
40
1.5047748564785448
40
1.6288044767788947
40
1.6288044767788947
40
1.7507504968778305
40
1.7507504968778305
40
1.7507504968778305
40
1.7507504968778305
10
216.08499999999998
20
-1.1102230246251565e-15
30
1.0567553925011602e-13
10
216.08499999999333
20
0.0069431432214504471
30
1.0571730384064532e-13
10
216.0849772249336
20
0.013887361785723841
30
1.0571733556886901e-13
10
216.08221894724025
20
0.43425571423524989
30
1.0571733556886901e-13
10
215.99878143796886
20
0.84319647949642418
30
1.0559717042169131e-13
10
215.67984970800467
20
1.6060771057587822
30
1.0559717042169131e-13
10
215.44740464848161
20
1.9527234121708448
30
1.0526240737528422e-13
10
215.15506402981481
20
2.2450640307198166
30
1.0526240737528422e-13
10
214.9895432568332
20
2.4105848036346682
30
1.0526240737528422e-13
10
214.8062240477532
20
2.5572941976388202
30
1.0499498281594828e-13
10
214.41067900169907
20
2.8077360606749195
30
1.0499498281594828e-13
10
214.1996634796034
20
2.9107022111394425
30
1.0468715510224238e-13
10
213.58997373322796
20
3.1287676162821931
30
1.0468715510224238e-13
10
213.17721845818426
20
3.1906340075573949
30
1.0409271264096687e-13
10
212.35122634466512
20
3.1526691987393622
30
1.0409271264096687e-13
10
211.94588644099548
20
3.0532009629108412
30
1.035089496594639e-13
10
211.19614967530893
20
2.7044903658790131
30
1.035089496594639e-13
10
210.85892070541018
20
2.4585818680452869
30
1.0302327877649629e-13
10
210.29770480652206
20
1.8513413776795336
30
1.0302327877649629e-13
10
210.07908340741241
20
1.4958149352070482
30
1.0270842430840866e-13
10
209.79042479586948
20
0.72097269043299261
30
1.0270842430840866e-13
10
209.72314731709366
20
0.30906480231311062
30
1.0261153253623767e-13
10
209.75026970862118
20
-0.51735438561891178
30
1.0261153253623767e-13
10
209.84441027407865
20
-0.92396466756116657
30
1.0274711202563482e-13
10
210.18325236409635
20
-1.6782128603576889
30
1.0274711202563482e-13
10
210.42471437359282
20
-2.0186397473917985
30
1.0309486111549059e-13
10
211.02453797661445
20
-2.5877758853786048
30
1.0309486111549059e-13
10
211.37716492956559
20
-2.8110438846489978
30
1.0360270788692715e-13
10
212.14815251074003
20
-3.1098455713563156
30
1.0360270788692715e-13
10
212.55914207746667
20
-3.1825225518088232
30
1.0419460740796331e-13
10
213.38584602254028
20
-3.1662472483065391
30
1.0419460740796331e-13
10
213.79365666058393
20
-3.0774505651239559
30
1.0478192869510459e-13
10
214.55228639175331
20
-2.7485353339620677
30
1.0478192869510459e-13
10
214.89585257116389
20
-2.5115613948653133
30
1.0527672630920707e-13
10
215.47281093757476
20
-1.9192579745367944
30
1.0527672630920707e-13
10
215.70068708812559
20
-1.5695912368336669
30
1.0560490929798917e-13
10
216.00698581104092
20
-0.80903359068418257
30
1.0560490929798917e-13
10
216.08499997707955
20
-0.4063585145835994
30
1.0571358995100261e-13
10
216.08499999999998
20
-5.5511151231257827e-16
30
1.0567553925011602e-13
0
SPLINE
5
109
100
AcDbEntity
8
0
100
AcDbSpline
70
0
71
3
72
43
73
39
74
0
42
0.000000001
43
0.0000000001
44
0.0000000001
40
-1.250720426472385
40
-1.250720426472385
40
-1.250720426472385
40
-1.250720426472385
40
-1.2402962030034987
40
-1.2402962030034987
40
-1.1162665827031488
40
-1.1162665827031488
40
-0.99223696240280146
40
-0.99223696240280146
40
-0.86820734210244854
40
-0.86820734210244854
40
-0.74417772180209918
40
-0.74417772180209918
40
-0.62014810150174893
40
-0.62014810150174893
40
-0.49611848120139851
40
-0.49611848120139851
40
-0.3720888609010482
40
-0.3720888609010482
40
-0.24805924060069881
40
-0.24805924060069881
40
-0.12402962030034911
40
-0.12402962030034911
40
-0
40
-0
40
-0
40
0.070224516587352515
40
0.070224516587352515
40
0.14044903317469903
40
0.14044903317469903
40
0.2644786534750514
40
0.2644786534750514
40
0.38850827377539954
40
0.38850827377539954
40
0.51253789407575079
40
0.51253789407575079
40
0.63656751437609937
40
0.63656751437609937
40
0.75017291120756302
40
0.75017291120756302
40
0.75017291120756302
40
0.75017291120756302
10
-209.72500000000002
20
2.7755575615628914e-13
30
6.6794437260520083e-13
10
-209.72499999636173
20
-0.034696558995845603
30
6.6816107683355061e-13
10
-209.72443125469601
20
-0.069416077528643913
30
6.6816553379806224e-13
10
-209.70973029148311
20
-0.51735438498201702
30
6.6816553379806214e-13
10
-209.61558972610763
20
-0.9239646669432483
30
6.672826375480648e-13
10
-209.27674763624194
20
-1.6782128598080626
30
6.672826375480648e-13
10
-209.03528562681413
20
-2.018639746890853
30
6.6501808876624745e-13
10
-208.43546202390718
20
-2.5877758849985684
30
6.6501808876624745e-13
10
-208.08283507100103
20
-2.8110438843400236
30
6.6171098079289908e-13
10
-207.31184748988679
20
-3.1098455712027517
30
6.6171098079289908e-13
10
-206.90085792317487
20
-3.1825225517381024
30
6.5785651969219648e-13
10
-206.07415397809791
20
-3.1662472484024535
30
6.5785651969219648e-13
10
-205.66634334003638
20
-3.0774505653020694
30
6.5403187213864248e-13
10
-204.90771360880069
20
-2.7485353342930905
30
6.5403187213864248e-13
10
-204.56414742934237
20
-2.5115613952655957
30
6.5080974052874845e-13
10
-203.98718906281204
20
-1.9192579750533634
30
6.5080974052874845e-13
10
-203.75931291219075
20
-1.569591237396168
30
6.4867260657331826e-13
10
-203.45041960666657
20
-0.80259109130312478
30
6.4867260657331826e-13
10
-203.37235564012443
20
-0.39259062231130409
30
6.4794048452746997e-13
10
-203.37778105267222
20
0.4342557135958463
30
6.4794048452746997e-13
10
-203.46121856186119
20
0.84319647887383908
30
6.4872300228353225e-13
10
-203.78015029167162
20
1.6060771052004841
30
6.4872300228353225e-13
10
-204.01259535112479
20
1.9527234116593957
30
6.5090298569985313e-13
10
-204.3049359697327
20
2.2450640302672937
30
6.5090298569985313e-13
10
-204.47045674268094
20
2.4105848032155071
30
6.5090298569985313e-13
10
-204.65377595173138
20
2.557294197256609
30
6.5264445958954117e-13
10
-205.04932099773504
20
2.8077360603724295
30
6.5264445958954117e-13
10
-205.26033651980993
20
2.9107022108794887
30
6.5464903960009131e-13
10
-205.87002626614137
20
3.1287676161451317
30
6.5464903960009131e-13
10
-206.2827815411726
20
3.1906340075035318
30
6.5852006037671536e-13
10
-207.10877365469941
20
3.1526691988519939
30
6.5852006037671536e-13
10
-207.51411355838914
20
3.0532009631051791
30
6.6232153617532066e-13
10
-208.26385032414595
20
2.7044903662244719
30
6.6232153617532066e-13
10
-208.60107929409429
20
2.4585818684587188
30
6.654842343359939e-13
10
-209.16229519310477
20
1.8513413782060906
30
6.654842343359939e-13
10
-209.38091659228607
20
1.4958149357776642
30
6.6753457270751811e-13
10
-209.65744486823442
20
0.75353398042352981
30
6.6753457270751811e-13
10
-209.72499956787698
20
0.37813045405289675
30
6.6806393094569985e-13
10
-209.72500000000002
20
2.7755575615628914e-13
30
6.6794437260520083e-13
0
SPLINE
5
110
100
AcDbEntity
8
0
100
AcDbSpline
70
0
71
3
72
43
73
39
74
0
42
0.000000001
43
0.0000000001
44
0.0000000001
40
-0.25014284073809667
40
-0.25014284073809667
40
-0.25014284073809667
40
-0.25014284073809667
40
-0.24805924060069875
40
-0.24805924060069875
40
-0.12402962030034907
40
-0.12402962030034907
40
-0
40
-0
40
-0
40
0.07022451658735096
40
0.07022451658735096
40
0.14044903317470259
40
0.14044903317470259
40
0.26447865347505206
40
0.26447865347505206
40
0.3885082737754002
40
0.3885082737754002
40
0.51253789407574923
40
0.51253789407574923
40
0.63656751437610049
40
0.63656751437610049
40
0.76059713467644974
40
0.76059713467644974
40
0.88462675497679921
40
0.88462675497679921
40
1.0086563752771478
40
1.0086563752771478
40
1.1326859955774984
40
1.1326859955774984
40
1.2567156158778503
40
1.2567156158778503
40
1.380745236178198
40
1.380745236178198
40
1.5047748564785484
40
1.5047748564785484
40
1.6288044767788985
40
1.6288044767788985
40
1.7507504969418495
40
1.7507504969418495
40
1.7507504969418495
40
1.7507504969418495
10
203.36500000000004
20
3.4694469519536142e-17
30
4.967915236048131e-14
10
203.3649999999933
20
0.006943143008195673
30
1.4946784358690995e-12
10
203.36497722493499
20
0.013887361359149128
30
1.4946789125149854e-12
10
203.36221894732776
20
0.43425571359584664
30
1.4946789125149854e-12
10
203.27878143813879
20
0.84319647887383975
30
1.4928736987403404e-12
10
202.95984970832836
20
1.6060771052004841
30
1.4928736987403404e-12
10
202.72740464887519
20
1.9527234116593957
30
1.4878446293535417e-12
10
202.43506403026728
20
2.2450640302672937
30
1.4878446293535417e-12
10
202.26954325731907
20
2.4105848032155035
30
1.4878446293535417e-12
10
202.08622404826866
20
2.5572941972566188
30
1.4838271707981363e-12
10
201.69067900226497
20
2.8077360603724442
30
1.4838271707981363e-12
10
201.47966348019008
20
2.9107022108794922
30
1.4792027448098593e-12
10
200.86997373385859
20
3.1287676161451334
30
1.4792027448098593e-12
10
200.45721845882738
20
3.1906340075035327
30
1.4702725704160383e-12
10
199.6312263453006
20
3.1526691988519899
30
1.4702725704160383e-12
10
199.22588644161084
20
3.0532009631051737
30
1.4615028314261479e-12
10
198.47614967585403
20
2.7044903662244653
30
1.4615028314261479e-12
10
198.13892070590572
20
2.4585818684587042
30
1.4542067078040834e-12
10
197.57770480689527
20
1.851341378206071
30
1.4542067078040834e-12
10
197.35908340771388
20
1.4958149357776622
30
1.4494767204749987e-12
10
197.07042479601478
20
0.72097269106178463
30
1.4494767204749987e-12
10
197.00314731715594
20
0.30906480295546246
30
1.4480211373357146e-12
10
197.03026970851687
20
-0.51735438498202624
30
1.4480211373357146e-12
10
197.12441027389235
20
-0.92396466694325663
30
1.4500579172806168e-12
10
197.46325236375807
20
-1.6782128598080734
30
1.4500579172806168e-12
10
197.70471437318591
20
-2.0186397468908548
30
1.4552820730555129e-12
10
198.3045379760928
20
-2.587775884998567
30
1.4552820730555129e-12
10
198.65716492899895
20
-2.8110438843400316
30
1.4629113400229076e-12
10
199.42815251011322
20
-3.1098455712027571
30
1.4629113400229076e-12
10
199.83914207682517
20
-3.1825225517381033
30
1.4718033124017006e-12
10
200.66584602190207
20
-3.1662472484024518
30
1.4718033124017006e-12
10
201.07365665996366
20
-3.0774505653020645
30
1.48062650701083e-12
10
201.83228639119932
20
-2.7485353342930874
30
1.48062650701083e-12
10
202.17585257065767
20
-2.5115613952655931
30
1.4880597394465626e-12
10
202.75281093718792
20
-1.9192579750533603
30
1.4880597394465626e-12
10
202.98068708780926
20
-1.5695912373961649
30
1.4929899581217498e-12
10
203.28698581095756
20
-0.8090335911104819
30
1.4929899581217498e-12
10
203.36499997707946
20
-0.4063585148007845
30
1.4946226429481961e-12
10
203.36500000000004
20
-1.0755285551056204e-15
30
4.967915236048131e-14
0
SPLINE
5
111
100
AcDbEntity
8
0
100
AcDbSpline
70
0
71
3
72
43
73
39
74
0
42
0.000000001
43
0.0000000001
44
0.0000000001
40
-1.2507204264723846
40
-1.2507204264723846
40
-1.2507204264723846
40
-1.2507204264723846
40
-1.2402962030034979
40
-1.2402962030034979
40
-1.1162665827031482
40
-1.1162665827031482
40
-0.99223696240280101
40
-0.99223696240280101
40
-0.86820734210244821
40
-0.86820734210244821
40
-0.74417772180209896
40
-0.74417772180209896
40
-0.62014810150174882
40
-0.62014810150174882
40
-0.49611848120139845
40
-0.49611848120139845
40
-0.3720888609010482
40
-0.3720888609010482
40
-0.24805924060069884
40
-0.24805924060069884
40
-0.12402962030034911
40
-0.12402962030034911
40
-0
40
-0
40
-0
40
0.070224516587352293
40
0.070224516587352293
40
0.14044903317470148
40
0.14044903317470148
40
0.26447865347505117
40
0.26447865347505117
40
0.38850827377539909
40
0.38850827377539909
40
0.51253789407575012
40
0.51253789407575012
40
0.6365675143761016
40
0.6365675143761016
40
0.75017291120756391
40
0.75017291120756391
40
0.75017291120756391
40
0.75017291120756391
10
-197.00500000000005
20
2.7672308888782027e-13
30
6.7565412094727697e-13
10
-197.00499999636168
20
-0.034696558995846678
30
6.7588748501571088e-13
10
-197.00443125469599
20
-0.069416077528646508
30
6.7589228462381826e-13
10
-196.98973029148308
20
-0.51735438498202069
30
6.7589228462381826e-13
10
-196.89558972610763
20
-0.92396466694325197
30
6.7494151286235581e-13
10
-196.55674763624191
20
-1.6782128598080654
30
6.7494151286235581e-13
10
-196.3152856268141
20
-2.0186397468908552
30
6.7250286955153393e-13
10
-195.71546202390718
20
-2.5877758849985701
30
6.7250286955153393e-13
10
-195.36283507100103
20
-2.8110438843400249
30
6.6894151693147699e-13
10
-194.59184748988676
20
-3.1098455712027522
30
6.6894151693147699e-13
10
-194.18085792317484
20
-3.1825225517381019
30
6.6479073163794544e-13
10
-193.35415397809788
20
-3.1662472484024522
30
6.6479073163794544e-13
10
-192.94634334003635
20
-3.0774505653020694
30
6.6067205190465184e-13
10
-192.18771360880066
20
-2.7485353342930905
30
6.6067205190465184e-13
10
-191.84414742934234
20
-2.5115613952655957
30
6.5720220848147321e-13
10
-191.26718906281207
20
-1.9192579750533634
30
6.5720220848147321e-13
10
-191.03931291219072
20
-1.569591237396168
30
6.5490077542488064e-13
10
-190.73041960666654
20
-0.80259109130312478
30
6.5490077542488064e-13
10
-190.6523556401244
20
-0.39259062231130404
30
6.5411236912330391e-13
10
-190.65778105267219
20
0.43425571359584642
30
6.5411236912330391e-13
10
-190.74121856186116
20
0.84319647887383897
30
6.5495504546869455e-13
10
-191.06015029167162
20
1.6060771052004841
30
6.5495504546869455e-13
10
-191.29259535112479
20
1.9527234116593957
30
6.5730262217739635e-13
10
-191.5849359697327
20
2.2450640302672937
30
6.5730262217739635e-13
10
-191.75045674268091
20
2.4105848032155075
30
6.5730262217739635e-13
10
-191.93377595173135
20
2.5572941972566103
30
6.5917797751800894e-13
10
-192.32932099773504
20
2.8077360603724353
30
6.5917797751800894e-13
10
-192.5403365198099
20
2.9107022108794887
30
6.6133666611548416e-13
10
-193.15002626614137
20
3.1287676161451303
30
6.6133666611548416e-13
10
-193.5627815411726
20
3.1906340075035318
30
6.6550528416370802e-13
10
-194.38877365469938
20
3.1526691988519921
30
6.6550528416370802e-13
10
-194.79411355838914
20
3.0532009631051773
30
6.6959901073827133e-13
10
-195.54385032414592
20
2.7044903662244693
30
6.6959901073827133e-13
10
-195.88107929409429
20
2.4585818684587171
30
6.7300485157314408e-13
10
-196.44229519310474
20
1.8513413782060812
30
6.7300485157314408e-13
10
-196.66091659228613
20
1.4958149357776707
30
6.7521281635393678e-13
10
-196.93744486823445
20
0.7535339804235307
30
6.7521281635393678e-13
10
-197.00499956787695
20
0.37813045405289436
30
6.7578287072279629e-13
10
-197.00500000000005
20
2.7672308888782027e-13
30
6.7565412094727697e-13
0
SPLINE
5
112
100
AcDbEntity
8
0
100
AcDbSpline
70
0
71
3
72
43
73
39
74
0
42
0.000000001
43
0.0000000001
44
0.0000000001
40
-0.7504304356845739
40
-0.7504304356845739
40
-0.7504304356845739
40
-0.7504304356845739
40
-0.74417772180209818
40
-0.74417772180209818
40
-0.62014810150174826
40
-0.62014810150174826
40
-0.49611848120139879
40
-0.49611848120139879
40
-0.37208886090105009
40
-0.37208886090105009
40
-0.24805924060069834
40
-0.24805924060069834
40
-0.12402962030034873
40
-0.12402962030034873
40
-0
40
-0
40
-0
40
0.070224516587351626
40
0.070224516587351626
40
0.1404490331747017
40
0.1404490331747017
40
0.26447865347505117
40
0.26447865347505117
40
0.38850827377540065
40
0.38850827377540065
40
0.51253789407575012
40
0.51253789407575012
40
0.6365675143760996
40
0.6365675143760996
40
0.76059713467644907
40
0.76059713467644907
40
0.88462675497680077
40
0.88462675497680077
40
1.0086563752771491
40
1.0086563752771491
40
1.1326859955774986
40
1.1326859955774986
40
1.2504629019953728
40
1.2504629019953728
40
1.2504629019953728
40
1.2504629019953728
10
190.64500000000004
20
-5.6343818499726694e-14
30
-1.179572543130966e-16
10
190.64499999949385
20
0.020823369831255434
30
-1.3547239694956754e-12
10
190.64479514407032
20
0.041655707596713019
30
-1.3547278332247025e-12
10
190.6362472484025
20
0.47584602190208874
30
-1.3547278332247025e-12
10
190.54745056530211
20
0.88365665996365417
30
-1.3528703699136223e-12
10
190.21853533429311
20
1.6422863911993257
30
-1.3528703699136223e-12
10
189.98156139526566
20
1.9858525706576733
30
-1.347913310910325e-12
10
189.3892579750534
20
2.5628109371879528
30
-1.347913310910325e-12
10
189.03959123739622
20
2.79068708780926
30
-1.3405989258046441e-12
10
188.27259109130318
20
3.0995803933334312
30
-1.3405989258046441e-12
10
187.86259062231136
20
3.1776443598756248
30
-1.3320224699947239e-12
10
187.0357442864042
20
3.1722189473278024
30
-1.3320224699947239e-12
10
186.62680352112619
20
3.0887814381388186
30
-1.3234681812376745e-12
10
185.86392289479957
20
2.7698497083284108
30
-1.3234681812376745e-12
10
185.51727658834068
20
2.5374046488751913
30
-1.3162169779980114e-12
10
185.22493596973277
20
2.2450640302672937
30
-1.3162169779980114e-12
10
185.05941519678456
20
2.0795432573190817
30
-1.3162169779980114e-12
10
184.91270580274343
20
1.8962240482686721
30
-1.313108430221022e-12
10
184.66226393962759
20
1.5006790022649865
30
-1.313108430221022e-12
10
184.55929778912054
20
1.2896634801900975
30
-1.3109267349018102e-12
10
184.3412323838549
20
0.67997373385863635
30
-1.3109267349018102e-12
10
184.27936599249651
20
0.26721845882741285
30
-1.3096326037684746e-12
10
184.31733080114807
20
-0.55877365469937212
30
-1.3096326037684746e-12
10
184.41679903689487
20
-0.96411355838913648
30
-1.3117132963356587e-12
10
184.76550963377559
20
-1.713850324145954
30
-1.3117132963356587e-12
10
185.01141813154135
20
-2.051079294094265
30
-1.3168572498768777e-12
10
185.61865862179394
20
-2.6122951931047442
30
-1.3168572498768777e-12
10
185.97418506422235
20
-2.8309165922860773
30
-1.3242942092302249e-12
10
186.74902730893825
20
-3.1195752039851947
30
-1.3242942092302249e-12
10
187.16093519704458
20
-3.1868526828440382
30
-1.3329105647402278e-12
10
187.98735438498204
20
-3.1597302914831236
30
-1.3329105647402278e-12
10
188.3939646669433
20
-3.065589726107623
30
-1.3414161040721091e-12
10
189.14821285980815
20
-2.7267476362419334
30
-1.3414161040721091e-12
10
189.4886397468909
20
-2.4852856268140662
30
-1.3485372084960955e-12
10
190.05777588499859
20
-1.885462023907154
30
-1.3485372084960955e-12
10
190.28104388434005
20
-1.5328350710010132
30
-1.3532075644467361e-12
10
190.57231381608244
20
-0.78128141518613126
30
-1.3532075644467361e-12
10
190.64499982040192
20
-0.39223161750619767
30
-1.3545784141222562e-12
10
190.64500000000004
20
-5.6343818499726694e-14
30
-1.179572543130966e-16
0
SPLINE
5
113
100
AcDbEntity
8
0
100
AcDbSpline
70
0
71
3
72
43
73
39
74
0
42
0.000000001
43
0.0000000001
44
0.0000000001
40
-1.7510126277298603
40
-1.7510126277298603
40
-1.7510126277298603
40
-1.7510126277298603
40
-1.7364146842048984
40
-1.7364146842048984
40
-1.6123850639045487
40
-1.6123850639045487
40
-1.4883554436041988
40
-1.4883554436041988
40
-1.3643258233038513
40
-1.3643258233038513
40
-1.2402962030034992
40
-1.2402962030034992
40
-1.1162665827031502
40
-1.1162665827031502
40
-0.99223696240279957
40
-0.99223696240279957
40
-0.86820734210244965
40
-0.86820734210244965
40
-0.74417772180209996
40
-0.74417772180209996
40
-0.62014810150175004
40
-0.62014810150175004
40
-0.49611848120140056
40
-0.49611848120140056
40
-0.3720888609010497
40
-0.3720888609010497
40
-0.24805924060070053
40
-0.24805924060070053
40
-0.12402962030035095
40
-0.12402962030035095
40
-0
40
-0
40
-0
40
0.070224516587349406
40
0.070224516587349406
40
0.14044903317469792
40
0.14044903317469792
40
0.24988070995008593
40
0.24988070995008593
40
0.24988070995008593
40
0.24988070995008593
10
-184.285
20
6.7376659806939188e-13
30
-6.3180733004306229e-13
10
-184.28499998701696
20
-0.048563944455608445
30
-6.3200923188102593e-13
10
-184.28388577970466
20
-0.097169103464529366
30
-6.3201788415079503e-13
10
-184.26266919885197
20
-0.55877365469935947
30
-6.3201788415079503e-13
10
-184.16320096310517
20
-0.96411355838912371
30
-6.3101366811454955e-13
10
-183.81449036622445
20
-1.7138503241459442
30
-6.3101366811454955e-13
10
-183.56858186845869
20
-2.0510792940942566
30
-6.2853101367666435e-13
10
-182.9613413782061
20
-2.6122951931047345
30
-6.2853101367666435e-13
10
-182.60581493577769
20
-2.8309165922860764
30
-6.2494167329965454e-13
10
-181.83097269106182
20
-3.1195752039851961
30
-6.2494167329965454e-13
10
-181.41906480295546
20
-3.1868526828440387
30
-6.207831145036051e-13
10
-180.592645615018
20
-3.1597302914831249
30
-6.207831145036051e-13
10
-180.18603533305676
20
-3.0655897261076208
30
-6.1667803952582866e-13
10
-179.43178714019194
20
-2.7267476362419325
30
-6.1667803952582866e-13
10
-179.09136025310914
20
-2.4852856268140728
30
-6.1324114194127838e-13
10
-178.52222411500145
20
-1.8854620239071544
30
-6.1324114194127838e-13
10
-178.29895611565999
20
-1.532835071001013
30
-6.1098706249937621e-13
10
-178.00015442879723
20
-0.76184748988677276
30
-6.1098706249937621e-13
10
-177.9274774482619
20
-0.35085792317482267
30
-6.1025332686235065e-13
10
-177.94375275159754
20
0.47584602190208963
30
-6.1025332686235065e-13
10
-178.03254943469793
20
0.88365665996365528
30
-6.1114980454153454e-13
10
-178.36146466570693
20
1.6422863911993268
30
-6.1114980454153454e-13
10
-178.59843860473438
20
1.985852570657674
30
-6.135422570461656e-13
10
-179.19074202494664
20
2.5628109371879582
30
-6.135422570461656e-13
10
-179.54040876260382
20
2.7906870878092565
30
-6.1707243874347481e-13
10
-180.30740890869686
20
3.0995803933334272
30
-6.1707243874347481e-13
10
-180.71740937768868
20
3.1776443598756248
30
-6.2121174052899972e-13
10
-181.54425571359585
20
3.1722189473278024
30
-6.2121174052899972e-13
10
-181.95319647887385
20
3.0887814381388186
30
-6.2534034370853155e-13
10
-182.71607710520047
20
2.7698497083284082
30
-6.2534034370853155e-13
10
-183.06272341165939
20
2.5374046488751967
30
-6.2884003159620476e-13
10
-183.3550640302673
20
2.2450640302672937
30
-6.2884003159620476e-13
10
-183.52058480321551
20
2.079543257319088
30
-6.2884003159620476e-13
10
-183.66729419725661
20
1.8962240482686743
30
-6.3034032701529844e-13
10
-183.91773606037245
20
1.5006790022650014
30
-6.3034032701529844e-13
10
-184.02070221087945
20
1.2896634801901061
30
-6.3139329056229622e-13
10
-184.222380287042
20
0.72579111838024779
30
-6.3139329056229622e-13
10
-184.28499927040855
20
0.36405359861675413
30
-6.3187951054224762e-13
10
-184.285
20
6.7376659806939188e-13
30
-6.3180733004306229e-13
0
SPLINE
5
114
100
AcDbEntity
8
0
100
AcDbSpline
70
0
71
3
72
43
73
39
74
0
42
0.000000001
43
0.0000000001
44
0.0000000001
40
-0.75043043568457479
40
-0.75043043568457479
40
-0.75043043568457479
40
-0.75043043568457479
40
-0.74417772180209918
40
-0.74417772180209918
40
-0.62014810150174982
40
-0.62014810150174982
40
-0.49611848120139879
40
-0.49611848120139879
40
-0.37208886090105009
40
-0.37208886090105009
40
-0.24805924060070095
40
-0.24805924060070095
40
-0.12402962030034873
40
-0.12402962030034873
40
-0
40
-0
40
-0
40
0.070224516587350072
40
0.070224516587350072
40
0.14044903317470125
40
0.14044903317470125
40
0.26447865347505073
40
0.26447865347505073
40
0.38850827377540043
40
0.38850827377540043
40
0.5125378940757499
40
0.5125378940757499
40
0.63656751437609937
40
0.63656751437609937
40
0.76059713467644885
40
0.76059713467644885
40
0.88462675497680054
40
0.88462675497680054
40
1.0086563752771489
40
1.0086563752771489
40
1.1326859955774986
40
1.1326859955774986
40
1.2504629019953728
40
1.2504629019953728
40
1.2504629019953728
40
1.2504629019953728
10
177.92500000000004
20
-5.1694759584108851e-14
30
-4.367002433764839e-14
10
177.92499999949385
20
0.020823369831256121
30
-4.3688903930093125e-14
10
177.92479514407032
20
0.041655707596713332
30
-4.3689037440656582e-14
10
177.91624724840247
20
0.4758460219020868
30
-4.3689037440656589e-14
10
177.82745056530214
20
0.88365665996365594
30
-4.3624853081055942e-14
10
177.49853533429314
20
1.6422863911993304
30
-4.3624853081055942e-14
10
177.26156139526563
20
1.9858525706576695
30
-4.3453562668087162e-14
10
176.6692579750534
20
2.5628109371879528
30
-4.3453562668087162e-14
10
176.3195912373962
20
2.79068708780926
30
-4.3200815213491326e-14
10
175.55259109130319
20
3.0995803933334276
30
-4.3200815213491326e-14
10
175.14259062231136
20
3.1776443598756248
30
-4.2904457099433668e-14
10
174.3157442864042
20
3.1722189473278024
30
-4.2904457099433668e-14
10
173.90680352112616
20
3.0887814381388217
30
-4.260886496448541e-14
10
173.14392289479954
20
2.7698497083284108
30
-4.260886496448541e-14
10
172.79727658834065
20
2.5374046488751913
30
-4.2358300749571643e-14
10
172.50493596973274
20
2.2450640302672937
30
-4.2358300749571643e-14
10
172.33941519678453
20
2.0795432573190857
30
-4.2358300749571643e-14
10
172.19270580274343
20
1.8962240482686674
30
-4.2250885358288312e-14
10
171.94226393962762
20
1.5006790022649836
30
-4.2250885358288312e-14
10
171.83929778912051
20
1.289663480190101
30
-4.2175497211415088e-14
10
171.62123238385487
20
0.67997373385863624
30
-4.2175497211415088e-14
10
171.55936599249651
20
0.26721845882741302
30
-4.2130778708746998e-14
10
171.59733080114805
20
-0.55877365469937224
30
-4.2130778708746998e-14
10
171.69679903689484
20
-0.96411355838913637
30
-4.220267672102746e-14
10
172.04550963377557
20
-1.7138503241459537
30
-4.220267672102746e-14
10
172.29141813154132
20
-2.051079294094265
30
-4.2380425246066496e-14
10
172.89865862179394
20
-2.6122951931047442
30
-4.2380425246066496e-14
10
173.25418506422236
20
-2.8309165922860773
30
-4.2637408234975759e-14
10
174.02902730893825
20
-3.1195752039851947
30
-4.2637408234975759e-14
10
174.44093519704455
20
-3.1868526828440382
30
-4.2935145077045307e-14
10
175.26735438498204
20
-3.1597302914831236
30
-4.2935145077045307e-14
10
175.67396466694331
20
-3.065589726107623
30
-4.322905268308975e-14
10
176.42821285980813
20
-2.7267476362419334
30
-4.322905268308975e-14
10
176.76863974689087
20
-2.4852856268140662
30
-4.3475121353397495e-14
10
177.33777588499859
20
-1.885462023907154
30
-4.3475121353397495e-14
10
177.56104388434005
20
-1.5328350710010132
30
-4.3636504786389577e-14
10
177.85231381608241
20
-0.78128141518613092
30
-4.3636504786389577e-14
10
177.92499982040192
20
-0.39223161750619695
30
-4.368387428650684e-14
10
177.92500000000004
20
-5.1694759584108851e-14
30
-4.367002433764839e-14
0
SPLINE
5
115
100
AcDbEntity
8
0
100
AcDbSpline
70
0
71
3
72
43
73
39
74
0
42
0.000000001
43
0.0000000001
44
0.0000000001
40
-1.2507204264723832
40
-1.2507204264723832
40
-1.2507204264723832
40
-1.2507204264723832
40
-1.2402962030034959
40
-1.2402962030034959
40
-1.1162665827031462
40
-1.1162665827031462
40
-0.99223696240279757
40
-0.99223696240279757
40
-0.8682073421024471
40
-0.8682073421024471
40
-0.74417772180209518
40
-0.74417772180209518
40
-0.62014810150174748
40
-0.62014810150174748
40
-0.49611848120139701
40
-0.49611848120139701
40
-0.37208886090104809
40
-0.37208886090104809
40
-0.24805924060069837
40
-0.24805924060069837
40
-0.12402962030034882
40
-0.12402962030034882
40
-0
40
-0
40
-0
40
0.070224516587350738
40
0.070224516587350738
40
0.14044903317470236
40
0.14044903317470236
40
0.26447865347505206
40
0.26447865347505206
40
0.38850827377540287
40
0.38850827377540287
40
0.51253789407575212
40
0.51253789407575212
40
0.63656751437610093
40
0.63656751437610093
40
0.75017291120756346
40
0.75017291120756346
40
0.75017291120756346
40
0.75017291120756346
10
-171.56500000000005
20
2.7824964554667986e-13
30
-5.4615665210364192e-13
10
-171.56499999636173
20
-0.034696558995849433
30
-5.4637327212715447e-13
10
-171.56443125469605
20
-0.069416077528651407
30
-5.4637772735982203e-13
10
-171.54973029148312
20
-0.51735438498202746
30
-5.4637772735982203e-13
10
-171.45558972610763
20
-0.92396466694325874
30
-5.4549517417712633e-13
10
-171.11674763624194
20
-1.6782128598080757
30
-5.4549517417712633e-13
10
-170.8752856268141
20
-2.0186397468908575
30
-5.4323150533181353e-13
10
-170.27546202390721
20
-2.5877758849985688
30
-5.4323150533181353e-13
10
-169.92283507100103
20
-2.8110438843400316
30
-5.3992568240255626e-13
10
-169.15184748988679
20
-3.1098455712027571
30
-5.3992568240255626e-13
10
-168.74085792317484
20
-3.1825225517381028
30
-5.3607271903113873e-13
10
-167.91415397809794
20
-3.1662472484024518
30
-5.3607271903113873e-13
10
-167.50634334003635
20
-3.0774505653020641
30
-5.3224955762220966e-13
10
-166.74771360880069
20
-2.7485353342930869
30
-5.3224955762220966e-13
10
-166.40414742934234
20
-2.5115613952655922
30
-5.2902867803711162e-13
10
-165.82718906281207
20
-1.9192579750533623
30
-5.2902867803711162e-13
10
-165.59931291219078
20
-1.5695912373961585
30
-5.2689237450856288e-13
10
-165.2904196066666
20
-0.80259109130311812
30
-5.2689237450856288e-13
10
-165.21235564012443
20
-0.39259062231130115
30
-5.2616053694363153e-13
10
-165.21778105267225
20
0.43425571359584997
30
-5.2616053694363153e-13
10
-165.30121856186122
20
0.84319647887384264
30
-5.2694275063649826e-13
10
-165.62015029167162
20
1.6060771052004856
30
-5.2694275063649826e-13
10
-165.85259535112482
20
1.9527234116593961
30
-5.2912188697590783e-13
10
-166.14493596973273
20
2.2450640302672937
30
-5.2912188697590783e-13
10
-166.31045674268094
20
2.4105848032155031
30
-5.2912188697590783e-13
10
-166.49377595173135
20
2.5572941972566161
30
-5.3086268418048327e-13
10
-166.88932099773501
20
2.8077360603724415
30
-5.3086268418048327e-13
10
-167.10033651980993
20
2.9107022108794878
30
-5.3286648527068415e-13
10
-167.71002626614143
20
3.1287676161451312
30
-5.3286648527068415e-13
10
-168.12278154117263
20
3.1906340075035318
30
-5.3673600188342402e-13
10
-168.94877365469941
20
3.1526691988519913
30
-5.3673600188342402e-13
10
-169.3541135583892
20
3.05320096310518
30
-5.4053600054126132e-13
10
-170.10385032414601
20
2.7044903662244693
30
-5.4053600054126132e-13
10
-170.44107929409432
20
2.4585818684587069
30
-5.4369746977121459e-13
10
-171.00229519310477
20
1.8513413782060806
30
-5.4369746977121459e-13
10
-171.22091659228607
20
1.4958149357776547
30
-5.4574701144204757e-13
10
-171.49744486823442
20
0.75353398042352193
30
-5.4574701144204757e-13
10
-171.56499956787698
20
0.37813045405289286
30
-5.4627616398731525e-13
10
-171.56500000000005
20
2.7824964554667986e-13
30
-5.4615665210364192e-13
0
SPLINE
5
116
100
AcDbEntity
8
0
100
AcDbSpline
70
0
71
3
72
43
73
39
74
0
42
0.000000001
43
0.0000000001
44
0.0000000001
40
-0.25014284073809812
40
-0.25014284073809812
40
-0.25014284073809812
40
-0.25014284073809812
40
-0.24805924060069989
40
-0.24805924060069989
40
-0.12402962030035052
40
-0.12402962030035052
40
-0
40
-0
40
-0
40
0.070224516587348962
40
0.070224516587348962
40
0.14044903317470059
40
0.14044903317470059
40
0.26447865347505006
40
0.26447865347505006
40
0.38850827377540087
40
0.38850827377540087
40
0.5125378940757499
40
0.5125378940757499
40
0.63656751437609915
40
0.63656751437609915
40
0.76059713467644885
40
0.76059713467644885
40
0.88462675497679832
40
0.88462675497679832
40
1.0086563752771485
40
1.0086563752771485
40
1.1326859955774977
40
1.1326859955774977
40
1.2567156158778472
40
1.2567156158778472
40
1.3807452361781973
40
1.3807452361781973
40
1.5047748564785477
40
1.5047748564785477
40
1.6288044767788965
40
1.6288044767788965
40
1.7507504969418481
40
1.7507504969418481
40
1.7507504969418481
40
1.7507504969418481
10
165.20500000000001
20
-3.8163916471489756e-15
30
-8.0987432875657086e-14
10
165.20499999999333
20
0.0069431430081964389
30
-8.1029303146432566e-14
10
165.20497722493502
20
0.013887361359150897
30
-8.1029334954938722e-14
10
165.20221894732782
20
0.43425571359584836
30
-8.1029334954938722e-14
10
165.11878143813885
20
0.84319647887384053
30
-8.0908865744684191e-14
10
164.79984970832842
20
1.6060771052004887
30
-8.0908865744684191e-14
10
164.5674046488752
20
1.9527234116593921
30
-8.0573255621466393e-14
10
164.27506403026729
20
2.2450640302672937
30
-8.0573255621466393e-14
10
164.10954325731907
20
2.4105848032154986
30
-8.0573255621466393e-14
10
163.92622404826869
20
2.5572941972566228
30
-8.0305154377060987e-14
10
163.53067900226503
20
2.8077360603724442
30
-8.0305154377060987e-14
10
163.31966348019012
20
2.9107022108794922
30
-7.9996547743036212e-14
10
162.70997373385865
20
3.1287676161451339
30
-7.9996547743036212e-14
10
162.29721845882744
20
3.1906340075035327
30
-7.9400601117894436e-14
10
161.47122634530064
20
3.1526691988519899
30
-7.9400601117894436e-14
10
161.06588644161087
20
3.0532009631051777
30
-7.8815360995594528e-14
10
160.31614967585404
20
2.7044903662244653
30
-7.8815360995594528e-14
10
159.97892070590575
20
2.4585818684587042
30
-7.8328461181835567e-14
10
159.41770480689527
20
1.8513413782060764
30
-7.8328461181835567e-14
10
159.19908340771394
20
1.495814935777656
30
-7.8012810012953411e-14
10
158.91042479601484
20
0.72097269106178319
30
-7.8012810012953411e-14
10
158.84314731715597
20
0.3090648029554639
30
-7.7915673067893308e-14
10
158.8702697085169
20
-0.51735438498202602
30
-7.7915673067893308e-14
10
158.96441027389238
20
-0.92396466694325674
30
-7.8051595624474134e-14
10
159.30325236375811
20
-1.6782128598080781
30
-7.8051595624474134e-14
10
159.54471437318597
20
-2.0186397468908512
30
-7.8400224650735762e-14
10
160.14453797609289
20
-2.5877758849985639
30
-7.8400224650735762e-14
10
160.49716492899901
20
-2.8110438843400298
30
-7.8909356466198434e-14
10
161.26815251011325
20
-3.1098455712027526
30
-7.8909356466198434e-14
10
161.67914207682517
20
-3.1825225517381028
30
-7.9502753716498725e-14
10
162.50584602190213
20
-3.1662472484024518
30
-7.9502753716498725e-14
10
162.91365665996366
20
-3.0774505653020681
30
-8.0091561148290634e-14
10
163.67228639119935
20
-2.7485353342930874
30
-8.0091561148290634e-14
10
164.01585257065773
20
-2.5115613952655935
30
-8.058761078725784e-14
10
164.59281093718798
20
-1.9192579750533636
30
-8.058761078725784e-14
10
164.82068708780926
20
-1.5695912373961605
30
-8.0916624203022883e-14
10
165.12698581095759
20
-0.80903359111048045
30
-8.0916624203022883e-14
10
165.20499997707952
20
-0.406358514800786
30
-8.1025579859355211e-14
10
165.20500000000001
20
-3.8163916471489756e-15
30
-8.0987432875657086e-14
0
SPLINE
5
117
100
AcDbEntity
8
0
100
AcDbSpline
70
0
71
3
72
43
73
39
74
0
42
0.000000001
43
0.0000000001
44
0.0000000001
40
-1.2507204264723841
40
-1.2507204264723841
40
-1.2507204264723841
40
-1.2507204264723841
40
-1.2402962030034979
40
-1.2402962030034979
40
-1.1162665827031479
40
-1.1162665827031479
40
-0.99223696240279746
40
-0.99223696240279746
40
-0.86820734210244799
40
-0.86820734210244799
40
-0.74417772180209862
40
-0.74417772180209862
40
-0.6201481015017497
40
-0.6201481015017497
40
-0.49611848120139934
40
-0.49611848120139934
40
-0.37208886090104903
40
-0.37208886090104903
40
-0.2480592406006995
40
-0.2480592406006995
40
-0.12402962030034979
40
-0.12402962030034979
40
-0
40
-0
40
-0
40
0.070224516587350072
40
0.070224516587350072
40
0.1404490331746977
40
0.1404490331746977
40
0.2644786534750474
40
0.2644786534750474
40
0.38850827377539821
40
0.38850827377539821
40
0.51253789407574835
40
0.51253789407574835
40
0.63656751437609849
40
0.63656751437609849
40
0.75017291120756213
40
0.75017291120756213
40
0.75017291120756213
40
0.75017291120756213
10
-158.84500000000003
20
2.8033131371785203e-13
30
9.7319235987034428e-14
10
-158.84499999636174
20
-0.034696558995845637
30
9.7360927689663368e-14
10
-158.84443125469605
20
-0.069416077528643955
30
9.7361785164574991e-14
10
-158.82973029148314
20
-0.51735438498201702
30
9.7361785164574991e-14
10
-158.73558972610763
20
-0.9239646669432483
30
9.7191924852261638e-14
10
-158.39674763624194
20
-1.6782128598080723
30
9.7191924852261638e-14
10
-158.15528562681408
20
-2.0186397468908459
30
9.6756248561497702e-14
10
-157.55546202390715
20
-2.5877758849985604
30
9.6756248561497702e-14
10
-157.20283507100103
20
-2.8110438843400276
30
9.6119994422680722e-14
10
-156.43184748988679
20
-3.1098455712027517
30
9.6119994422680722e-14
10
-156.02085792317484
20
-3.1825225517381024
30
9.5378435075966047e-14
10
-155.19415397809792
20
-3.1662472484024535
30
9.5378435075966047e-14
10
-154.78634334003635
20
-3.0774505653020681
30
9.4642611554304252e-14
10
-154.0277136088007
20
-2.7485353342930905
30
9.4642611554304252e-14
10
-153.68414742934235
20
-2.5115613952655962
30
9.4022706008694729e-14
10
-153.10718906281207
20
-1.9192579750533643
30
9.4022706008694729e-14
10
-152.87931291219076
20
-1.5695912373961682
30
9.3611543042348601e-14
10
-152.57041960666658
20
-0.80259109130312423
30
9.3611543042348601e-14
10
-152.4923556401244
20
-0.3925906223113047
30
9.3470690162568424e-14
10
-152.49778105267222
20
0.43425571359584642
30
9.3470690162568424e-14
10
-152.58121856186119
20
0.84319647887383897
30
9.3621238667487146e-14
10
-152.90015029167159
20
1.6060771052004861
30
9.3621238667487146e-14
10
-153.13259535112482
20
1.9527234116593939
30
9.4040645436895479e-14
10
-153.42493596973273
20
2.2450640302672937
30
9.4040645436895479e-14
10
-153.59045674268091
20
2.4105848032155022
30
9.4040645436895479e-14
10
-153.77377595173135
20
2.5572941972566126
30
9.4375687406763149e-14
10
-154.16932099773501
20
2.8077360603724317
30
9.4375687406763149e-14
10
-154.3803365198099
20
2.9107022108794873
30
9.476134833425049e-14
10
-154.99002626614134
20
3.128767616145129
30
9.476134833425049e-14
10
-155.40278154117257
20
3.1906340075035313
30
9.5506093595192162e-14
10
-156.22877365469935
20
3.1526691988519935
30
9.5506093595192162e-14
10
-156.63411355838912
20
3.0532009631051826
30
9.6237459105471042e-14
10
-157.38385032414595
20
2.7044903662244737
30
9.6237459105471042e-14
10
-157.72107929409427
20
2.4585818684587162
30
9.6845930256329736e-14
10
-158.28229519310474
20
1.8513413782060866
30
9.6845930256329736e-14
10
-158.50091659228607
20
1.4958149357776689
30
9.724039462984605e-14
10
-158.77744486823443
20
0.75353398042352981
30
9.724039462984605e-14
10
-158.84499956787698
20
0.37813045405289669
30
9.7342237802997418e-14
10
-158.84500000000003
20
2.8033131371785203e-13
30
9.7319235987034428e-14
0
SPLINE
5
118
100
AcDbEntity
8
0
100
AcDbSpline
70
0
71
3
72
43
73
39
74
0
42
0.000000001
43
0.0000000001
44
0.0000000001
40
-0.75043043568457535
40
-0.75043043568457535
40
-0.75043043568457535
40
-0.75043043568457535
40
-0.74417772180209973
40
-0.74417772180209973
40
-0.62014810150174982
40
-0.62014810150174982
40
-0.49611848120139967
40
-0.49611848120139967
40
-0.37208886090104987
40
-0.37208886090104987
40
-0.24805924060070073
40
-0.24805924060070073
40
-0.12402962030034981
40
-0.12402962030034981
40
-0
40
-0
40
-0
40
0.070224516587349628
40
0.070224516587349628
40
0.14044903317470014
40
0.14044903317470014
40
0.2644786534750494
40
0.2644786534750494
40
0.38850827377539954
40
0.38850827377539954
40
0.51253789407574812
40
0.51253789407574812
40
0.63656751437609871
40
0.63656751437609871
40
0.76059713467644818
40
0.76059713467644818
40
0.88462675497679855
40
0.88462675497679855
40
1.0086563752771478
40
1.0086563752771478
40
1.1326859955774975
40
1.1326859955774975
40
1.2504629019953719
40
1.2504629019953719
40
1.2504629019953719
40
1.2504629019953719
10
152.48500000000001
20
-5.2527426852577719e-14
30
-1.1208114976213378e-13
10
152.48499999949382
20
0.020823369831255923
30
-1.1213769335574873e-13
10
152.48479514407032
20
0.041655707596713158
30
-1.1213809321432967e-13
10
152.47624724840247
20
0.47584602190208858
30
-1.1213809321432967e-13
10
152.38745056530209
20
0.88365665996365439
30
-1.1194586372863928e-13
10
152.05853533429311
20
1.6422863911993282
30
-1.1194586372863928e-13
10
151.8215613952656
20
1.9858525706576713
30
-1.1143285607079937e-13
10
151.22925797505337
20
2.5628109371879546
30
-1.1143285607079937e-13
10
150.87959123739617
20
2.7906870878092587
30
-1.106758879634784e-13
10
150.11259109130313
20
3.0995803933334276
30
-1.106758879634784e-13
10
149.70259062231133
20
3.1776443598756248
30
-1.0978830774611809e-13
10
148.87574428640417
20
3.1722189473278024
30
-1.0978830774611809e-13
10
148.46680352112617
20
3.0887814381388203
30
-1.0890302160431082e-13
10
147.70392289479952
20
2.7698497083284095
30
-1.0890302160431082e-13
10
147.3572765883406
20
2.537404648875194
30
-1.0815259220897253e-13
10
147.06493596973272
20
2.2450640302672937
30
-1.0815259220897253e-13
10
146.8994151967845
20
2.0795432573190871
30
-1.0815259220897253e-13
10
146.75270580274341
20
1.896224048268671
30
-1.0783088758264146e-13
10
146.50226393962757
20
1.5006790022649905
30
-1.0783088758264146e-13
10
146.39929778912051
20
1.2896634801901043
30
-1.0760510322036443e-13
10
146.18123238385488
20
0.6799737338586419
30
-1.0760510322036443e-13
10
146.11936599249648
20
0.2672184588274184
30
-1.0747117316603008e-13
10
146.15733080114802
20
-0.55877365469936857
30
-1.0747117316603008e-13
10
146.25679903689482
20
-0.96411355838913471
30
-1.0768650472045902e-13
10
146.60550963377554
20
-1.7138503241459515
30
-1.0768650472045902e-13
10
146.85141813154129
20
-2.0510792940942673
30
-1.0821885415516672e-13
10
147.45865862179392
20
-2.6122951931047473
30
-1.0821885415516672e-13
10
147.81418506422233
20
-2.8309165922860764
30
-1.0898850751147605e-13
10
148.5890273089382
20
-3.1195752039851947
30
-1.0898850751147605e-13
10
149.00093519704453
20
-3.1868526828440382
30
-1.0988021696185018e-13
10
149.82735438498202
20
-3.1597302914831236
30
-1.0988021696185018e-13
10
150.23396466694325
20
-3.0655897261076213
30
-1.1076045800969956e-13
10
150.98821285980807
20
-2.7267476362419316
30
-1.1076045800969956e-13
10
151.32863974689084
20
-2.4852856268140688
30
-1.1149742343604461e-13
10
151.89777588499857
20
-1.8854620239071538
30
-1.1149742343604461e-13
10
152.12104388434003
20
-1.5328350710010132
30
-1.1198076010117671e-13
10
152.41231381608236
20
-0.78128141518613048
30
-1.1198076010117671e-13
10
152.48499982040187
20
-0.39223161750619751
30
-1.1212262978253845e-13
10
152.48500000000001
20
-5.1417203827952562e-14
30
-1.1208114976213378e-13
0
SPLINE
5
119
100
AcDbEntity
8
0
100
AcDbSpline
70
0
71
3
72
43
73
39
74
0
42
0.000000001
43
0.0000000001
44
0.0000000001
40
-1.751012627729859
40
-1.751012627729859
40
-1.751012627729859
40
-1.751012627729859
40
-1.7364146842048969
40
-1.7364146842048969
40
-1.6123850639045474
40
-1.6123850639045474
40
-1.4883554436041977
40
-1.4883554436041977
40
-1.3643258233038469
40
-1.3643258233038469
40
-1.2402962030034987
40
-1.2402962030034987
40
-1.1162665827031486
40
-1.1162665827031486
40
-0.99223696240279813
40
-0.99223696240279813
40
-0.86820734210244821
40
-0.86820734210244821
40
-0.74417772180209851
40
-0.74417772180209851
40
-0.62014810150174893
40
-0.62014810150174893
40
-0.49611848120139945
40
-0.49611848120139945
40
-0.37208886090104859
40
-0.37208886090104859
40
-0.2480592406006995
40
-0.2480592406006995
40
-0.12402962030034857
40
-0.12402962030034857
40
-0
40
-0
40
-0
40
0.07022451658734985
40
0.07022451658734985
40
0.14044903317469903
40
0.14044903317469903
40
0.24988070995008682
40
0.24988070995008682
40
0.24988070995008682
40
0.24988070995008682
10
-146.12500000000003
20
6.7001959536128197e-13
30
1.2530096849071436e-13
10
-146.12499998701693
20
-0.048563944455609909
30
-3.9376795635465029e-13
10
-146.12388577970464
20
-0.0971691034645316
30
-3.9377475490123255e-13
10
-146.10266919885197
20
-0.5587736546993618
30
-3.937747549012326e-13
10
-146.0032009631052
20
-0.96411355838912849
30
-3.9298568917820977e-13
10
-145.65449036622448
20
-1.7138503241459473
30
-3.9298568917820977e-13
10
-145.40858186845873
20
-2.0510792940942588
30
-3.9103493610482749e-13
10
-144.80134137820608
20
-2.6122951931047438
30
-3.9103493610482749e-13
10
-144.44581493577766
20
-2.8309165922860737
30
-3.8821460127891786e-13
10
-143.67097269106179
20
-3.1195752039851921
30
-3.8821460127891786e-13
10
-143.25906480295546
20
-3.1868526828440382
30
-3.8494700139532538e-13
10
-142.43264561501798
20
-3.1597302914831236
30
-3.8494700139532538e-13
10
-142.02603533305674
20
-3.0655897261076221
30
-3.8172142658025624e-13
10
-141.27178714019192
20
-2.7267476362419316
30
-3.8172142658025624e-13
10
-140.93136025310915
20
-2.4852856268140715
30
-3.7902087412976201e-13
10
-140.36222411500142
20
-1.8854620239071527
30
-3.7902087412976201e-13
10
-140.13895611565997
20
-1.5328350710010108
30
-3.7724972453606984e-13
10
-139.84015442879723
20
-0.76184748988676987
30
-3.7724972453606984e-13
10
-139.7674774482619
20
-0.35085792317481984
30
-3.7667318958737308e-13
10
-139.78375275159755
20
0.47584602190209158
30
-3.7667318958737308e-13
10
-139.87254943469793
20
0.88365665996365728
30
-3.7737759957742242e-13
10
-140.20146466570691
20
1.642286391199328
30
-3.7737759957742242e-13
10
-140.43843860473439
20
1.9858525706576746
30
-3.7925747621474679e-13
10
-141.03074202494662
20
2.5628109371879586
30
-3.7925747621474679e-13
10
-141.38040876260385
20
2.7906870878092587
30
-3.8203132693296841e-13
10
-142.14740890869689
20
3.0995803933334281
30
-3.8203132693296841e-13
10
-142.55740937768869
20
3.1776443598756252
30
-3.8528379556353929e-13
10
-143.38425571359585
20
3.172218947327802
30
-3.8528379556353929e-13
10
-143.79319647887382
20
3.088781438138819
30
-3.8852785773278263e-13
10
-144.55607710520047
20
2.7698497083284095
30
-3.8852785773278263e-13
10
-144.90272341165939
20
2.5374046488751913
30
-3.9127774784981896e-13
10
-145.19506403026728
20
2.2450640302672937
30
-3.9127774784981896e-13
10
-145.36058480321549
20
2.0795432573190862
30
-3.9127774784981896e-13
10
-145.50729419725661
20
1.8962240482686767
30
-3.9245660941634104e-13
10
-145.75773606037242
20
1.5006790022649994
30
-3.9245660941634104e-13
10
-145.86070221087948
20
1.2896634801901072
30
-3.9328397864023314e-13
10
-146.062380287042
20
0.72579111838024735
30
-3.9328397864023314e-13
10
-146.12499927040852
20
0.36405359861675302
30
-3.9366602742872174e-13
10
-146.12500000000003
20
6.7001959536128197e-13
30
1.2530096849071436e-13
0
SPLINE
5
120
100
AcDbEntity
8
0
100
AcDbSpline
70
0
71
3
72
43
73
39
74
0
42
0.000000001
43
0.0000000001
44
0.0000000001
40
-0.7504304356845749
40
-0.7504304356845749
40
-0.7504304356845749
40
-0.7504304356845749
40
-0.74417772180209896
40
-0.74417772180209896
40
-0.62014810150174915
40
-0.62014810150174915
40
-0.49611848120139967
40
-0.49611848120139967
40
-0.37208886090104992
40
-0.37208886090104992
40
-0.24805924060069962
40
-0.24805924060069962
40
-0.12402962030034871
40
-0.12402962030034871
40
-0
40
-0
40
-0
40
0.07022451658735096
40
0.07022451658735096
40
0.14044903317470103
40
0.14044903317470103
40
0.26447865347505051
40
0.26447865347505051
40
0.38850827377539976
40
0.38850827377539976
40
0.51253789407574923
40
0.51253789407574923
40
0.63656751437609982
40
0.63656751437609982
40
0.76059713467644952
40
0.76059713467644952
40
0.88462675497679832
40
0.88462675497679832
40
1.0086563752771487
40
1.0086563752771487
40
1.1326859955774984
40
1.1326859955774984
40
1.2504629019953724
40
1.2504629019953724
40
1.2504629019953724
40
1.2504629019953724
10
139.76500000000001
20
-5.4123372450476381e-14
30
-1.3694020810328386e-13
10
139.7649999994938
20
0.020823369831256631
30
3.5952532664989787e-13
10
139.76479514407029
20
0.041655707596714997
30
3.5952672531354428e-13
10
139.75624724840247
20
0.47584602190209113
30
3.5952672531354428e-13
10
139.66745056530209
20
0.88365665996365728
30
3.5885432660501736e-13
10
139.33853533429311
20
1.6422863911993282
30
3.5885432660501736e-13
10
139.10156139526561
20
1.9858525706576748
30
3.5705987927891082e-13
10
138.50925797505337
20
2.5628109371879564
30
3.5705987927891082e-13
10
138.1595912373962
20
2.79068708780926
30
3.5441208372387052e-13
10
137.39259109130313
20
3.0995803933334298
30
3.5441208372387052e-13
10
136.98259062231133
20
3.1776443598756248
30
3.5130742061912528e-13
10
136.15574428640417
20
3.1722189473278024
30
3.5130742061912528e-13
10
135.74680352112617
20
3.0887814381388203
30
3.4821078195159672e-13
10
134.98392289479952
20
2.7698497083284108
30
3.4821078195159672e-13
10
134.63727658834063
20
2.5374046488751913
30
3.4558585812966649e-13
10
134.34493596973272
20
2.2450640302672937
30
3.4558585812966649e-13
10
134.17941519678453
20
2.079543257319084
30
3.4558585812966649e-13
10
134.03270580274341
20
1.8962240482686696
30
3.4446056887190635e-13
10
133.78226393962757
20
1.5006790022649867
30
3.4446056887190635e-13
10
133.67929778912051
20
1.2896634801900975
30
3.4367079870186513e-13
10
133.46123238385488
20
0.67997373385863624
30
3.4367079870186513e-13
10
133.39936599249648
20
0.26721845882741296
30
3.4320232532878225e-13
10
133.43733080114805
20
-0.55877365469937113
30
3.4320232532878225e-13
10
133.53679903689482
20
-0.96411355838913748
30
3.4395553266626798e-13
10
133.88550963377554
20
-1.7138503241459537
30
3.4395553266626798e-13
10
134.1314181315413
20
-2.051079294094265
30
3.4581763551223312e-13
10
134.73865862179392
20
-2.6122951931047473
30
3.4581763551223312e-13
10
135.09418506422236
20
-2.8309165922860764
30
3.4850980274629273e-13
10
135.86902730893823
20
-3.1195752039851947
30
3.4850980274629273e-13
10
136.28093519704456
20
-3.1868526828440387
30
3.5162890947780911e-13
10
137.10735438498202
20
-3.1597302914831231
30
3.5162890947780911e-13
10
137.51396466694325
20
-3.0655897261076195
30
3.5470790093242694e-13
10
138.26821285980807
20
-2.7267476362419298
30
3.5470790093242694e-13
10
138.60863974689087
20
-2.4852856268140702
30
3.5728572919391187e-13
10
139.17777588499857
20
-1.8854620239071518
30
3.5728572919391187e-13
10
139.40104388434006
20
-1.532835071001011
30
3.5897639047956907e-13
10
139.69231381608239
20
-0.78128141518612937
30
3.5897639047956907e-13
10
139.7649998204019
20
-0.39223161750619656
30
3.5947263584059763e-13
10
139.76500000000001
20
-5.3013149425851225e-14
30
-1.3694020810328386e-13
0
SPLINE
5
121
100
AcDbEntity
8
0
100
AcDbSpline
70
0
71
3
72
43
73
39
74
0
42
0.000000001
43
0.0000000001
44
0.0000000001
40
-1.2507204264723841
40
-1.2507204264723841
40
-1.2507204264723841
40
-1.2507204264723841
40
-1.2402962030034979
40
-1.2402962030034979
40
-1.1162665827031479
40
-1.1162665827031479
40
-0.99223696240279757
40
-0.99223696240279757
40
-0.8682073421024481
40
-0.8682073421024481
40
-0.74417772180209885
40
-0.74417772180209885
40
-0.62014810150175004
40
-0.62014810150175004
40
-0.49611848120139956
40
-0.49611848120139956
40
-0.3720888609010492
40
-0.3720888609010492
40
-0.24805924060069959
40
-0.24805924060069959
40
-0.12402962030034984
40
-0.12402962030034984
40
-0
40
-0
40
-0
40
0.070224516587350294
40
0.070224516587350294
40
0.14044903317469815
40
0.14044903317469815
40
0.26447865347504784
40
0.26447865347504784
40
0.38850827377539865
40
0.38850827377539865
40
0.51253789407574879
40
0.51253789407574879
40
0.63656751437609893
40
0.63656751437609893
40
0.75017291120756258
40
0.75017291120756258
40
0.75017291120756258
40
0.75017291120756258
10
-133.40500000000003
20
2.7901292387610965e-13
30
1.470407424333159e-13
10
-133.40499999636177
20
-0.034696558995845242
30
1.4711575381611314e-13
10
-133.40443125469605
20
-0.069416077528643566
30
1.4711729657821635e-13
10
-133.38973029148315
20
-0.51735438498201691
30
1.4711729657821635e-13
10
-133.29558972610764
20
-0.92396466694324841
30
1.4681168524297305e-13
10
-132.95674763624194
20
-1.6782128598080723
30
1.4681168524297305e-13
10
-132.71528562681408
20
-2.0186397468908455
30
1.4602781989419979e-13
10
-132.11546202390716
20
-2.5877758849985604
30
1.4602781989419979e-13
10
-131.76283507100104
20
-2.8110438843400281
30
1.4488307646196562e-13
10
-130.99184748988679
20
-3.1098455712027517
30
1.4488307646196562e-13
10
-130.58085792317485
20
-3.1825225517381024
30
1.4354886872959325e-13
10
-129.75415397809795
20
-3.1662472484024535
30
1.4354886872959325e-13
10
-129.34634334003638
20
-3.0774505653020685
30
1.42224980848452e-13
10
-128.58771360880073
20
-2.7485353342930914
30
1.42224980848452e-13
10
-128.24414742934235
20
-2.5115613952655966
30
1.4110965167627322e-13
10
-127.66718906281207
20
-1.9192579750533643
30
1.4110965167627322e-13
10
-127.43931291219076
20
-1.5695912373961682
30
1.4036989050760275e-13
10
-127.13041960666659
20
-0.802591091303124
30
1.4036989050760275e-13
10
-127.05235564012442
20
-0.39259062231130487
30
1.4011646911636522e-13
10
-127.05778105267223
20
0.43425571359584642
30
1.4011646911636522e-13
10
-127.14121856186122
20
0.84319647887383897
30
1.4038733479994074e-13
10
-127.46015029167161
20
1.6060771052004861
30
1.4038733479994074e-13
10
-127.69259535112484
20
1.9527234116593939
30
1.4114192815411118e-13
10
-127.98493596973273
20
2.2450640302672937
30
1.4114192815411118e-13
10
-128.15045674268094
20
2.4105848032155022
30
1.4114192815411118e-13
10
-128.33377595173135
20
2.5572941972566126
30
1.4174473302582795e-13
10
-128.72932099773504
20
2.8077360603724317
30
1.4174473302582795e-13
10
-128.9403365198099
20
2.9107022108794873
30
1.4243861112716549e-13
10
-129.55002626614137
20
3.128767616145129
30
1.4243861112716549e-13
10
-129.96278154117257
20
3.1906340075035313
30
1.4377855093130681e-13
10
-130.78877365469938
20
3.1526691988519935
30
1.4377855093130681e-13
10
-131.19411355838912
20
3.0532009631051826
30
1.4509441799350159e-13
10
-131.94385032414596
20
2.7044903662244737
30
1.4509441799350159e-13
10
-132.28107929409427
20
2.4585818684587171
30
1.4618917449275927e-13
10
-132.84229519310477
20
1.8513413782060879
30
1.4618917449275927e-13
10
-133.06091659228611
20
1.4958149357776702
30
1.4689889168481206e-13
10
-133.33744486823446
20
0.75353398042353081
30
1.4689889168481206e-13
10
-133.40499956787698
20
0.3781304540528973
30
1.470821271193189e-13
10
-133.40500000000003
20
2.7901292387610965e-13
30
1.470407424333159e-13
0
SPLINE
5
122
100
AcDbEntity
8
0
100
AcDbSpline
70
0
71
3
72
43
73
39
74
0
42
0.000000001
43
0.0000000001
44
0.0000000001
40
-0.25014284073809773
40
-0.25014284073809773
40
-0.25014284073809773
40
-0.25014284073809773
40
-0.24805924060069978
40
-0.24805924060069978
40
-0.12402962030034984
40
-0.12402962030034984
40
-0
40
-0
40
-0
40
0.07022451658734985
40
0.07022451658734985
40
0.14044903317470014
40
0.14044903317470014
40
0.26447865347504962
40
0.26447865347504962
40
0.3885082737754002
40
0.3885082737754002
40
0.51253789407575034
40
0.51253789407575034
40
0.63656751437609937
40
0.63656751437609937
40
0.76059713467644907
40
0.76059713467644907
40
0.88462675497679855
40
0.88462675497679855
40
1.0086563752771487
40
1.0086563752771487
40
1.1326859955774977
40
1.1326859955774977
40
1.2567156158778472
40
1.2567156158778472
40
1.3807452361781971
40
1.3807452361781971
40
1.5047748564785464
40
1.5047748564785464
40
1.6288044767788969
40
1.6288044767788969
40
1.7507504969418486
40
1.7507504969418486
40
1.7507504969418486
40
1.7507504969418486
10
127.04500000000003
20
3.4694469519536142e-16
30
6.996624565493665e-14
10
127.04499999999334
20
0.0069431430081954961
30
7.0013290264455455e-14
10
127.04497722493502
20
0.013887361359149024
30
7.0013326003864917e-14
10
127.04221894732783
20
0.43425571359584747
30
7.0013326003864917e-14
10
126.95878143813883
20
0.84319647887383886
30
6.9877969177876062e-14
10
126.63984970832843
20
1.6060771052004865
30
6.9877969177876062e-14
10
126.4074046488752
20
1.9527234116593939
30
6.9500884270018656e-14
10
126.11506403026731
20
2.2450640302672937
30
6.9500884270018656e-14
10
125.94954325731911
20
2.4105848032155013
30
6.9500884270018656e-14
10
125.7662240482687
20
2.557294197256621
30
6.9199651005438424e-14
10
125.37067900226502
20
2.8077360603724424
30
6.9199651005438424e-14
10
125.15966348019012
20
2.9107022108794931
30
6.885290668485694e-14
10
124.54997373385865
20
3.1287676161451334
30
6.885290668485694e-14
10
124.13721845882745
20
3.1906340075035327
30
6.8183312823757338e-14
10
123.31122634530064
20
3.1526691988519899
30
6.8183312823757338e-14
10
122.90588644161087
20
3.0532009631051777
30
6.7525748577851959e-14
10
122.15614967585407
20
2.7044903662244639
30
6.7525748577851959e-14
10
121.81892070590575
20
2.4585818684587069
30
6.6978677560903114e-14
10
121.25770480689526
20
1.8513413782060764
30
6.6978677560903114e-14
10
121.03908340771395
20
1.4958149357776556
30
6.662401814004955e-14
10
120.75042479601481
20
0.72097269106178308
30
6.662401814004955e-14
10
120.68314731715597
20
0.30906480295546401
30
6.6514876986539797e-14
10
120.71026970851689
20
-0.51735438498202624
30
6.6514876986539797e-14
10
120.80441027389239
20
-0.92396466694325663
30
6.6667596887336014e-14
10
121.14325236375808
20
-1.6782128598080781
30
6.6667596887336014e-14
10
121.38471437318594
20
-2.0186397468908512
30
6.7059309577596469e-14
10
121.98453797609288
20
-2.5877758849985639
30
6.7059309577596469e-14
10
122.33716492899902
20
-2.8110438843400298
30
6.7631360032690843e-14
10
123.10815251011323
20
-3.1098455712027526
30
6.7631360032690843e-14
10
123.51914207682519
20
-3.1825225517381024
30
6.8298089466555709e-14
10
124.3458460219021
20
-3.1662472484024522
30
6.8298089466555709e-14
10
124.75365665996367
20
-3.077450565302069
30
6.8959661870970125e-14
10
125.51228639119934
20
-2.7485353342930918
30
6.8959661870970125e-14
10
125.85585257065767
20
-2.5115613952655935
30
6.951701345086053e-14
10
126.43281093718797
20
-1.9192579750533634
30
6.951701345086053e-14
10
126.66068708780928
20
-1.569591237396166
30
6.9886686428475401e-14
10
126.96698581095758
20
-0.80903359111048023
30
6.9886686428475401e-14
10
127.04499997707956
20
-0.40635851480078611
30
7.0009106852611285e-14
10
127.04500000000003
20
9.0205620750793969e-16
30
6.996624565493665e-14
0
SPLINE
5
123
100
AcDbEntity
8
0
100
AcDbSpline
70
0
71
3
72
43
73
39
74
0
42
0.000000001
43
0.0000000001
44
0.0000000001
40
-1.2507204264723839
40
-1.2507204264723839
40
-1.2507204264723839
40
-1.2507204264723839
40
-1.2402962030034979
40
-1.2402962030034979
40
-1.1162665827031479
40
-1.1162665827031479
40
-0.99223696240279835
40
-0.99223696240279835
40
-0.86820734210244777
40
-0.86820734210244777
40
-0.7441777218020984
40
-0.7441777218020984
40
-0.62014810150174937
40
-0.62014810150174937
40
-0.49611848120139895
40
-0.49611848120139895
40
-0.37208886090104942
40
-0.37208886090104942
40
-0.24805924060069956
40
-0.24805924060069956
40
-0.12402962030034986
40
-0.12402962030034986
40
-0
40
-0
40
-0
40
0.070224516587350072
40
0.070224516587350072
40
0.14044903317469903
40
0.14044903317469903
40
0.26447865347504873
40
0.26447865347504873
40
0.38850827377539821
40
0.38850827377539821
40
0.51253789407574812
40
0.51253789407574812
40
0.63656751437609804
40
0.63656751437609804
40
0.75017291120756191
40
0.75017291120756191
40
0.75017291120756191
40
0.75017291120756191
10
-120.68500000000002
20
2.8012314690073481e-13
30
-5.169828797417274e-14
10
-120.68499999636174
20
-0.034696558995845533
30
-2.6610154789688545e-13
10
-120.68443125469602
20
-0.06941607752864308
30
-2.6610463255516973e-13
10
-120.66973029148313
20
-0.51735438498201569
30
-2.6610463255516973e-13
10
-120.57558972610762
20
-0.92396466694324686
30
-2.6549358141833404e-13
10
-120.23674763624194
20
-1.6782128598080686
30
-2.6549358141833404e-13
10
-119.99528562681408
20
-2.0186397468908464
30
-2.639262906890399e-13
10
-119.39546202390716
20
-2.5877758849985621
30
-2.639262906890399e-13
10
-119.04283507100102
20
-2.8110438843400258
30
-2.6163744634661695e-13
10
-118.27184748988677
20
-3.1098455712027517
30
-2.6163744634661695e-13
10
-117.86085792317482
20
-3.1825225517381024
30
-2.5896977974651485e-13
10
-117.03415397809792
20
-3.1662472484024535
30
-2.5896977974651485e-13
10
-116.62634334003636
20
-3.0774505653020681
30
-2.5632274705654477e-13
10
-115.8677136088007
20
-2.7485353342930905
30
-2.5632274705654477e-13
10
-115.52414742934234
20
-2.5115613952655957
30
-2.5409271472458521e-13
10
-114.94718906281206
20
-1.9192579750533654
30
-2.5409271472458521e-13
10
-114.71931291219076
20
-1.5695912373961658
30
-2.52613607600685e-13
10
-114.41041960666659
20
-0.80259109130312323
30
-2.52613607600685e-13
10
-114.3323556401244
20
-0.39259062231130576
30
-2.5210690705866841e-13
10
-114.33778105267221
20
0.4342557135958463
30
-2.5210690705866841e-13
10
-114.4212185618612
20
0.84319647887383908
30
-2.5264848639422161e-13
10
-114.7401502916716
20
1.6060771052004863
30
-2.5264848639422161e-13
10
-114.97259535112482
20
1.9527234116593939
30
-2.5415724956410689e-13
10
-115.2649359697327
20
2.2450640302672937
30
-2.5415724956410689e-13
10
-115.43045674268092
20
2.4105848032155022
30
-2.5415724956410689e-13
10
-115.61377595173134
20
2.5572941972566126
30
-2.5536252096498412e-13
10
-116.00932099773502
20
2.807736060372434
30
-2.5536252096498412e-13
10
-116.2203365198099
20
2.910702210879486
30
-2.5674988770748463e-13
10
-116.83002626614137
20
3.128767616145129
30
-2.5674988770748463e-13
10
-117.24278154117258
20
3.1906340075035313
30
-2.5942901523382513e-13
10
-118.06877365469937
20
3.1526691988519939
30
-2.5942901523382513e-13
10
-118.47411355838913
20
3.0532009631051809
30
-2.620600107878307e-13
10
-119.22385032414594
20
2.7044903662244737
30
-2.620600107878307e-13
10
-119.56107929409426
20
2.4585818684587171
30
-2.6424890932098606e-13
10
-120.12229519310475
20
1.8513413782060884
30
-2.6424890932098606e-13
10
-120.34091659228608
20
1.4958149357776707
30
-2.6566794535474598e-13
10
-120.61744486823443
20
0.75353398042353137
30
-2.6566794535474598e-13
10
-120.68499956787697
20
0.37813045405289708
30
-2.6603431337730268e-13
10
-120.68500000000002
20
2.8012314690073481e-13
30
-5.169828797417274e-14
0
SPLINE
5
124
100
AcDbEntity
8
0
100
AcDbSpline
70
0
71
3
72
43
73
39
74
0
42
0.000000001
43
0.0000000001
44
0.0000000001
40
-0.75043043568457424
40
-0.75043043568457424
40
-0.75043043568457424
40
-0.75043043568457424
40
-0.74417772180209862
40
-0.74417772180209862
40
-0.62014810150174871
40
-0.62014810150174871
40
-0.49611848120139845
40
-0.49611848120139845
40
-0.3720888609010487
40
-0.3720888609010487
40
-0.24805924060069962
40
-0.24805924060069962
40
-0.12402962030034871
40
-0.12402962030034871
40
-0
40
-0
40
-0
40
0.07022451658735096
40
0.07022451658735096
40
0.14044903317470148
40
0.14044903317470148
40
0.26447865347505073
40
0.26447865347505073
40
0.3885082737754002
40
0.3885082737754002
40
0.51253789407574968
40
0.51253789407574968
40
0.63656751437610026
40
0.63656751437610026
40
0.76059713467644841
40
0.76059713467644841
40
0.88462675497679877
40
0.88462675497679877
40
1.0086563752771491
40
1.0086563752771491
40
1.1326859955774982
40
1.1326859955774982
40
1.2504629019953724
40
1.2504629019953724
40
1.2504629019953724
40
1.2504629019953724
10
114.32500000000002
20
-5.3845816694320092e-14
30
3.497804153984796e-14
10
114.32499999949383
20
0.02082336983125585
30
3.500158154057935e-14
10
114.32479514407032
20
0.041655707596713089
30
3.500174800809027e-14
10
114.31624724840246
20
0.47584602190208858
30
3.500174800809027e-14
10
114.22745056530206
20
0.88365665996365439
30
3.4921719804284181e-14
10
113.8985353342931
20
1.6422863911993282
30
3.4921719804284181e-14
10
113.66156139526559
20
1.9858525706576713
30
3.4708146526239729e-14
10
113.06925797505336
20
2.5628109371879546
30
3.4708146526239729e-14
10
112.71959123739617
20
2.7906870878092587
30
3.4393008618286515e-14
10
111.95259109130312
20
3.0995803933334276
30
3.4393008618286515e-14
10
111.54259062231132
20
3.1776443598756248
30
3.4023494803722355e-14
10
110.71574428640416
20
3.1722189473278024
30
3.4023494803722355e-14
10
110.30680352112617
20
3.0887814381388203
30
3.3654936049435479e-14
10
109.54392289479952
20
2.7698497083284108
30
3.3654936049435479e-14
10
109.19727658834061
20
2.5374046488751913
30
3.3342520311670159e-14
10
108.90493596973272
20
2.2450640302672937
30
3.3342520311670159e-14
10
108.73941519678452
20
2.079543257319084
30
3.3342520311670159e-14
10
108.5927058027434
20
1.8962240482686699
30
3.3208589539765313e-14
10
108.34226393962757
20
1.500679002264985
30
3.3208589539765313e-14
10
108.23929778912049
20
1.2896634801900995
30
3.311459190513794e-14
10
108.02123238385485
20
0.67997373385863635
30
3.311459190513794e-14
10
107.95936599249646
20
0.26721845882741285
30
3.3058834685346528e-14
10
107.99733080114802
20
-0.55877365469937224
30
3.3058834685346528e-14
10
108.09679903689482
20
-0.96411355838913637
30
3.3148480649189326e-14
10
108.44550963377554
20
-1.713850324145954
30
3.3148480649189326e-14
10
108.69141813154128
20
-2.051079294094265
30
3.3370106217732224e-14
10
109.29865862179392
20
-2.6122951931047473
30
3.3370106217732224e-14
10
109.65418506422236
20
-2.8309165922860764
30
3.3690525197357284e-14
10
110.42902730893822
20
-3.1195752039851934
30
3.3690525197357284e-14
10
110.84093519704453
20
-3.1868526828440382
30
3.4061758077547647e-14
10
111.66735438498202
20
-3.1597302914831236
30
3.4061758077547647e-14
10
112.07396466694325
20
-3.0655897261076213
30
3.4428216478675727e-14
10
112.82821285980808
20
-2.7267476362419307
30
3.4428216478675727e-14
10
113.16863974689086
20
-2.4852856268140715
30
3.4735026951199043e-14
10
113.73777588499857
20
-1.8854620239071558
30
3.4735026951199043e-14
10
113.96104388434003
20
-1.532835071001011
30
3.4936247721286551e-14
10
114.25231381608236
20
-0.78128141518613037
30
3.4936247721286551e-14
10
114.32499982040187
20
-0.39223161750619767
30
3.4995310334564361e-14
10
114.32500000000002
20
-5.4956039718945249e-14
30
3.497804153984796e-14
0
SPLINE
5
125
100
AcDbEntity
8
0
100
AcDbSpline
70
0
71
3
72
43
73
39
74
0
42
0.000000001
43
0.0000000001
44
0.0000000001
40
-1.2507204264723846
40
-1.2507204264723846
40
-1.2507204264723846
40
-1.2507204264723846
40
-1.2402962030034983
40
-1.2402962030034983
40
-1.1162665827031484
40
-1.1162665827031484
40
-0.99223696240279802
40
-0.99223696240279802
40
-0.86820734210244854
40
-0.86820734210244854
40
-0.74417772180209929
40
-0.74417772180209929
40
-0.62014810150174915
40
-0.62014810150174915
40
-0.49611848120139984
40
-0.49611848120139984
40
-0.37208886090104965
40
-0.37208886090104965
40
-0.24805924060069984
40
-0.24805924060069984
40
-0.12402962030034986
40
-0.12402962030034986
40
-0
40
-0
40
-0
40
0.070224516587349184
40
0.070224516587349184
40
0.14044903317469815
40
0.14044903317469815
40
0.26447865347504784
40
0.26447865347504784
40
0.38850827377539843
40
0.38850827377539843
40
0.51253789407574746
40
0.51253789407574746
40
0.63656751437609804
40
0.63656751437609804
40
0.75017291120756169
40
0.75017291120756169
40
0.75017291120756169
40
0.75017291120756169
10
-107.96500000000002
20
2.7887414599803151e-13
30
-1.9819783039015169e-14
10
-107.96499999636175
20
-0.034696558995845381
30
-1.9832277919078285e-14
10
-107.96443125469605
20
-0.069416077528643705
30
-1.9832534901775136e-14
10
-107.94973029148315
20
-0.51735438498201702
30
-1.9832534901775136e-14
10
-107.85558972610764
20
-0.9239646669432483
30
-1.9781628268176397e-14
10
-107.51674763624194
20
-1.6782128598080723
30
-1.9781628268176397e-14
10
-107.27528562681408
20
-2.0186397468908459
30
-1.9651057371422916e-14
10
-106.67546202390716
20
-2.5877758849985604
30
-1.9651057371422916e-14
10
-106.32283507100104
20
-2.8110438843400281
30
-1.946037388639146e-14
10
-105.5518474898868
20
-3.1098455712027517
30
-1.946037388639146e-14
10
-105.14085792317485
20
-3.1825225517381024
30
-1.9238130741769832e-14
10
-104.31415397809793
20
-3.1662472484024535
30
-1.9238130741769832e-14
10
-103.90634334003636
20
-3.0774505653020698
30
-1.9017606606965029e-14
10
-103.1477136088007
20
-2.7485353342930923
30
-1.9017606606965029e-14
10
-102.80414742934235
20
-2.5115613952655935
30
-1.883182274700156e-14
10
-102.22718906281207
20
-1.9192579750533634
30
-1.883182274700156e-14
10
-101.99931291219075
20
-1.569591237396168
30
-1.8708598421129939e-14
10
-101.69041960666659
20
-0.80259109130312323
30
-1.8708598421129939e-14
10
-101.61235564012441
20
-0.39259062231130576
30
-1.8666385229333432e-14
10
-101.6177810526722
20
0.43425571359584736
30
-1.8666385229333432e-14
10
-101.70121856186121
20
0.8431964788738382
30
-1.8711504171329719e-14
10
-102.0201502916716
20
1.6060771052004863
30
-1.8711504171329719e-14
10
-102.25259535112484
20
1.9527234116593939
30
-1.8837199140615521e-14
10
-102.54493596973273
20
2.2450640302672937
30
-1.8837199140615521e-14
10
-102.71045674268093
20
2.4105848032154995
30
-1.8837199140615521e-14
10
-102.89377595173134
20
2.5572941972566143
30
-1.8937610228808929e-14
10
-103.28932099773502
20
2.807736060372434
30
-1.8937610228808929e-14
10
-103.50033651980991
20
2.910702210879486
30
-1.9053191669002753e-14
10
-104.11002626614136
20
3.128767616145129
30
-1.9053191669002753e-14
10
-104.52278154117258
20
3.1906340075035313
30
-1.9276389622702623e-14
10
-105.34877365469937
20
3.1526691988519935
30
-1.9276389622702623e-14
10
-105.75411355838912
20
3.0532009631051826
30
-1.9495577704671082e-14
10
-106.50385032414596
20
2.7044903662244746
30
-1.9495577704671082e-14
10
-106.84107929409427
20
2.4585818684587135
30
-1.9677934710320696e-14
10
-107.40229519310475
20
1.8513413782060857
30
-1.9677934710320696e-14
10
-107.62091659228609
20
1.495814935777672
30
-1.9796154517271888e-14
10
-107.89744486823443
20
0.75353398042353092
30
-1.9796154517271888e-14
10
-107.96499956787699
20
0.37813045405289725
30
-1.9826676615280196e-14
10
-107.96500000000002
20
2.7887414599803151e-13
30
-1.9819783039015169e-14
0
SPLINE
5
126
100
AcDbEntity
8
0
100
AcDbSpline
70
0
71
3
72
43
73
39
74
0
42
0.000000001
43
0.0000000001
44
0.0000000001
40
-0.75043043568457479
40
-0.75043043568457479
40
-0.75043043568457479
40
-0.75043043568457479
40
-0.74417772180209907
40
-0.74417772180209907
40
-0.62014810150174926
40
-0.62014810150174926
40
-0.49611848120139979
40
-0.49611848120139979
40
-0.37208886090105009
40
-0.37208886090105009
40
-0.24805924060069964
40
-0.24805924060069964
40
-0.12402962030034873
40
-0.12402962030034873
40
-0
40
-0
40
-0
40
0.07022451658735096
40
0.07022451658735096
40
0.14044903317470081
40
0.14044903317470081
40
0.26447865347505006
40
0.26447865347505006
40
0.38850827377539909
40
0.38850827377539909
40
0.51253789407574857
40
0.51253789407574857
40
0.63656751437609915
40
0.63656751437609915
40
0.7605971346764473
40
0.7605971346764473
40
0.88462675497679899
40
0.88462675497679899
40
1.0086563752771482
40
1.0086563752771482
40
1.1326859955774979
40
1.1326859955774979
40
1.2504629019953719
40
1.2504629019953719
40
1.2504629019953719
40
1.2504629019953719
10
101.605
20
-5.6551985316843911e-14
30
6.2167329437118751e-15
10
101.6049999994938
20
0.020823369831255323
30
-1.6339143828914014e-14
10
101.60479514407029
20
0.04165570759671295
30
-1.6339231266426587e-14
10
101.59624724840245
20
0.47584602190208858
30
-1.6339231266426587e-14
10
101.50745056530207
20
0.88365665996365428
30
-1.6297196234858921e-14
10
101.1785353342931
20
1.642286391199326
30
-1.6297196234858921e-14
10
100.94156139526561
20
1.9858525706576731
30
-1.6185016290068932e-14
10
100.34925797505338
20
2.5628109371879546
30
-1.6185016290068932e-14
10
99.999591237396174
20
2.7906870878092587
30
-1.6019489247364336e-14
10
99.232591091303135
20
3.0995803933334294
30
-1.6019489247364336e-14
10
98.82259062231131
20
3.1776443598756248
30
-1.5825401111917361e-14
10
97.995744286404147
20
3.1722189473278024
30
-1.5825401111917361e-14
10
97.586803521126171
20
3.0887814381388203
30
-1.5631814624476906e-14
10
96.823922894799509
20
2.7698497083284108
30
-1.5631814624476906e-14
10
96.477276588340601
20
2.5374046488751913
30
-1.5467717409062422e-14
10
96.18493596973272
20
2.2450640302672937
30
-1.5467717409062422e-14
10
96.019415196784507
20
2.079543257319084
30
-1.5467717409062422e-14
10
95.872705802743383
20
1.8962240482686699
30
-1.5397369907092446e-14
10
95.622263939627572
20
1.5006790022649865
30
-1.5397369907092446e-14
10
95.519297789120515
20
1.2896634801900975
30
-1.534799739401666e-14
10
95.301232383854867
20
0.67997373385863646
30
-1.534799739401666e-14
10
95.239365992496488
20
0.2672184588274128
30
-1.5318710762771801e-14
10
95.277330801148025
20
-0.55877365469937113
30
-1.5318710762771801e-14
10
95.376799036894809
20
-0.96411355838913748
30
-1.5365797548940045e-14
10
95.72550963377553
20
-1.713850324145954
30
-1.5365797548940045e-14
10
95.97141813154127
20
-2.051079294094265
30
-1.5482206981200657e-14
10
96.57865862179392
20
-2.6122951931047473
30
-1.5482206981200657e-14
10
96.934185064222348
20
-2.8309165922860764
30
-1.5650507921154966e-14
10
97.709027308938218
20
-3.1195752039851934
30
-1.5650507921154966e-14
10
98.120935197044531
20
-3.1868526828440382
30
-1.5845499000494565e-14
10
98.94735438498202
20
-3.1597302914831236
30
-1.5845499000494565e-14
10
99.35396466694327
20
-3.065589726107623
30
-1.6037982271729555e-14
10
100.10821285980809
20
-2.7267476362419325
30
-1.6037982271729555e-14
10
100.44863974689086
20
-2.4852856268140688
30
-1.6199135306340432e-14
10
101.01777588499857
20
-1.885462023907154
30
-1.6199135306340432e-14
10
101.24104388434004
20
-1.5328350710010132
30
-1.6304827062751631e-14
10
101.53231381608238
20
-0.78128141518613137
30
-1.6304827062751631e-14
10
101.60499982040186
20
-0.39223161750619784
30
-1.6335849860909357e-14
10
101.605
20
-5.6551985316843911e-14
30
6.2167329437118751e-15
0
ARC
5
127
100
AcDbEntity
8
0
100
AcDbCircle
10
238.35000001982542
20
2.4349642913090719e-07
30
1.1819651331806249e-13
40
3.1749999801745781
210
-3.7227251066673772e-14
220
3.3185622050178295e-14
230
1
100
AcDbArc
50
180.00000435340849
51
359.99999564659151
0
ARC
5
128
100
AcDbEntity
8
0
100
AcDbCircle
10
225.63000001982545
20
2.4349642913090719e-07
30
1.1819651331806249e-13
40
3.1749999801745781
210
-3.7227251066673784e-14
220
3.3185622050178301e-14
230
1
100
AcDbArc
50
180.00000435340849
51
359.99999564659151
0
ARC
5
129
100
AcDbEntity
8
0
100
AcDbCircle
10
212.91000001982542
20
2.4349642913090719e-07
30
1.1819651331806249e-13
40
3.1749999801745781
210
-3.7227251066673784e-14
220
3.3185622050178301e-14
230
1
100
AcDbArc
50
180.00000435340849
51
359.99999564659151
0
ARC
5
130
100
AcDbEntity
8
0
100
AcDbCircle
10
200.19000001982545
20
2.4349642913090719e-07
30
1.1819651331806249e-13
40
3.1749999801745781
210
-3.7227251066673784e-14
220
3.3185622050178301e-14
230
1
100
AcDbArc
50
180.00000435340849
51
359.99999564659151
0
ARC
5
131
100
AcDbEntity
8
0
100
AcDbCircle
10
187.47000001982542
20
2.4349642913090719e-07
30
1.1819651331806249e-13
40
3.1749999801745781
210
-3.7227251066673784e-14
220
3.3185622050178301e-14
230
1
100
AcDbArc
50
180.00000435340849
51
359.99999564659151
0
ARC
5
132
100
AcDbEntity
8
0
100
AcDbCircle
10
174.75000001982545
20
2.4349642913090719e-07
30
1.1819651331806249e-13
40
3.1749999801745781
210
-3.7227251066673784e-14
220
3.3185622050178301e-14
230
1
100
AcDbArc
50
180.00000435340849
51
359.99999564659151
0
ARC
5
133
100
AcDbEntity
8
0
100
AcDbCircle
10
162.03000001982545
20
2.4349642913090719e-07
30
1.1819651331806249e-13
40
3.1749999801745958
210
-3.7227251066673582e-14
220
3.3185622050178295e-14
230
1
100
AcDbArc
50
180.00000435340849
51
359.99999564659151
0
ARC
5
134
100
AcDbEntity
8
0
100
AcDbCircle
10
149.31000001982542
20
2.4349642913090719e-07
30
1.1819651331806249e-13
40
3.1749999801745781
210
-3.7227251066673784e-14
220
3.3185622050178301e-14
230
1
100
AcDbArc
50
180.00000435340849
51
359.99999564659151
0
ARC
5
135
100
AcDbEntity
8
0
100
AcDbCircle
10
136.59000001982542
20
2.4349642913090719e-07
30
1.1819651331806249e-13
40
3.1749999801745781
210
-3.7227251066673784e-14
220
3.3185622050178301e-14
230
1
100
AcDbArc
50
180.00000435340849
51
359.99999564659151
0
ARC
5
136
100
AcDbEntity
8
0
100
AcDbCircle
10
123.87000001982543
20
2.4349642913090719e-07
30
1.1819651331806249e-13
40
3.1749999801745781
210
-3.7227251066673784e-14
220
3.3185622050178301e-14
230
1
100
AcDbArc
50
180.00000435340849
51
359.99999564659151
0
ARC
5
137
100
AcDbEntity
8
0
100
AcDbCircle
10
111.15000001982543
20
2.4349642913090719e-07
30
1.1819651331806249e-13
40
3.1749999801745781
210
-3.7227251066673784e-14
220
3.3185622050178301e-14
230
1
100
AcDbArc
50
180.00000435340849
51
359.99999564659151
0
ARC
5
138
100
AcDbEntity
8
0
100
AcDbCircle
10
98.430000019825428
20
2.4349642913090719e-07
30
1.1819651331806249e-13
40
3.1749999801745781
210
-3.7227251066673784e-14
220
3.3185622050178301e-14
230
1
100
AcDbArc
50
180.00000435340849
51
359.99999564659151
0
LINE
5
139
100
AcDbEntity
8
0
100
AcDbLine
10
262.36500000000001
20
0
30
0
11
287.76500000000004
21
0
31
0
0
CIRCLE
5
140
100
AcDbEntity
8
0
100
AcDbCircle
10
275.06500000000005
20
25.399999999999999
30
0
40
3.1749999999999901
210
0
220
-0
230
1
0
LINE
5
141
100
AcDbEntity
8
0
100
AcDbLine
10
275.06500000000005
20
25.399999999999999
30
0
11
275.06500000000005
21
0
31
0
0
LWPOLYLINE
5
142
100
AcDbEntity
8
0
100
AcDbPolyline
90
3
70
1
43
0.0
10
241.52500000000001
20
-1.5285051489669079e-15
10
247.875
20
-1.5285051489669079e-15
10
241.52500000000001
20
-6.3500000000000014
0
LINE
5
143
100
AcDbEntity
8
0
100
AcDbLine
10
247.875
20
-1.5285051489669079e-15
30
-2.2683760764655728e-11
11
247.875
21
-6.3500000000000014
31
-2.2683760764655728e-11
0
LINE
5
144
100
AcDbEntity
8
0
100
AcDbLine
10
247.875
20
-6.3500000000000014
30
-2.2683760764655728e-11
11
241.52500000000001
21
-6.3500000000000014
31
-2.2683760764655728e-11
0
LINE
5
145
100
AcDbEntity
8
0
100
AcDbLine
10
241.52500000000001
20
-1.5285051489669079e-15
30
2.3639304279728595e-13
11
247.875
21
-6.3500000000000014
31
-2.2683760764655728e-11
0
CIRCLE
5
146
100
AcDbEntity
8
0
100
AcDbCircle
10
244.69999999999999
20
-3.1750000000000016
30
-2.2683760764655728e-11
40
0.75000000000001266
210
0
220
0
230
1
0
CIRCLE
5
147
100
AcDbEntity
8
0
100
AcDbCircle
10
231.98166666666665
20
-3.1750000000000016
30
-2.2683760764655728e-11
40
0.75000000000001266
210
0
220
0
230
1
0
CIRCLE
5
148
100
AcDbEntity
8
0
100
AcDbCircle
10
219.26333333333332
20
-3.1750000000000016
30
-2.2683760764655728e-11
40
0.75000000000001266
210
0
220
0
230
1
0
CIRCLE
5
149
100
AcDbEntity
8
0
100
AcDbCircle
10
206.54499999999999
20
-3.1750000000000016
30
-2.2683760764655728e-11
40
0.75000000000001266
210
0
220
0
230
1
0
CIRCLE
5
150
100
AcDbEntity
8
0
100
AcDbCircle
10
193.82666666666665
20
-3.1750000000000016
30
-2.2683760764655728e-11
40
0.75000000000001266
210
0
220
0
230
1
0
CIRCLE
5
151
100
AcDbEntity
8
0
100
AcDbCircle
10
181.10833333333332
20
-3.1750000000000016
30
-2.2683760764655728e-11
40
0.75000000000001266
210
0
220
0
230
1
0
CIRCLE
5
152
100
AcDbEntity
8
0
100
AcDbCircle
10
168.38999999999999
20
-3.1750000000000016
30
-2.2683760764655728e-11
40
0.75000000000001266
210
0
220
0
230
1
0
CIRCLE
5
153
100
AcDbEntity
8
0
100
AcDbCircle
10
155.67166666666668
20
-3.1750000000000016
30
-2.2683760764655728e-11
40
0.75000000000001266
210
0
220
0
230
1
0
CIRCLE
5
154
100
AcDbEntity
8
0
100
AcDbCircle
10
142.95333333333335
20
-3.1750000000000016
30
-2.2683760764655728e-11
40
0.75000000000001266
210
0
220
0
230
1
0
CIRCLE
5
155
100
AcDbEntity
8
0
100
AcDbCircle
10
130.23500000000001
20
-3.1750000000000016
30
-2.2683760764655728e-11
40
0.75000000000001266
210
0
220
0
230
1
0
CIRCLE
5
156
100
AcDbEntity
8
0
100
AcDbCircle
10
117.51666666666667
20
-3.1750000000000016
30
-2.2683760764655728e-11
40
0.75000000000001266
210
0
220
0
230
1
0
CIRCLE
5
157
100
AcDbEntity
8
0
100
AcDbCircle
10
104.79833333333333
20
-3.1750000000000016
30
-2.2683760764655728e-11
40
0.75000000000001266
210
0
220
0
230
1
0
CIRCLE
5
158
100
AcDbEntity
8
0
100
AcDbCircle
10
92.080000000000013
20
-3.1750000000000016
30
-2.2683760764655728e-11
40
0.75000000000001266
210
0
220
0
230
1
0
LINE
5
159
100
AcDbEntity
8
0
100
AcDbLine
10
0
20
-12.699999999999999
30
0
11
0
21
-25.399999999999999
31
0
0
LINE
5
160
100
AcDbEntity
8
0
100
AcDbLine
10
82.550000000000011
20
-25.399999999999999
30
0
11
0
21
-25.399999999999999
31
0
0
LINE
5
161
100
AcDbEntity
8
0
100
AcDbLine
10
0
20
0
30
0
11
82.550000000000011
21
0
31
0
0
ENDSEC
0
SECTION
2
OBJECTS
0
DICTIONARY
5
C
100
AcDbDictionary
3
ACAD_GROUP
350
D
3
ACAD_MLINESTYLE
350
17
0
DICTIONARY
5
D
100
AcDbDictionary
0
DICTIONARY
5
1A
330
C
100
AcDbDictionary
0
DICTIONARY
5
17
100
AcDbDictionary
0
ENDSEC
0
EOF
