0
SECTION
2
HEADER
9
$INSUNITS
70
4
9
$ACADVER
1
AC1014
9
$HANDSEED
5
FFFF
0
ENDSEC
0
SECTION
2
TABLES
0
TABLE
2
VPORT
5
8
100
AcDbSymbolTable
0
ENDTAB
0
TABLE
2
LTYPE
5
5
100
AcDbSymbolTable
0
LTYPE
5
14
100
AcDbSymbolTableRecord
100
AcDbLinetypeTableRecord
2
BYBLOCK
70
0
0
LTYPE
5
15
100
AcDbSymbolTableRecord
100
AcDbLinetypeTableRecord
2
BYLAYER
70
0
0
ENDTAB
0
TABLE
2
LAYER
5
2
100
AcDbSymbolTable
70
2
0
LAYER
5
50
100
AcDbSymbolTableRecord
100
AcDbLayerTableRecord
2
0
70
0
6
CONTINUOUS
0
ENDTAB
0
TABLE
2
STYLE
5
3
100
AcDbSymbolTable
70
1
0
STYLE
5
11
100
AcDbSymbolTableRecord
100
AcDbTextStyleTableRecord
2
STANDARD
70
0
0
ENDTAB
0
TABLE
2
VIEW
5
6
100
AcDbSymbolTable
70
0
0
ENDTAB
0
TABLE
2
UCS
5
7
100
AcDbSymbolTable
70
0
0
ENDTAB
0
TABLE
2
APPID
5
9
100
AcDbSymbolTable
70
2
0
APPID
5
12
100
AcDbSymbolTableRecord
100
AcDbRegAppTableRecord
2
ACAD
70
0
0
ENDTAB
0
TABLE
2
DIMSTYLE
5
A
100
AcDbSymbolTable
70
1
0
ENDTAB
0
TABLE
2
BLOCK_RECORD
5
1
100
AcDbSymbolTable
70
1
0
BLOCK_RECORD
5
1F
100
AcDbSymbolTableRecord
100
AcDbBlockTableRecord
2
*MODEL_SPACE
0
BLOCK_RECORD
5
1B
100
AcDbSymbolTableRecord
100
AcDbBlockTableRecord
2
*PAPER_SPACE
0
ENDTAB
0
ENDSEC
0
SECTION
2
BLOCKS
0
BLOCK
5
20
100
AcDbEntity
100
AcDbBlockBegin
2
*MODEL_SPACE
0
ENDBLK
5
21
100
AcDbEntity
100
AcDbBlockEnd
0
BLOCK
5
1C
100
AcDbEntity
100
AcDbBlockBegin
2
*PAPER_SPACE
0
ENDBLK
5
1D
100
AcDbEntity
100
AcDbBlockEnd
0
ENDSEC
0
SECTION
2
ENTITIES
0
CIRCLE
5
100
100
AcDbEntity
8
0
100
AcDbCircle
10
-24.890024480894972
20
10.309785707785057
30
0
40
3.0000000000000027
210
0
220
-0
230
1
0
CIRCLE
5
101
100
AcDbEntity
8
0
100
AcDbCircle
10
17.182976179641752
20
41.483374134824956
30
0
40
2.9999999999999982
210
0
220
-0
230
1
0
CIRCLE
5
102
100
AcDbEntity
8
0
100
AcDbCircle
10
-41.483374134824956
20
17.182976179641763
30
0
40
2.9999999999999982
210
0
220
-0
230
1
0
CIRCLE
5
103
100
AcDbEntity
8
0
100
AcDbCircle
10
24.890024480894976
20
-10.309785707785062
30
0
40
2.9999999999999982
210
0
220
-0
230
1
0
CIRCLE
5
104
100
AcDbEntity
8
0
100
AcDbCircle
10
10.30978570778505
20
24.890024480894972
30
0
40
3.0000000000000018
210
0
220
-0
230
1
0
CIRCLE
5
105
100
AcDbEntity
8
0
100
AcDbCircle
10
-10.30978570778505
20
-24.890024480894979
30
0
40
3.0000000000000027
210
0
220
-0
230
1
0
CIRCLE
5
106
100
AcDbEntity
8
0
100
AcDbCircle
10
-17.182976179641756
20
-41.483374134824956
30
0
40
2.9999999999999982
210
0
220
-0
230
1
0
CIRCLE
5
107
100
AcDbEntity
8
0
100
AcDbCircle
10
41.483374134824956
20
-17.182976179641763
30
0
40
2.9999999999999982
210
0
220
-0
230
1
0
LWPOLYLINE
5
108
100
AcDbEntity
8
0
100
AcDbPolyline
90
32
70
1
43
0.0
10
-50.711339954688661
20
-2.9999999999999805
42
0.16836925581019774
10
-37.979652708576303
20
-33.737012021456991
10
-18.738329701443515
20
-14.495689014324221
10
-14.495689014324229
20
-18.738329701443504
10
-33.737012021457019
20
-37.979652708576289
42
0.16836925581019765
10
-3.0000000000000204
20
-50.71133995468864
10
-3.0000000000000004
20
-23.500000000000007
10
3.0000000000000027
20
-23.500000000000007
10
3.0000000000000031
20
-50.71133995468864
42
0.1683692558101976
10
33.737012021456998
20
-37.979652708576289
10
14.495689014324228
20
-18.738329701443504
10
18.738329701443512
20
-14.495689014324221
10
37.979652708576282
20
-33.737012021456998
42
0.16836925581019782
10
50.711339954688633
20
-2.9999999999999538
10
23.500000000000011
20
-2.999999999999996
10
23.500000000000011
20
3.0000000000000062
10
50.711339954688654
20
3.000000000000012
42
0.16836925581019732
10
37.979652708576317
20
33.737012021456962
10
18.738329701443512
20
14.495689014324222
10
14.495689014324228
20
18.738329701443508
10
33.737012021457005
20
37.979652708576282
42
0.16836925581019765
10
3.0000000000000071
20
50.711339954688633
10
3.0000000000000027
20
23.5
10
-2.9999999999999982
20
23.5
10
-2.9999999999999942
20
50.71133995468864
42
0.16836925581019765
10
-33.737012021456991
20
37.979652708576296
10
-14.495689014324222
20
18.738329701443508
10
-18.738329701443508
20
14.495689014324222
10
-37.979652708576282
20
33.737012021456998
42
0.16836925581019754
10
-50.711339954688633
20
3.0000000000000071
10
-23.5
20
3.0000000000000049
10
-23.5
20
-2.999999999999996
0
ENDSEC
0
SECTION
2
OBJECTS
0
DICTIONARY
5
C
100
AcDbDictionary
3
ACAD_GROUP
350
D
3
ACAD_MLINESTYLE
350
17
0
DICTIONARY
5
D
100
AcDbDictionary
0
DICTIONARY
5
1A
330
C
100
AcDbDictionary
0
DICTIONARY
5
17
100
AcDbDictionary
0
ENDSEC
0
EOF
